<svg data-name="contour-map" xmlns="http://www.w3.org/2000/svg" viewBox="0 0 2402 2402.2">
  <g data-name="contour-map-group">
    <path d="M2370 2402c-14-24-34-44-54-64-78-80-152-163-229-244-30-31-63-60-98-86-45-33-71-34-119-4-39 25-70 59-104 91-12 11-24 22-39 31-35 19-71 17-104-2-68-38-124-91-162-160-28-51-20-94 18-137l72-79c11-13 19-26 27-41 19-35 18-69-2-104-17-29-39-55-60-82-15-20-28-41-37-64-17-44-13-85 17-122l74-87c17-20 32-42 44-67 9-20 9-41-4-59-38-55-82-104-137-142-51-35-95-32-142 9-30 26-58 54-88 81-48 43-91 48-149 17-28-15-52-37-76-59-23-20-46-40-72-56a81 81 0 0 0-85-4c-29 14-55 34-80 56l-54 44c-44 38-92 40-142 15-28-14-52-33-76-52-25-20-50-39-82-49-31-11-62-8-91 10-35 21-64 50-95 78-16 14-32 29-47 45-25 27-26 46-5 75 27 40 62 74 95 109 87 90 177 177 269 263 14 13 30 25 46 36 26 17 51 17 77 3 41-23 72-56 104-88l36-36c33-32 71-38 113-22 44 17 76 49 108 81 24 25 48 52 62 84 24 52 18 92-22 133-42 44-89 84-122 135l-11 16c-11 17-10 33 3 50 26 33 57 62 87 91 50 51 101 100 150 151 70 73 149 135 222 204l2 2h-6l-11-11c-73-67-150-131-219-202-77-81-159-159-240-236-22-20-22-19-44 0-59 49-110 106-158 166-12 14-23 30-26 49-4 29 10 52 24 74 39 59 89 109 138 160h-4l-52-54c-37-40-74-81-102-129-18-32-17-62 6-90l17-20c41-49 84-97 129-142 29-29 29-43 1-74-42-47-89-89-137-130-16-13-32-25-50-35-23-12-46-11-65 7-44 43-87 87-118 141-18 30-21 62-10 95 8 24 21 45 35 65l53 79c24 36 23 72 2 109-19 36-45 67-70 99-18 24-36 49-47 79h-8c20-46 52-83 82-121 15-21 29-42 41-66 15-33 14-64-4-96-16-29-35-54-53-81-12-18-23-36-32-56-16-40-14-80 10-117 34-50 74-94 116-136 24-25 44-25 73-6 50 34 93 77 138 118l78 72c10 9 19 9 28-1 50-61 106-116 159-174 33-35 34-77 12-117-34-66-85-118-150-154-48-26-89-19-129 19-36 33-67 70-106 100l-33 23c-26 17-51 16-76-2-29-21-55-46-81-71a7951 7951 0 0 1-316-317c-12-13-24-27-33-42-11-17-10-33 2-48l3-4c51-49 100-99 159-138 39-26 79-20 119 0 26 14 48 32 70 50 29 23 59 44 95 53 33 8 63 4 91-15s52-41 78-63c24-20 49-39 78-53 27-15 52-13 78 3 34 23 64 51 95 78 25 22 51 43 83 54 39 14 75 9 107-18l94-87c20-18 41-34 68-37 33-5 62 6 87 25 56 41 103 93 145 148 13 16 13 34 3 52-21 38-48 71-76 104-16 17-30 35-45 53-36 43-37 90-13 138 16 33 39 59 61 88l30 44c22 34 21 70 1 105-22 40-54 72-85 105l-15 17c-38 43-44 87-15 137 36 62 87 111 149 148 49 28 92 22 135-16l83-76c16-14 34-26 53-37 30-18 58-16 85 3 46 32 88 70 125 111 83 90 168 179 253 268 10 10 21 20 27 33h-8Z"/>
  <path d="M1478 2402c-37-32-72-65-110-95-109-87-198-191-282-300l-3-4c-46-62-41-112 19-163 15-13 34-23 51-34 48-31 60-62 46-117-17-62-52-113-91-163a485 485 0 0 0-228-164c-55-18-89-4-121 44-18 27-34 56-60 77-35 29-74 38-113 13a930 930 0 0 1-277-244c-20-28-34-58-25-94 17-71 104-114 171-84 33 16 62 38 93 57 41 25 83 48 132 55 40 6 71-8 96-40 17-22 33-45 56-63 43-34 85-38 133-11 29 16 54 37 81 56 43 29 86 56 138 66 50 10 84-4 111-47 15-24 30-48 51-66 29-25 62-40 100-25 39 15 63 44 69 86 4 27-6 50-21 72-14 21-32 38-53 52-48 32-77 62-49 150 15 49 44 91 72 134 18 29 37 58 38 93 2 40-19 70-46 96-17 15-36 26-54 39-48 33-59 64-43 120 6 23 16 46 29 67a628 628 0 0 0 257 247c35 18 74 25 113 30 17 2 30-6 38-21 11-23 20-46 33-68 22-38 52-67 99-72 24-3 45 6 64 19 31 20 55 47 81 73 46 45 92 90 137 137 25 27 48 56 60 92h-6c-13-35-35-65-61-92l-170-169c-13-14-27-26-43-36a94 94 0 0 0-119 7c-35 29-51 69-61 112-3 16 3 27 18 33l38 15c57 20 115 39 164 78 18 15 36 31 48 52h-6l-16-20c-65-67-148-95-237-111-15-3-27 5-34 18-17 36-29 74-39 113h-6c9-35 20-71 28-106 6-25 1-34-23-43-5-2-11-5-17-6a541 541 0 0 1-293-204c-37-48-71-98-86-159-12-47-2-75 37-103l55-37c59-45 71-100 35-165-23-42-53-80-73-123-15-33-28-66-28-103 0-31 11-55 36-74 17-13 37-25 53-40 30-28 52-60 44-104-10-52-75-106-143-61-19 13-35 30-47 49l-9 14c-32 62-71 83-153 56-52-18-96-50-141-82-14-10-27-20-42-29-58-35-110-27-156 23l-28 35c-39 53-72 65-136 46-53-15-99-45-145-75-23-16-47-31-75-39-25-7-50-5-73 8-35 20-63 46-72 87-5 25 4 47 15 68 30 53 72 95 117 135 46 40 95 75 146 109 57 39 106 31 151-22 16-18 27-39 40-59 32-48 65-60 119-43a566 566 0 0 1 323 319c8 17 12 36 12 56 1 26-9 47-29 63-15 12-31 22-47 31-13 8-25 17-36 27-47 43-55 90-17 142 48 64 97 129 153 187 75 78 160 143 241 214l8 8h-6Z"/>
  <path d="m1504 2402-200-169c-80-69-142-153-202-239-40-57-26-111 33-147 23-13 47-24 70-36 39-22 45-38 33-80-20-70-59-130-99-189a609 609 0 0 0-277-212c-9-4-19-6-29-8-29-7-51 2-69 25-13 18-23 37-34 57-8 16-18 31-30 45-34 36-75 47-118 22a786 786 0 0 1-242-199c-16-21-28-43-34-69-14-56 47-110 88-115 32-5 60 6 87 21 47 27 92 59 142 82 29 13 59 25 91 29 27 4 49-4 64-26 14-18 25-38 38-57 24-34 54-58 98-57 25 1 47 11 68 24 47 29 91 64 140 90 36 19 73 34 115 37 41 3 66-10 81-49 11-28 20-57 43-78 22-19 46-30 75-21 27 9 43 27 50 54 7 34-13 74-49 96l-41 20c-41 19-53 42-47 87 8 63 38 116 70 169 15 26 31 50 44 76 31 61 15 116-43 152l-68 37c-41 23-48 40-34 85 23 74 66 136 111 196 67 89 154 150 251 198 42 21 58 42 56 77-2 22-6 43-10 64l-2 8h-6c5-18 8-37 10-56 4-40-12-68-48-86a742 742 0 0 1-379-422c-13-34-9-43 23-60l78-38c38-20 66-47 71-92 2-21-4-40-13-59-18-37-42-71-62-107a414 414 0 0 1-60-183c0-28 8-40 35-50 18-6 37-11 54-20 15-8 27-18 37-32 23-33 20-72-8-95-28-22-66-17-94 12-11 12-19 25-24 40l-11 39c-11 40-28 51-69 48-74-3-135-39-195-77-32-21-63-46-98-63-55-28-107-15-141 37-14 20-25 42-38 62-20 30-38 37-73 29-64-15-119-46-174-80-26-16-52-33-81-46-55-24-110-5-139 49-16 30-9 59 5 87 22 41 53 73 86 104 48 44 102 81 158 115 59 35 110 21 146-38 17-27 28-58 47-85 16-23 38-31 65-24l26 8c49 17 92 45 136 72 136 85 210 215 266 359 13 33 8 43-24 59-24 12-49 22-73 33-14 7-27 15-39 26-39 36-43 79-8 129 67 97 140 190 233 265 55 44 108 90 162 134l5 6h-6Z"/>
  <path d="M1456 2402c-27-24-53-50-82-73-119-95-217-209-314-325-48-58-46-106 6-160 12-14 26-26 41-37l27-20c38-28 49-65 39-110-5-20-12-39-21-57a524 524 0 0 0-215-216c-18-9-38-16-58-19-43-9-78 6-104 41-17 23-33 47-54 68-52 50-102 55-159 11-87-67-175-134-246-220-23-28-45-56-55-92-6-21-4-42 7-61 22-36 52-66 91-84 34-16 67-11 99 6 29 16 55 36 83 54 37 24 75 45 120 52 41 6 74-7 101-38 22-25 44-50 72-69 45-30 90-31 135-2 27 17 50 38 76 56 37 28 77 52 123 61 44 8 80-4 107-40 20-26 40-53 66-73 25-19 52-33 85-30 88 9 142 120 94 194-19 27-42 50-68 71-43 35-53 79-38 130 13 49 42 90 70 132 11 16 22 32 30 49 19 40 15 77-8 113-22 33-52 56-82 79-35 26-50 61-42 105 4 19 9 37 18 54a569 569 0 0 0 236 235c24 13 50 18 77 18 37 0 62-20 82-48 19-28 40-55 68-75 45-34 87-35 134-4 34 23 61 52 90 81 52 51 105 103 154 158 20 23 38 47 51 75l4 10h-6c-8-23-21-43-36-62-57-70-124-131-188-195l-50-47c-63-52-121-48-177 12-14 15-26 31-38 48-36 52-71 64-132 47-25-7-47-18-69-32a598 598 0 0 1-206-225c-10-19-16-40-19-61-5-36 7-65 34-89 23-21 50-37 71-60 47-51 53-99 17-159-23-38-51-72-70-113-11-22-20-46-24-71-6-40 5-74 36-101 23-20 47-39 66-64 59-78 16-185-80-199-24-3-45 5-64 17-33 20-57 49-78 80-30 43-71 57-121 44-20-5-40-13-59-22-36-19-67-44-99-69-16-12-33-24-51-33-35-18-69-16-103 2-33 18-58 45-81 74-31 37-70 50-117 40-22-5-43-13-64-23-38-19-71-45-107-68-35-22-71-39-113-22-44 16-75 48-97 89-13 24-9 49 2 73 21 46 55 83 89 119 61 63 131 115 201 168 58 43 105 38 157-12 17-17 30-37 44-57 38-54 77-68 139-45 76 27 136 78 188 138 36 42 68 87 84 141 18 60 6 97-46 133-27 19-54 40-74 67-30 41-33 80-3 119 53 68 108 134 167 197 72 77 156 142 235 213l8 8h-6Z"/>
  <path d="M2342 2402c-31-52-74-95-115-138-64-66-124-137-194-197-13-12-27-22-41-32-42-30-85-29-128 0-35 24-64 55-93 86-40 41-83 54-134 29a425 425 0 0 1-204-203c-24-52-11-96 31-135 29-28 59-57 81-91 27-42 28-84 3-127-15-25-34-48-51-72-19-26-35-54-44-85-12-42-5-80 24-113 25-29 52-55 75-86 10-14 20-29 26-45 12-28 11-55-3-80-28-49-65-89-113-118a94 94 0 0 0-105 2c-37 23-66 54-95 84-29 31-61 54-106 47-31-4-59-18-84-35-22-15-42-33-62-50l-41-31c-46-33-92-32-138-1-31 20-57 45-84 69-53 47-97 54-161 23-30-15-55-34-81-54-16-13-33-25-51-35-40-21-79-21-118 3-42 26-77 61-108 99-22 27-20 55-4 84 23 43 57 78 90 113 74 81 157 152 238 225l21 16c49 35 87 34 135-2 34-25 62-57 90-89 22-25 49-41 84-39 19 1 38 5 56 15 81 44 144 106 184 189 27 56 16 99-30 141-30 27-61 54-86 88-38 50-39 87 2 135 47 53 98 103 145 155 81 90 174 166 263 246l8 9h-4c-55-49-111-97-164-148-86-79-162-167-244-250l-14-16c-35-46-36-78-3-126 25-36 58-64 90-94 50-47 60-91 27-152-40-72-96-130-168-169-59-32-104-22-149 27-28 32-56 64-91 88-25 17-52 30-83 22-20-5-37-14-51-27a2703 2703 0 0 1-330-323c-10-13-19-27-27-42a65 65 0 0 1 8-77c32-38 67-73 109-101s85-28 128-3c27 15 49 35 74 53 24 18 50 34 79 44 45 15 85 9 121-23l73-62c12-10 26-18 39-26 39-23 77-22 115 2 27 17 50 38 74 58 28 25 58 47 94 59 46 16 86 7 120-28 27-26 53-54 82-77 58-48 105-49 163-1 32 26 59 56 82 90 24 35 24 71 4 108-25 44-61 78-94 116-33 37-39 79-22 125 8 24 20 46 35 66l47 64c39 58 37 102-4 158-20 27-43 51-68 74-48 45-58 92-28 150a497 497 0 0 0 175 177c60 31 107 23 153-27 23-24 46-47 72-68 61-49 103-50 165-2 49 38 93 83 135 130 57 62 118 120 172 185 12 15 23 29 32 46h-6Z"/>
  <path d="m1438 2402-175-156c-68-62-126-132-188-200-16-18-34-34-49-54-35-47-35-87 0-134 21-29 47-52 74-74 56-46 69-89 37-154a442 442 0 0 0-206-208c-63-31-108-18-151 37-23 29-48 57-78 78-43 30-84 33-125 1a1773 1773 0 0 1-305-288c-14-18-26-36-33-57-9-25-8-49 7-70 26-37 57-68 96-91 38-22 77-21 115 0 25 13 46 31 69 47 32 23 65 44 103 54 46 12 86 2 120-32 26-27 53-53 85-73 45-30 90-30 135 0 31 21 57 46 87 68 26 19 53 35 84 44 48 15 89 4 122-34 25-29 51-58 83-81 48-34 90-34 138 1 25 19 47 42 64 69 25 40 25 80 0 121-19 31-43 57-69 82-50 47-60 91-34 154 13 34 34 64 56 93 13 18 25 36 35 56 19 37 18 75-3 111-20 34-48 61-79 86-25 22-46 46-48 82-2 30 6 58 21 83 48 84 115 149 199 198 19 11 41 17 63 18 40 3 69-16 93-44 23-28 47-55 77-77 50-36 94-36 144 0 50 37 93 83 136 128 49 53 102 103 147 159 14 18 28 36 37 57h-6c-22-46-56-83-91-119-62-65-122-131-189-191-18-16-35-31-56-41-34-19-69-18-103 1-35 21-62 49-87 80-22 28-48 51-86 53-29 2-56-5-80-19a539 539 0 0 1-206-208c-10-18-16-38-18-58-5-38 8-70 37-95 28-24 58-48 80-79 32-45 35-91 6-139-23-37-52-69-71-108-19-36-33-73-25-115 6-27 23-47 43-66 25-24 50-49 69-79 28-43 28-85 0-127-19-28-42-52-71-70a97 97 0 0 0-109 0c-36 22-65 54-91 86-35 42-79 53-130 37-21-7-41-17-60-28-26-17-49-37-74-57l-40-29c-42-27-85-26-127 1-30 19-55 42-79 67-39 44-85 54-139 36-35-12-67-32-97-53-22-16-43-33-68-46-39-21-78-19-116 4-34 21-61 48-84 80-20 28-19 57-4 87 24 48 61 87 97 125 66 70 142 131 216 191 53 43 98 41 150-1l31-29 36-44c39-48 79-60 137-38 60 22 107 64 149 110 36 38 68 79 85 131 17 54 6 93-39 129-25 20-50 41-72 66-45 55-47 101 1 155 102 116 203 233 324 331 27 21 51 46 77 69h-4Z"/>
  <path d="M2402 884c-39 0-68 18-91 49-19 25-41 48-67 66-45 31-87 30-131-1-33-23-58-54-85-82-33-32-66-62-112-72-38-9-69 0-95 31-17 20-29 44-45 66-16 23-34 43-58 59a94 94 0 0 1-109 3c-22-14-41-31-60-48-40-35-81-69-132-86-42-14-83-17-118 16-13 11-22 26-31 40-13 20-27 38-45 54-60 51-129 42-174-23a89 89 0 0 1-2-107c16-25 38-45 63-62l20-14c49-32 64-69 46-125-26-84-79-152-146-209-55-47-113-91-162-144-26-27-48-56-64-90-19-41-17-79 9-116 14-20 29-38 49-52 32-23 66-26 100-7 45 26 84 59 123 93 102 89 203 180 301 274 44 42 71 96 105 146 49 73 111 132 197 159 16 5 32 8 48 8 37 1 58-13 72-47 13-31 15-65 25-96 11-34 24-66 41-97 25-45 67-45 94-1 14 24 18 51 24 77 19 85 59 155 138 196 30 15 61 26 94 29 40 4 71-12 92-46 18-29 30-61 42-93 10-27 23-54 44-76v8c-23 26-36 58-48 90-7 21-15 42-26 61-30 57-64 73-127 58-118-28-186-105-213-221l-14-53c-3-9-8-19-13-27-23-35-58-35-79 1-25 41-42 85-52 132l-10 45c-15 60-46 78-106 65-73-15-129-57-179-109-23-23-43-48-58-76a695 695 0 0 0-172-205c-74-62-140-133-215-194-35-28-71-56-107-82-55-39-101-33-146 18-49 55-54 102-14 166 40 62 94 110 152 155 64 50 124 104 166 175 21 34 39 69 46 109 7 42-6 76-43 100-26 16-52 33-73 56-35 37-43 75-25 112 21 43 66 70 109 66 35-4 60-25 83-50 12-13 21-28 30-42 38-60 81-75 148-51 51 18 92 51 132 86 20 17 40 35 62 49 36 21 71 20 105-3 27-18 47-42 65-70l31-50c29-41 62-52 111-38 37 11 67 34 93 60l72 73c64 61 121 61 185-1 12-13 24-26 34-41 23-33 54-52 96-50v6Z"/>
  <path d="M1128 2c33 46 68 90 107 130 82 84 174 156 263 232a1144 1144 0 0 1 96 90c46 39 83 34 115-19 6-11 13-23 17-36 16-49 30-100 42-150 6-26 1-36-24-45-38-14-79-21-115-42-69-41-132-89-182-153l-5-7h6c17 26 39 49 63 69 50 42 100 85 165 106 26 8 54 14 82 17 17 2 30-5 38-21 11-23 20-46 33-67 22-39 52-68 99-73 24-3 45 6 65 19 30 20 54 47 80 72 46 46 92 91 137 138 30 31 56 66 65 110 3 17 1 33-3 50-10 42-26 82-52 117-25 34-55 31-73-7-12-23-17-48-24-73a302 302 0 0 0-217-215c-26-8-53-17-80-20-23-3-33 1-43 22-20 42-32 87-45 132-8 27-18 54-35 77-30 38-63 43-101 13-25-20-45-46-69-67l-243-211c-64-56-118-120-168-188h6Zm1141 392c0-22-4-38-10-53-14-30-33-56-56-79L2033 93c-13-14-27-26-43-36a94 94 0 0 0-119 7c-36 30-51 69-61 112-3 16 4 27 18 33l50 19c38 14 76 28 112 47 80 43 119 115 144 198 6 19 11 39 22 56 15 24 36 27 55 5 36-41 52-92 58-140Z"/>
  <path d="M1468 2c55 61 114 117 193 147 21 7 42 9 65 7 31-4 52-24 69-48 20-28 41-54 68-75 45-33 88-35 134-3 45 31 82 72 120 111 42 42 84 83 123 127 20 23 38 47 52 75 15 29 18 59 8 90-15 47-35 93-60 136-28 50-79 50-109 1-15-26-20-54-25-82a262 262 0 0 0-254-224c-26 2-45 15-59 36-22 32-31 68-43 104-11 34-25 67-51 94-27 28-57 30-88 6-26-19-45-46-67-69-64-66-135-124-204-183-86-74-164-156-235-244l-3-6h4c71 91 150 174 238 249 85 73 172 144 247 228 46 51 90 44 126-14 21-33 30-70 42-105l15-39c27-59 59-75 122-60a270 270 0 0 1 214 222l14 56c5 17 13 31 26 43 24 23 54 21 76-5l11-16c22-39 40-80 55-123 12-38 8-73-12-107-22-37-50-69-80-99-57-59-113-118-174-173-29-26-61-49-104-45-38 5-66 28-90 56-12 13-21 27-31 41-35 50-70 63-130 46-27-7-51-19-74-34-47-33-91-70-129-114l-4-7h4Z"/>
  <path d="M812 2c0 5-4 7-7 9-20 23-38 46-56 71a92 92 0 0 0-8 96c23 49 58 89 94 128 63 67 132 129 196 194 30 30 58 60 75 99 22 52 15 91-25 131-33 34-69 65-99 102-11 13-20 27-28 42-11 19-11 39 2 56 39 52 84 98 141 132 42 25 85 22 125-9 33-25 61-55 90-84 49-49 96-55 155-20 25 14 46 33 66 52 25 26 50 52 79 73 38 28 61 29 101 4 37-23 67-55 97-86 13-13 26-27 40-39 37-32 77-36 120-12 30 16 54 40 77 63 27 27 54 53 85 76 30 21 59 22 91 4s60-42 87-66l50-43c13-11 26-19 42-23v6c-22 7-40 21-57 36-37 31-70 66-111 91l-21 12a63 63 0 0 1-71-3c-31-21-58-47-84-73-23-23-45-46-72-64-53-36-97-33-144 11-29 26-56 55-84 82-19 18-40 34-63 46a60 60 0 0 1-66-3c-34-22-63-52-92-81-28-29-57-56-96-70a99 99 0 0 0-113 20l-74 71-30 25c-41 33-84 34-129 9-36-20-65-49-94-78-19-17-37-35-53-56-19-24-20-37-3-62 32-48 74-87 115-126l23-24c34-38 39-78 15-127-18-38-46-67-75-97-70-71-145-138-211-212-29-32-57-66-75-106a90 90 0 0 1 8-100l61-77h6Z"/>
  <path d="M2402 600c-22 28-30 62-42 94-12 34-23 68-38 100-11 23-20 28-45 24-70-13-137-36-198-74-46-30-73-74-95-123l-31-75c-6-14-11-33-30-34-20-1-29 16-37 30-20 37-28 78-31 119-2 22-4 43-4 65-1 21 8 37 26 48 8 4 15 9 23 12 59 22 104 61 144 108 18 21 36 42 56 60 60 53 124 45 169-21 14-20 22-42 33-63 13-27 22-31 51-27l49 9v6c-18-2-36-5-54-3-17 2-30 11-39 26-11 17-20 35-32 52-22 32-50 56-90 62-31 4-56-9-79-27-31-25-56-55-81-84-41-46-90-76-148-94-12-3-24-9-36-13-10-4-15-12-13-23 14-58 15-119 32-176 7-23 16-45 30-64 22-29 45-28 60 5 11 25 20 52 30 79 46 133 151 187 280 207 25 4 44-7 57-29 21-36 33-75 47-113 9-25 18-50 36-71v8Z"/>
  <path d="M2402 908c-51 6-77 47-110 79-19 17-38 34-62 46a98 98 0 0 1-103-2c-21-12-38-27-55-44-31-30-60-63-97-87-59-40-110-33-155 22-23 28-44 58-71 82l-15 12c-49 38-92 39-142 0-23-19-44-40-67-60-35-31-73-59-121-68-41-8-75 3-103 34-24 29-46 59-76 82-47 37-88 42-133 16-30-17-54-40-72-68a90 90 0 0 1-1-103c12-18 26-35 42-50 15-14 31-27 48-40 49-39 61-79 39-138-25-66-70-118-122-164-60-55-124-106-179-166-25-29-48-59-64-94-18-39-16-76 8-112 23-33 48-63 83-83h14c-37 16-64 45-87 77-31 43-32 86-7 131 30 56 74 101 121 143 43 39 89 76 130 116 51 48 95 102 114 171 13 48 1 88-40 118-23 17-46 35-66 56-60 64-57 121 9 179 61 54 118 50 182-12 17-16 30-34 44-52 38-49 81-61 140-40 50 18 88 52 126 88 18 16 35 32 56 45 36 22 72 22 108-1 29-19 51-43 72-70l34-44c38-43 84-51 135-24 32 17 58 43 84 69 24 24 47 49 76 68 41 27 81 27 122 1 33-21 59-49 85-77 20-22 44-40 76-40v4ZM1350 2c28 47 48 98 83 140 16 19 38 30 60 42 44 23 85 51 121 86 9 9 17 19 19 33 4 20-10 33-30 27a670 670 0 0 1-134-102c-30-31-65-56-102-78-62-36-109-87-147-148h10c8 18 21 32 33 47 30 37 65 69 110 87 7 4 17 8 23 2 8-6 2-16-1-23-15-39-33-77-55-113h10Zm145 204c-11-1-13 4-10 9l13 20c25 26 53 47 84 65 9 5 19 14 27 5 9-11-2-20-9-28-25-27-55-48-88-65l-17-6Z"/>
  <path d="m842 2-34 36-28 36c-32 42-32 85-7 129 31 58 77 104 123 149 55 54 116 102 168 159 32 35 61 74 73 122 10 42 0 78-33 106-27 25-55 48-80 76-56 63-55 106 2 168 19 21 41 39 65 54 41 24 81 24 120-3 36-23 64-54 91-86 26-29 56-48 96-44 25 3 48 12 69 24 38 22 67 53 98 82 16 15 33 30 52 41 32 18 64 18 95 0 38-22 66-53 94-85l29-32c41-41 85-47 136-18 22 13 42 31 60 49 29 28 55 57 88 79 41 28 81 29 123 3 37-24 68-56 100-86 17-16 36-30 60-33v6c-22 3-40 16-56 31-31 28-60 58-95 82-51 35-90 34-140-2-22-16-41-36-60-55-24-24-47-47-76-65-53-32-97-27-140 17-27 27-50 57-78 82-13 12-27 23-42 32a92 92 0 0 1-104-3c-32-21-57-49-84-74-33-30-68-57-113-67-37-8-70 2-97 29-28 28-53 59-84 84-59 47-105 48-165 2-29-21-54-47-75-77a84 84 0 0 1-3-98c22-37 54-65 86-94l21-20c40-34 47-76 29-124-16-45-46-82-80-116L861 322c-39-39-74-80-99-130-19-40-16-78 10-115 19-27 40-53 64-75h6ZM2 1912c13-55 51-91 94-123 46-35 57-79 41-133-13-42-36-80-61-116-17-24-35-48-45-75-12-30-11-59 3-87 18-34 43-60 76-80 31-18 62-12 91 4 53 29 94 71 135 113 53 56 99 117 146 176 46 58 45 104-1 162-14 19-31 35-49 50-43 37-53 82-38 135 12 42 34 79 57 116 17 29 35 57 40 91 3 17 2 34-4 50-15 43-43 76-80 101-22 15-47 13-71 4-44-18-78-49-112-81-50-48-90-104-133-158l-13-15c-30-36-65-68-76-116v-18Zm8-3c0 37 9 59 33 89l120 148c38 47 79 90 129 124 13 9 27 17 42 23 32 13 61 9 87-14 39-35 71-74 65-132-3-29-18-55-33-80-22-37-45-73-60-114-24-70-14-110 41-159 17-14 32-30 45-48 40-51 42-96 2-148-47-61-94-123-147-180-37-39-76-77-122-105-21-12-43-23-68-19-47 5-105 65-114 114-2 10-2 21-1 31 6 36 27 65 47 94 27 40 54 80 67 128 16 58 5 94-42 131-16 13-33 25-47 40-23 25-43 52-44 77Z"/>
  <path d="M2 1392c6-4 6-11 9-16 21-43 53-76 93-101 25-17 52-15 79-2 46 22 83 57 120 92 73 70 136 149 202 225 47 54 47 101 6 160-18 25-38 48-60 69-44 42-50 91-30 146 12 33 31 62 50 91 11 18 23 37 32 56 17 39 15 77-5 114-19 34-44 63-73 88a73 73 0 0 1-82 11c-46-20-82-54-118-87-53-51-97-109-144-165-24-28-50-56-76-83l-3-2v-8l41 45c53 55 96 118 149 173 37 40 77 79 124 108 51 31 83 27 125-15 16-16 30-32 42-50 32-47 34-95 7-144-20-36-45-69-63-107-16-35-28-71-20-111 6-28 24-48 43-67 23-24 46-48 64-76 28-45 28-90-4-132-29-37-61-73-92-109-56-66-113-130-181-183-23-18-46-33-74-41-18-4-35-3-51 6-45 26-80 61-100 110-13 32-7 62 8 92 17 31 40 58 60 87 17 28 33 57 41 89 11 45 2 85-34 117-29 26-58 52-81 84l-4 2v-8c29-37 67-66 97-101 15-18 21-39 21-62-1-29-10-54-22-80-26-55-73-98-96-155v-60Zm0-382c13 5 20 17 29 26 21 18 41 36 65 50 21 13 43 15 66 5 26-12 48-28 70-46l74-66c41-36 87-39 136-17 29 13 54 33 79 53s50 39 81 50c32 11 63 9 93-8l16-9c46-33 88-71 129-110 27-26 27-45 4-75-33-43-73-78-112-116-85-83-173-164-253-254-13-14-28-27-43-38-29-20-47-20-74 2-35 28-57 64-75 104-11 23-19 47-30 71-36 80-108 99-179 48-33-24-56-56-70-94-2-4-2-8-6-10v-14c6 2 5 8 6 12 20 58 54 103 115 122 50 16 92-1 119-46 15-24 22-51 34-76 20-48 46-92 85-127 29-25 44-25 74-2 40 33 72 74 107 111 77 80 159 156 239 234 27 25 54 50 77 79 21 26 22 41-2 63-48 44-96 88-150 125-41 28-84 25-127 3-27-14-50-34-74-53s-50-37-80-47c-39-12-76-8-108 18-31 25-61 52-91 78-17 14-35 26-54 38-30 18-58 15-85-5s-51-43-75-66l-10-9v-4Z"/>
  <path d="m2 714 19 14c57 43 122 67 193 77 25 3 44-7 57-29 21-36 33-74 47-113 11-31 23-61 48-85 24-24 51-28 81-13 32 16 57 42 86 64 57 44 113 90 161 145 20 24 39 48 49 78 8 22 7 44-6 64-34 51-94 97-175 49l-107-68c-43-25-90-41-140-43-24-1-43 8-56 29-10 17-19 34-30 50-22 32-50 56-90 62-30 4-55-9-77-26-19-14-34-31-50-48-3-3-5-8-10-9v-8c13 8 21 22 32 32 24 24 49 48 84 52 37 5 65-13 89-38 20-20 31-46 42-71 18-38 25-41 67-35 76 11 140 46 202 88 25 17 50 34 80 42 55 16 125-23 141-79 7-24 0-46-12-67-29-52-72-93-117-131-44-38-90-73-136-109-19-15-41-28-67-25-24 4-40 19-53 37-22 28-31 62-42 95-11 32-22 65-37 96-12 26-22 32-50 26-81-16-158-42-223-95v-8ZM2046 2c66 58 120 127 181 190 44 46 90 91 133 139 49 53 49 70 9 131a634 634 0 0 0-76 150c-41 101-132 84-183 30-34-35-48-80-54-127-7-48-20-94-54-131-18-19-39-34-63-43-53-19-99-1-123 50-16 34-28 71-42 106-9 23-20 45-33 67-27 46-67 57-115 32-25-14-47-32-62-56-72-109-168-196-266-280-75-65-142-138-213-207l-51-51h6c101 101 199 205 308 298 80 67 154 141 212 229 18 27 41 49 72 64 42 20 77 10 102-29 28-43 47-89 62-138 7-22 16-44 31-63 28-35 73-45 120-24 62 28 93 80 107 144 6 27 8 54 16 81 16 50 44 90 95 109 44 17 84 2 111-38 10-16 17-34 24-52 18-45 40-88 66-129 31-48 30-70-6-114-44-56-97-105-146-156-56-60-108-124-170-179l-2-3h4Z"/>
  <path d="M1992 2c34 26 66 54 95 85 68 69 136 136 198 210 15 18 28 38 38 60 12 26 14 53 2 80-21 50-42 100-66 149-31 64-96 68-139 10-23-32-28-70-34-108-14-77-52-138-122-177-29-16-61-25-95-21-28 2-49 16-66 39-18 26-27 55-37 85-13 40-29 80-58 112-28 31-60 34-94 10-19-13-34-30-48-48-60-80-136-143-210-207-99-84-188-176-273-274l-3-5h6l60 70c80 94 174 173 266 254 60 53 120 107 169 171 9 12 20 23 32 32 33 24 64 21 92-9 33-36 49-80 63-125 5-17 11-34 19-50 27-53 67-73 125-58 99 26 154 93 176 191 6 24 8 50 16 74 10 28 25 53 52 68 29 17 65 14 82-14 40-60 68-125 87-194 8-31-7-60-25-86-32-48-72-89-112-130-50-51-98-104-152-152-17-15-35-29-54-42h10Z"/>
  <path d="m1064 2 67 74c89 100 192 185 291 275 54 49 104 100 146 160 14 20 32 38 54 51 36 22 68 17 94-16 31-38 49-82 64-128l15-42c29-63 78-85 144-60 74 28 114 86 131 161 6 27 8 54 16 80 11 34 28 64 59 83 45 29 92 18 119-27 14-23 22-48 33-72l45-95c18-34 16-67-4-99-28-45-65-83-101-120-68-70-131-144-204-209l-17-16h6c67 59 126 126 188 191 43 45 87 89 125 140 30 39 35 79 9 123-25 44-45 91-64 137-13 32-32 60-69 67-42 8-74-12-100-44-25-30-34-68-39-106-9-63-31-120-83-161-19-16-41-27-65-33-55-13-96 5-121 55-13 25-19 52-29 77-13 36-29 71-53 102-27 35-61 41-99 19-20-11-36-26-49-44-64-94-148-170-234-244-93-79-177-168-261-257l-20-22h6ZM2 2034c20 13 35 30 51 47 57 61 110 127 170 186 38 36 75 73 118 105s63 30 98-12c32-39 66-77 93-121 27-45 28-91 2-137-17-30-39-56-56-86-19-33-35-69-29-109 4-23 15-43 29-60l70-87c15-18 27-38 38-59 12-25 10-48-5-71-19-27-42-50-65-73l-210-215a1241 1241 0 0 0-136-120c-30-18-52-17-78 6-29 25-55 55-81 83l-9 9v-8c19-16 34-36 51-53 14-15 27-31 44-44 23-19 42-20 67-4 36 22 65 51 95 80 105 103 209 209 310 315 47 50 47 65 9 122-29 45-68 83-100 126-27 39-31 79-15 122 8 20 18 38 30 56 17 26 36 50 50 78 22 42 22 83-2 123-38 61-82 118-133 169h-36c-18-10-34-23-49-37l-88-82c-65-61-121-131-182-196-16-17-31-34-51-47v-6ZM526 2l46 69c19 32 20 64 3 97-16 32-38 60-60 89-21 26-41 53-56 84a89 89 0 0 0 8 99 2182 2182 0 0 0 357 366c15 12 31 24 49 32 22 10 43 10 62-5 51-41 100-85 139-138 24-33 20-68 3-103-19-40-52-68-81-100-73-80-154-153-225-235-23-26-44-54-62-84-20-34-18-65 8-95l57-67 6-9h6c-9 16-23 28-34 42l-33 41a73 73 0 0 0-8 79c11 22 25 42 39 62 46 58 99 110 151 163l143 148c21 22 38 47 47 77 10 32 5 62-16 89-32 42-72 74-108 111l-4 4c-48 46-69 48-121 7a2335 2335 0 0 1-377-378c-31-37-33-74-8-115 21-36 47-67 71-100 16-20 29-41 40-64 16-34 15-66-3-98-11-20-24-39-38-58l-5-10h4ZM2 986c12 7 21 19 32 29 14 12 29 24 45 34 35 22 71 22 107 2 37-21 67-51 97-80 52-51 98-58 163-27 32 16 59 38 87 59 20 15 41 30 64 39 35 13 69 8 100-11 42-24 77-57 108-94 21-25 21-51 5-79-20-34-48-62-75-91-70-73-147-139-219-210-18-18-35-39-56-55-46-36-84-32-122 12-24 28-39 60-52 93l-19 47c-37 76-99 96-174 56-36-19-63-46-84-81-2-3-3-8-7-9v-10c4 2 5 6 7 9 24 44 57 77 104 95 64 24 116 5 147-56 13-28 23-57 36-86s30-56 53-78c32-29 63-32 100-7 18 13 33 28 49 44 77 83 165 156 244 238 24 26 50 51 69 81 26 38 24 64-8 98-28 30-58 58-92 81-47 33-94 34-143 4-24-15-45-33-68-50-36-26-73-49-119-51-28-2-53 7-73 25l-86 75c-14 13-30 24-48 31a93 93 0 0 1-88-4c-28-15-51-37-73-59-3-3-6-7-11-8v-6Z"/>
  <path d="M956 2c71 50 137 106 199 166 70 68 145 131 216 197 49 46 89 99 125 156 34 55 76 104 134 136 19 10 39 17 60 21 51 9 85-9 101-58a1875 1875 0 0 1 70-184c24-39 64-45 99-17 29 23 40 55 46 89 8 41 15 82 35 118 38 69 94 113 174 120 38 3 68-13 90-44 18-25 28-54 39-83 11-30 25-59 46-84l12-11v6c-29 30-45 67-60 105-6 19-14 38-24 55-31 54-73 73-133 57-96-26-150-93-173-187-7-27-10-55-19-81-6-20-17-39-34-53-33-27-72-21-94 16-16 26-25 56-37 84-12 30-20 61-29 92-18 58-54 79-113 65-58-13-102-48-142-91-22-23-41-49-57-76-37-62-82-118-136-165-86-75-167-154-252-230-34-30-70-58-105-87-16-13-34-23-52-32h14ZM2 680c5 0 6 4 8 6 45 48 100 77 165 85 37 4 68-9 89-40 21-30 33-65 46-98 12-32 26-62 52-85 27-24 54-27 86-9l15 10c83 73 173 140 247 223 20 23 40 46 53 74 15 32 12 61-10 89-13 18-29 33-47 47-44 32-90 36-136 8-29-17-56-37-84-55-37-24-76-44-121-50-35-4-66 6-90 33-24 28-46 58-77 79-46 33-88 33-135 0-19-14-36-32-53-49-3-3-4-6-8-6v-6c10 2 14 12 20 18 15 14 29 28 45 39 42 30 82 30 125 2 23-16 43-35 59-58 39-57 79-75 163-45 44 17 82 45 120 71 18 12 36 24 56 32 33 13 64 10 95-7 23-13 42-31 60-51 25-30 28-61 10-95-23-46-59-81-95-117-58-57-124-105-184-160l-9-7c-49-36-88-30-123 19-17 24-28 51-38 78-7 21-15 41-26 60-30 57-64 73-127 58-56-13-105-39-145-81-1-2-4-3-6-4v-8Z"/>
  <path d="M2 962c5 0 7 4 9 7 19 18 38 37 60 51 40 27 81 27 122 1 31-20 57-45 81-73 40-47 88-54 143-35 38 14 71 37 104 60 17 13 34 25 52 36 44 24 86 23 128-5 29-18 53-41 74-68 20-26 22-53 8-82-19-39-49-70-78-101-60-62-126-117-190-175-19-17-36-37-57-52-41-30-78-26-111 12-25 29-40 63-53 97-7 19-14 38-24 55-31 54-72 72-133 57-52-13-94-42-127-84l-8-9v-8c14 14 25 31 40 45 35 31 75 52 123 55 39 3 69-13 92-45 18-25 28-53 39-81 12-32 26-62 48-87 35-40 73-44 115-12 32 24 58 55 88 81 71 62 141 125 203 196 17 20 33 41 43 66 8 20 9 41-4 60-29 45-67 81-118 101-33 13-65 7-95-9-28-15-52-36-77-53-36-25-72-47-116-53-38-6-69 6-96 33-23 24-46 49-73 70-59 46-108 45-165-3L2 968v-6Zm0 1048c18 13 32 28 47 44 47 53 92 107 139 158 42 46 86 88 138 123 12 7 24 14 38 18 17 5 35 4 49-7 50-40 93-86 113-149 12-37 1-72-18-105-20-33-44-64-61-99-33-67-27-113 22-169 24-28 50-55 69-86 32-50 32-90-5-135-49-59-102-115-155-171-48-53-99-104-156-149-13-11-27-21-43-29-32-17-63-15-91 9-29 25-56 52-79 83l-7 8v-10l40-44 46-44c28-24 59-26 91-8 45 26 82 62 119 98 78 73 147 155 221 232 9 9 15 19 23 28 32 41 33 83 6 127-22 36-50 67-78 97-43 47-48 99-22 155 8 18 18 35 29 52 13 20 26 39 38 60 29 49 28 97-3 145-23 36-50 69-82 99-28 26-53 29-86 10-46-25-83-62-121-98-60-57-110-124-166-185-17-18-35-37-55-52v-6ZM990 2c135 116 259 242 393 359 54 48 96 105 136 165 30 46 65 88 116 113 16 7 32 13 50 14 38 4 67-10 82-46 22-51 41-103 61-154l11-27c29-58 89-68 136-23 32 30 45 69 51 111 7 47 18 92 47 130 30 41 68 69 119 78 46 8 81-10 107-48 14-21 22-45 31-68 17-43 37-84 72-116v8c-33 30-52 69-68 109l-19 47c-37 76-100 96-174 56-69-37-102-98-115-173-6-32-10-64-26-93-10-20-24-37-44-49-41-26-85-16-108 27-21 39-33 81-50 122-7 19-13 38-21 56-21 52-57 70-112 55-42-12-76-38-106-70-18-20-35-41-50-65a809 809 0 0 0-164-190c-100-84-189-179-288-263L984 2h6Zm578 2400c-20-20-44-35-66-53-76-63-157-120-227-190-50-51-91-109-124-172-25-48-3-91 48-99 25-4 48 3 69 20 16 13 28 28 41 45 34 45 67 91 97 139 28 44 63 79 107 107 44 29 86 60 128 93 36 29 46 69 29 110h-8c15-54 7-79-39-115-37-29-74-57-114-82-45-28-80-66-108-110-35-57-72-111-116-161-24-26-52-44-90-36-34 7-52 35-44 69 4 18 13 33 22 48 51 84 114 158 193 217 73 55 143 113 214 170h-12Z"/>
  <path d="M2402 464c-36 31-57 72-76 115l-21 53c-36 80-108 99-179 48-51-37-75-89-84-149-6-34-10-68-27-98-21-39-51-68-96-75-33-5-59 7-79 33-11 15-18 32-24 49-15 46-34 91-54 136-27 58-72 74-130 45-32-16-60-39-79-68-79-124-187-219-295-316-85-75-166-156-248-235h6c113 104 218 216 336 315 73 62 136 133 189 213 22 34 50 64 86 83 40 22 79 20 105-3 13-12 20-28 28-44 20-42 38-85 52-129l13-32c27-53 79-69 131-40 51 29 74 76 84 131 7 35 10 71 26 104 22 46 55 81 104 96 50 16 93-1 120-46 15-24 23-51 34-77 19-44 42-86 78-119v10Zm-1 922c-5 0-7-4-10-7-46-46-92-93-142-134-12-10-24-19-38-27-23-12-46-12-65 6-47 41-91 85-124 139-22 36-21 74 0 111 15 26 34 49 52 72 19 24 36 49 46 78 16 42 11 82-19 117l-71 78c-21 23-39 47-54 74a53 53 0 0 0 3 61c22 30 48 56 76 81 48 44 89 95 132 143 66 74 136 144 215 204v8c-67-52-128-112-185-175-75-84-152-165-233-243-40-40-39-49-7-96 30-42 67-78 101-117 19-21 38-43 44-72 6-34-5-64-21-93-15-28-36-51-54-76-10-13-20-27-29-42-26-39-24-78 0-117 35-55 80-100 128-144 21-20 41-20 66-5 33 21 60 48 88 75 32 30 62 61 93 92l8 9Zm-707 1016 6-38c2-37-12-65-42-86-32-22-64-45-97-66a567 567 0 0 1-177-181c-27-43-57-84-86-126-33-46-69-64-140-30-38 18-50 56-36 96a1010 1010 0 0 0 243 289c56 43 110 90 167 134l8 8h-8c-8-10-19-17-29-24-76-61-152-122-223-188a992 992 0 0 1-148-188c-47-72-18-133 69-150 40-8 71 2 93 36 43 65 85 131 131 193 26 35 55 66 90 91 43 30 84 62 128 89 62 38 75 70 57 141h-6Z"/>
  <path d="m2401 1402-62-59c-30-29-61-57-96-80-47-30-77-28-119 10-26 24-51 49-70 79-29 43-31 86-5 131 15 25 33 47 50 70 19 25 35 52 44 81 16 48 7 90-29 126-31 31-63 60-87 97-31 47-30 81 3 126 20 27 45 48 67 72 59 62 108 131 170 190 42 39 83 79 135 105v6c-42-20-76-52-110-82-61-56-113-120-166-182-29-34-63-62-91-96l-9-10c-37-48-38-81-5-131 23-34 53-62 81-91 48-49 56-95 26-157-14-28-33-53-52-77-15-20-31-41-41-65-15-33-14-67 4-98 26-47 63-84 105-117 26-20 55-18 83-2 46 26 83 63 121 99 18 18 38 34 53 55Z"/>
  <path d="M2402 2256c-20 2-37-6-53-15-45-25-80-62-113-102-36-45-69-92-102-140-16-23-29-48-27-77 3-39 27-64 58-84 16-11 34-20 50-32 34-25 44-50 33-91-12-51-37-95-64-139-20-34-44-66-58-103-22-59 14-127 74-138 24-4 46 3 66 15 56 31 97 77 136 126v6c-28-36-58-70-94-99-25-20-51-39-83-42-63-8-114 60-96 124 8 25 22 48 35 70 32 51 64 102 85 158 25 68 16 94-46 130-21 13-43 23-61 41-30 31-40 69-18 106 52 89 110 175 190 242 26 22 54 37 88 40v4Z"/>
  <path d="M2401 1418c-9-3-13-11-20-18-43-43-85-87-140-116-41-23-71-20-107 10-25 20-47 43-63 70-23 38-23 76-3 114 17 32 40 59 59 88 17 26 32 53 40 82 15 50 4 92-36 127-28 24-55 49-76 81-31 45-34 88 2 128 78 87 146 184 232 264 34 31 69 60 113 76v6c-64-26-111-74-158-122-51-52-93-112-142-166-20-21-41-40-57-64a98 98 0 0 1-2-115c20-32 48-59 76-85 51-46 61-88 36-152-14-34-35-64-56-93-13-18-27-36-37-56-21-40-19-78 4-116 20-32 47-59 77-81 28-21 58-22 88-7 47 23 84 58 120 93 18 17 36 33 50 52Z"/>
  <path d="M2402 1440c-43-47-86-93-141-126-53-32-87-28-133 13-24 23-45 49-50 84-5 26 2 51 15 73 18 31 39 60 58 90 20 32 36 66 44 103 9 45-4 82-40 111-22 17-44 33-62 55-45 51-48 97-5 150 58 70 110 144 174 210 28 29 58 56 93 77 15 9 31 15 47 20v4c-15-1-29-8-42-16-58-34-104-83-147-134-44-52-86-106-129-158-45-55-43-101 2-154l33-34 24-19c47-38 59-75 41-134-12-42-36-79-60-115-17-24-34-47-45-74-12-30-11-60 4-88 17-34 43-60 75-80 31-18 62-12 91 4 53 29 94 71 135 113l18 19v6Z"/>
  <path d="M2402 2282c-62-13-104-55-145-98-57-61-105-129-154-196-40-55-31-104 22-152 14-13 29-23 44-34 47-34 58-67 43-123-12-48-37-90-64-131-12-18-24-36-34-56-32-57-24-106 24-151 39-35 74-40 120-15 58 32 101 79 144 128v4c-23-24-45-50-70-73-19-17-39-33-60-47-62-39-114-28-159 45-20 32-15 67 1 100 18 36 42 67 62 102 23 40 44 81 49 128 3 30-7 55-29 76-16 15-36 26-54 40-28 23-52 48-57 86-2 21 3 40 14 57 65 92 127 187 215 260 26 21 54 39 88 44v6ZM1380 2c34 58 73 112 132 149 44 28 87 60 128 93 34 27 45 64 33 102-12 36-40 47-73 29-15-8-28-19-41-30-90-70-179-140-265-215-41-37-74-81-104-128h6c45 71 103 130 170 182 69 53 136 111 206 164l23 16c38 23 71 5 75-39 2-32-11-57-35-77-40-31-80-62-122-89-48-30-86-68-115-117-8-13-19-25-24-40h6Zm724 2400c-26-46-67-77-114-99-33-16-68-29-100-48-24-14-42-33-40-64 6-66 77-103 134-68 32 19 55 48 80 75 39 42 83 79 122 120 23 24 43 51 52 84h-10c-6-33-26-59-49-81-57-53-111-109-165-167-22-23-49-41-84-38-42 4-75 45-70 86 3 20 15 33 31 44 28 20 60 32 92 46 51 22 95 52 124 100l5 10h-8Z"/>
  <path d="M1148 2c89 134 216 230 338 331 30 25 60 50 89 77 11 10 23 19 36 27 29 16 55 11 76-15 26-31 32-69 39-107l2-16c4-41-12-69-48-87-74-35-138-83-199-137-23-21-43-45-59-73h4c18 25 37 50 60 71 59 52 121 99 194 132 25 12 49 26 54 57 5 33-4 66-12 98-7 28-17 54-37 74-22 23-45 26-73 11-22-13-39-32-58-48l-234-198c-66-56-123-121-173-192-2-1-2-3-3-5h4Z"/>
  <path d="M1404 2c29 45 62 86 106 118 48 35 96 70 146 102 60 38 68 135 16 184a49 49 0 0 1-54 11c-16-6-30-17-43-28-91-76-185-148-273-227-52-46-95-99-135-156l-1-4h6c25 39 52 76 84 110 72 74 154 136 233 200l94 77c53 41 95 26 112-39 15-60 1-95-51-129-61-41-121-81-176-130-28-25-49-57-70-89h6ZM2 138l5 2c41 46 89 86 131 130 25 26 47 53 53 89 7 42-5 79-31 112-12 15-26 14-38-1-15-18-23-40-34-60-20-38-40-76-71-106L2 292v-8c17 7 27 21 38 34 22 26 38 57 56 87 7 13 15 26 24 38 15 20 30 19 43-2 23-37 28-76 7-116-15-28-36-52-60-73-35-32-70-65-101-100l-7-6v-8Z"/>
  <path d="M2 104c10 4 16 13 23 20 46 46 92 91 137 138 29 31 56 65 65 110 3 17 1 34-3 50-10 43-27 84-54 119-23 31-52 28-70-6-14-27-19-57-28-86-14-41-32-79-61-112-3-3-5-6-9-7v-8c10 5 16 15 23 23 32 42 50 91 65 142 4 13 9 27 16 39 17 28 38 31 59 6 24-28 37-62 49-97 14-46 6-86-20-125-30-43-68-78-105-115L2 110v-6Z"/>
  <path d="M2 474c8 13 8 29 10 43 8 52 24 100 67 135 60 48 128 34 159-36 27-62 54-123 91-180 18-28 13-55-5-81-27-38-60-71-93-104-66-66-127-138-193-206C27 34 16 22 2 14V8c22 15 40 35 58 54 79 89 162 174 244 259l28 34c22 27 23 55 3 84-26 39-51 80-70 124l-22 54c-34 75-106 91-169 37-39-33-56-78-64-126-2-12-2-24-8-34v-20Zm1090 1928c-39-20-78-41-113-70-15-13-31-26-43-42-6-9-11-18-14-28-9-33 13-56 47-47 39 11 72 35 104 58 33 24 58 56 87 84 18 17 39 30 58 45h-16c-43-24-72-63-105-97a332 332 0 0 0-128-79c-26-6-43 12-36 38 5 18 18 32 31 44 35 34 76 60 121 80 10 3 20 6 27 14h-20Zm1310-408-56-99c-36-62-58-69-125-44-13 5-26 11-38 18a77 77 0 0 0-35 95c3 10 7 21 12 30 40 65 82 130 138 183 12 11 25 21 40 30 19 12 40 20 64 17v6c-24 4-45-5-64-17-28-16-51-38-72-62-42-48-78-101-111-156-10-17-18-35-19-54-2-32 12-57 38-74 32-22 68-35 106-43 21-4 35 7 47 23 18 28 31 57 47 86l28 53v8Z"/>
  <path d="M2 78c15 8 25 21 37 32 54 55 109 108 159 166 18 20 34 42 46 67 15 29 18 59 7 91-15 47-35 92-59 135-28 50-78 50-109 1-15-25-19-53-25-81-9-42-23-83-48-119l-8-8v-8c18 16 27 37 37 58 16 34 23 71 31 108 6 22 14 44 31 61 25 24 58 24 76-4 36-54 64-112 74-177 3-24-7-47-19-69-22-39-52-72-83-103L11 90c-3-3-5-6-9-6v-6Z"/>
  <path d="M2 424c7 2 6 8 8 13 14 33 16 70 24 105 9 39 27 74 61 97 45 31 96 21 121-28 31-59 58-120 85-182 12-28 5-55-10-81-26-41-59-76-92-111C137 173 79 106 14 45c-4-4-7-8-12-9v-6c10 5 18 14 26 22 81 84 163 169 241 257 11 13 21 27 30 42 18 31 20 61 3 93-26 50-50 101-72 153-13 31-31 57-67 63-42 8-74-12-100-44-25-30-33-68-39-106-4-23-8-46-16-68l-6-10v-8Zm2400 1086c-25-36-52-71-86-100-16-14-34-27-54-36-29-13-57-14-82 8a79 79 0 0 0-26 84c4 18 12 35 21 51l114 187 3 5c31 45 60 52 110 29v10c-15 6-31 11-47 15-20 5-37-1-50-18-16-22-28-46-42-69l-100-171c-17-31-27-64-11-98 19-42 60-58 102-42 41 16 72 45 100 77 17 19 32 40 48 60v8Z"/>
  <path d="M2 54c15 7 26 21 37 32 67 69 136 137 198 211 15 18 28 37 38 58 12 27 14 55 2 82-21 50-42 100-66 149-31 64-96 68-139 10-23-32-27-70-34-107-6-30-14-59-30-86l-6-9v-8c9 8 13 19 18 29 18 37 22 76 31 115 6 31 18 59 42 80 36 32 82 27 106-15 31-55 57-112 76-172 10-31 0-60-16-86-28-47-65-85-103-124-48-50-95-102-146-149l-8-6v-4Zm1384 2348c-28-29-60-55-90-82-99-86-188-183-287-270-18-16-36-32-57-44a77 77 0 0 0-82-1c-25 14-46 34-65 55-20 22-39 46-56 70a92 92 0 0 0-8 96c23 49 58 89 94 128l45 48h-4l-58-62c-31-34-61-70-81-112a92 92 0 0 1 9-102c33-45 67-90 114-121 38-26 64-26 101 1 51 35 94 80 138 123 92 90 185 179 282 263l9 10h-4Zm1016-744c-22 19-46 15-69 2-30-17-51-43-70-70-25-34-47-70-56-112-4-18-1-35 14-47 15-13 33-11 50-4 21 9 38 24 53 41 32 35 59 74 78 118v24c-18-58-51-107-94-149a93 93 0 0 0-44-27c-30-9-53 11-48 41 9 55 39 98 74 138 15 18 32 33 53 42 29 11 47 4 59-23v26Zm0 492c-12 15-29 20-50 13-23-7-40-22-56-39a469 469 0 0 1-89-133c-7-23-12-47 10-66 21-17 45-14 68-4 19 8 34 22 47 38 29 35 54 73 70 117v24c-13-52-40-97-75-136-18-20-38-36-65-40-34-5-56 18-51 52 3 14 9 28 15 41 22 41 48 80 83 111 9 8 18 14 28 20 31 17 52 9 65-22v24ZM22 2c71 68 130 149 201 217 38 36 75 73 117 104 44 33 64 31 99-11 32-39 66-77 93-121 27-45 28-91 1-137L502 2h4c13 20 26 39 37 60 22 41 22 83-2 122-34 58-78 110-122 160-17 19-33 20-56 4-42-28-76-64-113-98-70-66-132-140-197-211L18 2h4Z"/>
  <path d="M2402 2032c-20-33-40-67-64-98-18-24-38-45-71-51-43-7-85 16-92 53-3 18 0 35 8 51 32 65 72 125 127 175 13 12 29 22 46 28 15 5 31 6 46 0v8c-22 9-41 2-60-8-24-12-43-30-61-49-40-45-73-94-101-146-9-17-15-35-13-55 3-38 36-64 82-67 33-1 57 12 78 36 29 35 51 75 75 113v10Zm-1032 370c-31-32-66-60-99-89-86-78-167-162-257-236-19-16-38-33-60-44a86 86 0 0 0-90 4c-45 29-78 69-102 117-13 25-9 52 2 77 20 50 55 90 92 129l42 42h-6l-50-52c-31-34-60-69-80-111-19-40-16-77 9-113 22-31 45-61 75-84 44-34 82-36 127-4 42 30 78 65 115 99 93 85 183 175 280 258l6 7h-4Zm1032-858c-21-30-40-61-65-88-20-22-41-42-68-54-24-11-47-13-68 4-22 18-25 41-19 66 11 44 36 81 60 118 20 30 40 60 67 86 28 27 62 35 93 22v10c-36 12-69 5-94-23-54-59-98-126-129-200-7-16-9-34-5-51 9-37 46-56 84-43 33 11 57 34 80 59 24 26 45 56 64 86v8ZM2 858c9 6 13 16 19 24 18 23 36 46 60 62 36 23 75 18 102-14 25-29 21-65-11-88-18-12-38-21-58-29L2 772v-14c53 29 112 44 165 72 53 27 57 80 10 117-31 25-66 25-100 2-27-18-46-44-66-69-2-3-4-8-9-8v-14Z"/>
  <path d="M1354 2402c-39-35-78-68-116-104-76-72-152-143-234-208-17-13-33-26-53-35a83 83 0 0 0-78 3c-43 25-73 61-92 107-13 32-3 63 13 93 28 53 69 95 113 136l7 8h-4c-35-34-70-68-99-108-58-83-54-137 18-209 24-24 51-45 88-44 27 1 50 14 70 30 63 52 127 102 184 160 56 56 117 106 175 159l12 12h-4Z"/>
  <path d="M1034 2402c-28-21-58-39-84-62-22-19-43-39-57-66-8-17-13-35-9-54 8-33 38-51 72-43 9 2 19 5 27 10 70 36 130 83 185 139 28 28 60 50 90 76h-8c-33-28-68-53-99-84a656 656 0 0 0-184-131c-22-8-43-7-61 10a59 59 0 0 0-12 63c9 26 26 46 46 64 29 27 62 50 96 71l8 7h-10Z"/>
  <path d="M1338 2402c-96-79-181-172-280-248-25-20-49-39-75-57-55-39-101-33-146 18-23 26-42 54-40 91 1 29 13 53 28 77 26 43 62 77 99 110l8 9h-4c-39-36-77-71-106-116-20-32-37-66-28-105 10-49 64-106 109-114 28-5 53 5 75 21 56 41 113 83 163 131 63 60 128 118 193 175l8 8h-4ZM46 2c78 87 148 182 241 256 22 18 45 36 73 46 19 6 38 6 53-6 49-40 92-86 113-146 12-38 2-73-17-106L482 2h4c13 20 27 40 37 63 19 40 17 80-5 119-23 42-54 77-88 109-27 26-53 29-85 11-47-26-84-63-122-99C163 148 113 82 57 20L40 2h6Z"/>
  <path d="M1320 2402c-112-93-210-202-334-281-34-21-69-35-106-11-51 32-85 89-46 160 27 49 67 87 109 123l9 9h-4c-38-33-75-66-104-108-21-31-38-64-30-104 10-54 65-102 114-98 24 2 44 14 64 28 89 59 167 131 244 204 29 27 60 50 88 78h-4Z"/>
  <path d="M998 2402c-27-22-56-42-81-66-28-29-53-58-60-99a78 78 0 0 1 101-88c21 7 38 19 56 30 58 36 110 78 158 125 33 33 69 62 105 91l7 7h-6c-38-34-80-65-116-101-54-55-116-99-183-136-53-29-104-8-115 47-5 23 1 44 12 64 23 41 58 71 95 99l35 27h-8Z"/>
  <path d="M970 2402c-27-24-56-45-80-72-24-28-47-57-55-94-9-43 10-76 42-102 31-24 65-21 97-2 65 39 128 83 182 137 48 46 100 89 150 133h-6v-1c-103-83-191-183-306-252-25-15-51-30-83-24a97 97 0 0 0-69 117c12 45 43 79 76 110l58 50h-6Zm-124 0-173-181c-26-26-42-26-66 2-37 42-72 86-104 132-10 14-16 31-23 47h-4c3-20 13-36 24-52 43-58 86-115 132-170 6-7 10-9 17-1 63 76 128 149 197 218l4 5h-4ZM68 2c33 41 66 82 101 123 39 46 82 88 131 123 18 12 36 23 57 28 19 5 38 3 53-8 42-30 75-67 93-116 13-35 5-70-12-102L462 2h6l25 42c31 54 27 106-9 156-15 22-32 41-51 59-34 30-63 34-103 12-37-19-68-47-98-75C169 137 117 68 62 2h6Z"/>
  <path d="M88 2c61 80 120 162 204 220 21 15 44 28 71 30 13 1 27 0 38-8 46-30 81-69 85-127 3-29-9-55-22-79L444 2h4c17 29 37 58 43 93 3 19 2 37-5 55-15 42-43 74-80 98-22 15-46 13-70 4-44-18-78-49-112-81C171 119 128 59 82 2h6Z"/>
  <path d="M108 2c53 74 106 149 184 200 28 19 59 34 94 21 57-21 90-92 73-150-7-21-18-41-29-60l-4-11h4c11 23 25 44 33 69 22 67-26 152-91 162-23 4-43-4-63-15-51-28-91-69-128-114-28-33-53-68-79-102h6Zm2294 980c-64 34-112 86-162 135-24 24-23 44-5 71 29 42 66 78 100 114l67 68v4c-55-55-111-110-163-169-40-46-39-62 6-103l88-79c21-18 43-35 69-47v6Z"/>
  <path d="M128 2c48 70 96 140 171 184 32 19 65 26 97 1 35-26 50-61 43-105-5-29-21-54-33-80h4c18 33 37 66 36 106-1 54-51 105-100 100-22-2-41-11-58-23-36-23-66-53-93-86-26-31-50-64-73-97h6Z"/>
  <path d="M148 2c34 52 70 102 119 142 19 15 40 28 65 32 51 7 92-43 83-98-5-27-18-51-29-76h4c16 30 32 61 32 96 0 65-61 103-118 74-52-25-88-69-122-114-14-18-28-36-38-56h4Zm398 0c19 25 39 49 62 70 26 25 38 26 67 5 30-21 57-47 81-75h4c-12 21-31 36-48 53l-65 62c-3 3-6 7-11 2-31-38-64-75-94-115V2h4Z"/>
  <path d="M170 2c24 36 49 71 80 102 14 12 27 23 44 32 23 12 47 17 70 0 24-18 27-43 23-70-4-23-15-43-23-64h4c16 30 31 60 26 95-4 42-42 66-82 53-23-7-43-22-60-39-34-32-63-68-86-109h4Zm1320 0c51 54 102 107 177 126 41 11 77-1 105-32 31-34 59-69 98-94h8l-2 3c-35 21-62 50-87 81-22 27-47 49-85 51-28 2-54-6-78-18-56-29-100-71-142-117h6Z"/>
  <path d="M198 2c21 35 46 67 80 91 18 13 39 23 60 9 22-15 18-39 13-60-3-14-9-27-13-40h6c7 20 17 40 19 62 4 41-26 65-65 49A289 289 0 0 1 192 2h6Zm632 2400c-46-47-90-96-143-135-36-26-62-23-93 9-29 29-56 59-76 96-5 9-11 19-12 30h-6c2-14 9-27 17-39 22-37 50-70 81-100 29-28 53-29 86-5 47 34 85 78 127 119l23 25h-4Zm1572-1394c-41 18-71 49-101 79l-13 14c-35 38-38 67-9 111 31 49 71 89 111 130l11 14c-17-12-31-29-45-44-31-33-62-65-85-103-27-43-25-70 9-107 28-30 57-59 91-83 9-7 20-13 31-17v6ZM2 2186l5 2c41 46 88 86 131 130 23 24 43 51 52 84h-10c-6-32-25-57-47-79-42-43-89-81-128-127l-3-2v-8ZM2356 2c3 13 8 25 7 39-2 16-12 23-27 18-27-11-46-32-60-57h12l19 22c9 8 20 20 33 12 12-8 5-22 2-34h14Z"/>
  <path d="M308 2c3 13 8 25 7 39-2 16-12 23-27 18-27-11-46-32-60-57h12l19 22c9 8 20 20 33 12 12-8 5-22 2-34h14Zm1736 2400a254 254 0 0 0-175-91c-31-2-57 9-75 36-12 17-20 36-28 55h-4c8-27 19-53 38-74 22-26 52-27 83-22 63 11 116 39 160 86 3 3 7 5 7 10h-6ZM2 1284c32-32 61-67 80-109 6-12 7-25 2-38-19-40-50-70-82-99v-6c34 32 68 64 92 105 7 11 6 24 0 35-23 44-55 81-89 117l-3 1v-6ZM1512 2c39 40 79 81 134 99 42 14 80 7 112-24l76-75h8c-29 28-57 58-87 85-39 35-83 33-128 12-48-23-85-59-121-97h6ZM814 2402c-36-36-72-72-114-101-43-29-73-25-109 11-26 26-50 54-61 90h-6c18-51 51-91 97-120 22-14 46-7 67 6 33 19 61 46 89 72l41 42h-4ZM2070 2c64 60 116 132 179 194 48 49 97 97 153 138v8c-75-60-142-128-207-199-42-45-81-94-126-136l-3-5h4ZM322 2402c-14-24-34-44-54-64-78-80-153-163-230-245-11-11-22-23-36-31v-6c22 15 39 34 56 53 81 90 166 176 249 264 9 9 18 18 23 29h-8ZM2 1816c7-1 9-7 13-12 16-15 31-32 46-48 39-38 45-83 26-132s-54-87-85-128v-8c38 53 86 100 99 168 6 35-2 67-27 94l-68 72-4 2v-8Zm2400-784c-45 23-80 56-106 99-15 25-10 52 3 77 24 48 60 86 96 124l6 8c-9-4-14-12-21-19-31-33-61-67-84-107-23-42-20-73 11-110 27-31 56-60 95-78v6ZM2 2152c10 4 16 13 23 20 46 46 92 91 137 138 26 27 48 56 60 92h-6c-18-46-50-82-84-117L2 2158v-6Zm292 250c-31-52-73-94-115-137-55-58-107-118-165-172-4-3-7-8-12-9v-6c12 7 22 18 31 28 79 82 159 164 235 250 12 14 23 29 32 46h-6Z"/>
  <path d="M2094 2c77 87 147 180 238 254 22 17 45 34 70 46v6c-42-20-76-51-110-82-64-59-118-127-175-192l-29-32h6ZM268 2402c-22-46-56-82-91-119-55-57-109-116-167-171l-8-6v-4c15 7 26 21 37 32 67 69 136 137 198 211 15 18 28 36 37 57h-6Z"/>
  <path d="M2 2126c15 8 25 21 37 32 54 55 109 108 159 166 21 24 40 48 50 78h-6c-7-23-21-43-36-61-53-67-116-124-175-184-9-9-17-19-29-25v-6ZM2402 102c-12 15-29 20-50 13-20-6-36-18-50-32-24-25-47-50-62-81h6c21 35 46 67 80 91 7 5 14 9 22 12 26 9 42 1 54-27v24ZM796 2402c-32-32-65-62-105-83-17-8-36-13-54-6-40 18-66 49-81 89h-6c-1-7 4-13 7-18 11-22 26-40 43-56 31-28 60-32 97-11 36 20 66 48 96 77l9 8h-6ZM1534 2c24 23 48 47 78 63 52 30 97 26 142-14l52-49h6c-25 26-50 52-80 73a92 92 0 0 1-76 13c-53-13-91-47-126-86h4Zm868 1054c-27 15-49 36-69 60a86 86 0 0 0-12 97c20 42 49 76 81 109v4c-38-38-73-77-92-129-9-26-5-50 11-73 21-31 48-56 81-74v6ZM2116 2c30 37 60 75 91 111 33 40 69 77 109 111 26 21 54 41 86 52v6c-51-20-90-56-129-93-60-57-110-124-163-187h6ZM2 1788c31-31 65-61 72-108 5-29-5-56-18-82-13-25-31-47-49-69l-5-3v-8c37 43 73 86 78 145 2 25-5 47-19 66-15 23-35 42-54 63l-5 2v-6Zm2018 614c-42-43-92-69-154-64-27 2-47 17-62 39l-16 25h-4c13-44 52-73 99-70 58 3 105 28 143 70h-6Z"/>
  <path d="M2136 2c56 74 112 150 186 208 24 18 50 34 80 42v4c-15-1-29-8-42-16-54-32-97-75-137-123-32-37-62-77-93-115h6Zm266 638c-20 41-32 83-32 129 0 23 12 40 32 51v8c-32-14-44-33-40-68 5-44 17-86 37-126l3-4v10Zm0 1152c-28 26-30 58-21 92l21 60v10c-16-33-30-67-34-104-4-30 9-52 34-68v10ZM776 2402c-27-26-56-50-92-61-38-12-85 17-100 61h-8c9-20 22-37 39-51 24-21 50-25 79-13 34 15 62 38 88 64h-6ZM2402 150c-22 9-43 2-62-8-39-22-68-56-94-92-12-15-24-30-32-48h4c24 36 49 72 80 102 18 16 36 30 58 38 15 6 31 6 46 0v8Z"/>
  <path d="M2156 2c52 74 105 147 181 199 20 14 41 23 65 27v6c-62-13-104-56-146-99-39-41-72-87-106-133h6Zm-598 0c26 25 54 47 90 56 24 6 47 4 68-9 23-12 43-28 60-47h8c-22 22-44 42-72 56a91 91 0 0 1-70 4c-35-11-64-32-88-60h4Z"/>
  <path d="M2402 182c-25 4-46-6-66-18-40-25-70-59-98-96-17-21-34-42-46-66h4c35 52 70 103 120 142 25 20 52 35 86 32v6Z"/>
  <path d="M2176 2c43 64 89 127 153 173 22 16 46 27 73 29v4c-20 2-36-6-53-15-39-21-69-52-98-85-30-33-56-69-81-106h6Zm226 1080c-18 13-35 27-49 45a84 84 0 0 0-12 87c14 34 36 63 61 90v6c-24-26-46-54-61-86-18-38-16-73 12-106 14-16 30-31 49-42v6ZM2 1254c63-49 63-144 0-192v-6c51 33 69 101 40 153-9 18-22 33-34 48-2 2-3 4-6 3v-6ZM570 2l14 14c49 45 105 39 142-14h8c-19 22-41 40-68 50-20 7-38 3-55-7-18-12-34-26-47-43h6ZM2 1760c56-57 65-103 32-164-9-16-17-32-32-44v-6l4 1c63 76 72 135 15 200-6 7-10 15-19 19v-6Zm1992 642c-35-35-110-60-156-26-9 7-18 15-24 26h-6c13-29 49-50 88-48 39 3 73 19 102 45l2 3h-6Z"/>
  <path d="M2402 1112c-46 34-56 78-29 128 8 16 18 30 29 44v6c-18-22-35-45-44-73-14-39-3-73 33-104l11-9v8ZM752 2402c-19-17-41-30-66-35-32-5-53 11-70 35h-8c21-39 58-52 99-34 19 8 37 18 51 34h-6ZM1586 2a110 110 0 0 0 160 0h8c-48 53-127 53-176 0h8ZM2 1728c37-35 37-114 0-148v-8c44 38 44 130 0 164v-8Zm0-510c21-24 28-53 21-84-4-15-10-30-21-42v-8c38 31 38 115 0 144v-10Zm1962 1184c-35-27-89-27-120 0h-8c23-24 51-29 82-23 20 3 39 9 54 23h-8Z"/>
  <path d="M2402 1146c-29 36-24 72 0 110v8c-35-44-35-92 0-126v8ZM56 2402c-14-24-31-45-54-62v-8c10 2 16 10 23 17 16 15 30 32 39 53h-8ZM604 2c27 19 63 19 84 0h12a77 77 0 0 1-101 4l-3-4h8Zm1018 0c27 14 55 15 82 0h12c-24 21-80 21-104 0h10Zm780 782c-14-23-11-48-8-72l8-30v20c-4 21-7 43 0 64v18ZM652 2402c17-16 49-16 72 0h-16c-13-6-27-6-40 0h-16ZM2 1612c8 5 8 14 9 22 3 20 5 41-9 60v-16c8-17 8-35 0-52v-14ZM2402 52l-16-50h6l10 26v24ZM24 2402c-7-9-12-19-22-24v-8c13 8 21 19 28 32h-6ZM2 1136c7 12 7 24 0 36v-36Zm1886 1266c11-4 23-4 34 0h-34ZM2 206c6 5 6 11 0 16v-16Zm0 2048c6 5 6 11 0 16v-16Zm1670-139c-19 0-37-4-52-14-58-33-106-78-138-137-22-41-18-81 10-118 24-31 51-58 76-88 20-23 37-47 52-73 12-21 11-40-1-59-21-32-47-60-71-90-17-23-35-45-46-72-16-38-15-75 8-111 27-43 64-79 98-116 45-50 68-50 118-6 41 36 78 77 109 122 20 28 34 58 17 92a1520 1520 0 0 1-131 164c-37 38-37 55-4 97 47 60 102 113 153 169l26 32c9 12 9 25 0 37l-12 15c-48 43-93 88-142 128-20 17-43 29-70 28Zm-198-203c0 16 2 29 9 44 33 64 83 112 147 144 33 17 67 13 98-9 53-39 100-87 146-134 20-21 19-39 2-63l-15-20-94-103c-28-31-57-60-82-93-13-17-12-26 2-43l25-26c47-44 86-95 124-147 19-27 23-57 6-86-35-62-81-114-139-155-28-20-50-18-75 6-40 37-78 77-109 122-28 41-29 83-7 126 9 17 20 34 32 48 30 37 61 72 90 109 16 20 16 27 1 48-29 41-61 81-95 118-18 19-35 38-49 60a92 92 0 0 0-17 54Z"/>
  <path d="M1726 1661c-1-19 8-35 19-50 35-45 70-90 108-132 45-50 46-69 4-122-41-54-89-103-133-155-39-46-38-61 5-103 39-38 77-77 117-113 50-44 95-46 148-6 53 41 98 90 140 142 16 19 16 39 3 60-26 42-58 79-91 115-22 24-41 50-58 78a75 75 0 0 0 3 91c20 29 44 57 66 85 16 20 30 41 40 64 15 39 13 75-11 109-36 50-79 93-124 134-23 21-45 23-70 5a531 531 0 0 1-157-167c-7-11-10-22-9-35Zm198-703c-28 0-48 11-68 27-29 22-53 49-79 75-18 19-37 36-53 56-21 24-21 42-4 69 7 12 16 23 25 34 41 48 84 95 125 144 41 50 39 66-5 112-42 43-79 91-115 139a76 76 0 0 0-4 91c3 5 5 10 9 14 35 51 76 96 128 131 29 20 53 21 77 1 46-40 90-83 124-135 20-29 22-60 10-93-11-32-32-59-52-85-24-29-49-56-70-88a53 53 0 0 1-1-61c19-32 41-62 66-89 31-34 61-67 85-107 17-28 16-55-4-81-36-46-75-87-121-124-22-17-46-29-73-30ZM894 1470c22 0 43 6 61 18 49 32 89 72 118 122 27 45 23 85-10 126-35 43-75 80-116 116-28 25-53 25-87 3-39-25-72-57-106-89-22-21-45-42-64-67-20-27-21-46 3-70 44-47 88-93 137-134 18-16 39-25 64-25Zm190 197c1-17-3-34-12-49-29-53-69-95-120-126-44-26-83-22-123 10-45 37-85 80-124 123-24 27-24 48-3 78 16 23 36 42 57 62 35 33 69 67 113 89 23 13 47 13 67-4 47-39 92-80 128-129 12-16 18-34 17-54Zm-170-560c29 0 51 10 72 23l135 85c37 24 78 43 119 59 32 12 55 33 69 64 34 80 81 152 123 227 10 17 17 35 21 54 5 31-3 58-26 80-30 28-67 40-108 40-19-1-33-10-45-23s-22-28-31-43c-34-57-72-111-107-167-22-33-50-61-83-84-62-44-125-85-190-126-51-32-58-55-37-112 13-37 33-66 74-75l14-2Zm417 623c28-1 55-8 78-24 29-21 43-49 38-84-2-17-8-34-16-49-45-80-93-158-136-239-12-23-32-39-55-50-37-18-74-35-109-56-51-31-99-67-151-96-17-9-35-17-54-18-60-3-110 60-99 123 5 25 23 41 42 55l158 107c44 28 84 59 113 104 32 53 67 104 100 155 11 16 21 32 34 46 15 17 34 27 57 26Zm-914-619c24 0 46 9 67 21l204 118c20 12 41 26 40 51-1 55-16 105-61 141-27 22-60 19-90 3-76-41-148-89-205-156-15-18-28-38-37-60-28-67 34-120 82-118Zm1 7c-64-1-102 62-74 121 17 36 44 65 73 91 51 45 106 84 167 112 29 14 59 12 84-9 37-32 50-76 50-124 0-30-23-46-45-60l-185-109c-21-13-44-23-70-22Zm1025 37c0 20-19 39-39 39-16 0-28-12-28-29 1-21 20-40 39-39 16 0 28 13 28 29Zm-25 4c0-5-3-7-7-7-5 0-8 4-8 8-1 4 2 7 6 7 5 0 8-4 9-8ZM921 43c27 1 49 14 71 29 87 58 163 128 239 199 39 37 81 69 120 107 40 38 74 82 100 131a484 484 0 0 0 278 235l67 25c11 4 18 12 14 24-17 60-35 120-80 166-38 40-82 44-128 14-33-21-61-48-92-72-42-32-86-59-139-70-60-11-91 5-116 60-17 35-36 68-73 86a84 84 0 0 1-103-21 79 79 0 0 1-6-101c19-28 45-45 75-59 61-29 74-57 58-123a604 604 0 0 0-212-284c-57-39-109-85-149-142-18-25-32-53-33-85-2-56 56-119 109-119Zm727 943c33 0 53-9 70-24 41-35 58-84 69-135 7-31-1-45-29-60-21-11-43-20-65-30a493 493 0 0 1-243-222c-32-60-74-113-126-158-66-57-130-115-194-174-49-45-103-84-160-119-32-20-66-22-97 2-34 26-59 58-55 104 3 37 22 67 45 95 38 48 84 87 134 121 65 45 116 102 158 169 29 48 57 96 64 153 6 45-7 69-48 87l-32 13c-23 11-43 26-58 47a76 76 0 0 0-16 59c6 31 25 52 55 62 33 11 61-1 86-23 23-21 34-49 45-76 19-47 45-62 96-56 52 5 96 28 138 57 37 24 69 54 104 80 20 16 42 28 59 28Zm242-316c-1-21 2-37 10-53 11-20 26-22 42-5 14 16 24 34 35 52l22 37c19 34 47 57 83 73l126 52c25 11 49 25 50 58 0 56-64 98-115 75-21-9-37-23-51-40-16-17-31-36-45-55-30-39-63-74-106-100-36-22-53-55-51-94Zm273 288c43 0 74-23 82-54 8-28-3-50-36-69l-6-3c-37-20-77-33-117-46-45-15-80-42-101-85-10-20-22-40-36-57-7-9-15-19-28-15-12 4-15 16-17 27-6 46 14 79 53 102 33 20 59 47 81 79 21 31 41 61 67 87 19 19 41 34 58 34Zm-941 972c17 1 35 11 49 25 47 44 81 97 111 153l22 40c20 37 48 64 87 83 43 20 81 48 116 80 12 11 23 23 26 40 4 20-10 33-29 27l-18-9c-40-27-79-54-113-89-31-32-66-59-104-81a473 473 0 0 1-177-196c-6-11-10-23-10-37-1-22 14-37 40-36Zm2 12c-13 0-23 3-28 16-6 13-3 26 3 38 31 65 72 122 131 165 16 12 33 22 53 27 14 3 18-2 15-16-6-20-15-40-25-60-27-57-60-110-109-152a68 68 0 0 0-40-18Zm388 405c-1-7-4-12-8-17-28-32-61-56-100-73-6-3-14-7-19-1-4 6 2 13 6 18a322 322 0 0 0 106 81c7 3 14 2 15-8ZM615 960c-19 0-42-10-64-23-49-28-95-62-146-86l-55-25c-28-13-40-35-36-66 6-43 16-85 36-124 11-23 27-42 53-50 19-6 38-2 54 9 84 58 169 116 233 198 16 20 30 43 32 69 5 49-46 98-107 98Zm-4-6c82 0 125-71 92-133-11-20-25-38-40-54-58-64-129-113-199-162-6-5-13-7-20-10-26-9-48-4-68 14-10 10-18 21-24 33-16 35-26 72-30 111-4 33 9 57 40 72l45 21c46 23 89 53 133 79 25 15 51 29 71 29Z"/>
  <path d="M1072 636c0 26-9 46-22 64-31 41-68 75-110 105-24 18-51 19-79 6-33-15-62-37-89-61-99-82-185-177-264-278l-17-25c-27-41-27-82-3-125 23-41 55-75 83-113 20-27 40-54 62-79 5-4 8-8 14-1 116 144 253 269 375 409 22 25 43 52 49 87l1 11Zm-6 2c0-12-2-23-6-34-10-27-28-48-46-69-81-93-167-181-253-269-32-34-62-71-98-101-17-15-29-14-47 1l-13 13c-30 37-61 74-89 112-51 70-51 117 3 186 64 82 133 160 210 230 40 36 79 71 126 95 33 16 63 15 92-7 36-27 70-57 97-93 14-19 25-39 24-64ZM491 1936c0-27 10-51 25-73 24-36 53-68 86-96 28-24 55-27 87-9 56 33 103 77 140 129 24 33 21 58-6 91-46 57-94 113-150 162-10 8-18 17-27 26-3 3-6 6-9 1-46-55-96-107-130-171-10-18-16-38-16-60Zm5 1c1 25 9 48 21 70 24 41 55 77 88 111 29 29 41 29 74 5 57-44 101-99 144-156 20-26 17-55-1-81-35-49-79-90-132-120-32-19-59-16-88 8-29 25-55 53-77 85-17 23-28 49-29 78Zm1532 337c-38-6-80-16-114-46-14-13-24-28-19-48 4-17 16-28 32-33 15-5 30-3 44 5 41 24 66 61 82 105 5 13-2 18-25 17Zm-29-18c23 0 31-6 28-19-10-36-31-63-65-78-20-9-41-2-51 14-9 14-5 34 11 49 23 21 51 31 77 34Zm356-669c0 15-9 21-24 17-31-10-71-69-70-102 1-14 9-19 23-14 30 10 70 67 71 99Zm-25-22c-1-14-19-41-32-46-7-3-12-1-12 8 0 15 19 42 33 46 7 2 11 0 11-8Zm33 509c1 31-13 42-33 30-42-24-67-61-78-107-5-25 12-38 35-26 44 24 67 63 76 103Zm-17-4c0-28-29-70-55-80-14-6-25 1-22 15 6 35 25 61 55 78 13 8 22 2 22-13ZM80 836c23 2 47 11 66 30 10 11 15 25 7 39-7 15-21 20-37 19-29-3-61-37-64-66-2-15 7-23 28-22Zm36 72c9 0 16-2 20-10s3-16-3-23a53 53 0 0 0-46-21c-10 1-14 7-13 17 3 18 24 37 42 37Zm2125-530c-2 32-10 60-26 84-17 26-35 26-51 0l-40-74c-33-67-83-114-152-142-26-10-50-23-75-35-26-14-49-32-47-66 3-36 22-61 54-77 28-14 56-8 82 8 31 19 54 48 79 75 39 42 82 78 121 119 24 26 46 53 53 89 2 7 2 14 2 19ZM1941 68c-37 0-69 25-79 58-9 31 2 55 34 76 22 14 47 26 71 35 75 28 130 77 166 148 10 21 21 41 36 59s28 17 41-2c14-20 21-42 21-66 0-41-22-74-50-101-58-55-114-112-169-171-20-21-44-36-71-36ZM30 1920c2-34 21-61 47-85 14-12 30-22 45-33 46-34 57-67 43-122-13-48-38-90-65-132-12-18-24-37-35-57-31-57-22-107 27-151 38-34 72-39 118-14s83 60 117 98c51 55 95 116 138 177 37 53 32 99-11 148a292 292 0 0 1-47 41c-42 31-53 72-41 121 10 43 30 81 52 119 16 29 35 57 46 90 21 66-27 151-92 161-23 4-43-4-63-15-47-26-85-63-120-104-47-54-88-113-132-170-15-20-26-43-27-72Zm133-604c-60 0-119 71-110 127 6 35 25 63 44 92 29 46 59 92 74 146 16 57 4 90-43 125-16 11-33 21-48 35-50 46-58 93-18 148 45 63 90 126 142 184 31 35 64 66 105 88 20 11 42 18 66 13 44-9 88-65 89-113 1-41-19-74-38-108-25-44-52-88-65-138-16-61-5-94 45-132l26-21c59-52 67-104 22-168-30-44-63-87-96-129-37-47-79-90-129-123-21-14-44-25-66-26Zm1504 775c-19 0-37-5-53-15-43-25-78-59-105-102a99 99 0 0 1 1-114c33-49 74-91 117-131 22-20 44-21 68-3 59 43 109 96 149 158 19 29 16 57-6 83-33 38-68 74-109 103-19 13-39 21-62 21Zm-169-174c0 19 5 36 14 52 24 41 57 74 98 99 39 24 79 23 117-3 40-28 74-62 105-100 22-26 22-55 4-84-36-56-81-104-135-143-29-22-52-21-79 4-37 33-72 69-101 110-13 20-23 41-23 65Zm15-499c1-27 12-51 28-74 23-33 51-62 82-88 30-26 58-28 91-6 46 31 82 71 107 119 14 28 16 56 0 84-29 47-61 91-106 125-40 31-66 30-105-3-32-27-59-58-79-95-11-19-17-39-18-62Zm313-9-1-6-1-7c-19-64-62-108-116-143-28-18-55-14-80 6-34 28-64 59-88 95-26 41-28 83-4 126 19 35 45 64 76 89 36 30 65 31 103 2 44-33 76-77 102-125 6-11 9-23 9-37Zm104-431c18 0 38 8 56 20 42 28 76 64 104 106 21 33 22 67 2 101a1127 1127 0 0 1-124 147c-27 26-46 26-76 3a665 665 0 0 1-143-160c-17-30-16-59 6-85 31-40 65-77 106-108 19-14 40-25 69-24Zm-4 6c-22 0-43 8-68 27-37 29-69 63-97 100-19 24-23 51-8 78 37 65 86 119 146 162 22 16 41 14 63-3 16-12 29-27 42-42 29-31 59-61 80-98 19-34 22-67 1-101-26-42-60-77-101-105-18-11-37-18-58-18Zm158 672c0 27-10 49-25 70-25 36-57 67-92 96a70 70 0 0 1-88 5c-49-31-88-72-115-124a76 76 0 0 1-2-73c34-57 73-111 129-149 30-21 50-20 78 3 40 32 74 69 99 114 10 18 16 38 16 58Zm-6 0c1-18-4-35-12-51-21-42-52-77-89-107-35-29-59-30-96-2-46 33-79 79-109 127a79 79 0 0 0-1 82c25 48 60 86 106 115 33 20 60 18 90-6 32-25 60-52 83-85 16-21 28-45 28-73Zm-1012 7c1 23-8 43-21 61-28 39-64 71-102 100a71 71 0 0 1-81 5c-55-29-99-71-134-123a66 66 0 0 1 4-83c31-40 65-77 107-107 40-29 79-30 121-2 39 26 72 60 95 103 8 14 12 29 11 46Zm-6-3c1-11-2-24-7-35-20-45-53-79-93-105-42-28-79-27-121 2-39 29-72 65-101 104a66 66 0 0 0-3 80c32 50 74 89 126 117 29 15 57 13 83-7 34-25 65-53 90-87 15-20 27-41 26-69Zm-132-523c24 0 45 10 66 21 39 22 75 47 111 72l109 74c30 20 56 44 77 74 45 62 89 126 123 195 9 20 17 41 13 64-8 58-80 86-132 52-18-11-31-28-44-45-36-48-70-98-100-151-21-36-50-65-87-88-54-34-106-70-155-110-25-20-47-42-51-76-5-46 26-82 70-82Zm416 559c12 0 24-2 36-7 38-17 53-57 33-103-40-90-90-175-163-240-78-70-166-130-257-182-16-9-33-16-51-19-38-6-69 17-74 55-4 31 8 55 29 76 50 48 107 86 166 121 42 26 74 59 97 101 32 58 69 113 113 163 18 21 41 35 71 35Zm-910-558c12 0 31 7 49 16 58 29 112 64 163 102 45 35 55 78 33 128-16 35-49 55-84 41-95-37-180-90-231-182-28-51 5-105 70-105Zm248 198c0-28-12-50-33-68-42-37-90-67-139-94-23-13-46-25-72-29-51-7-89 37-74 85 8 25 23 46 40 64 47 50 104 86 165 117 16 8 33 13 52 10 37-6 61-40 61-85ZM833 168c0-75 76-121 141-84 55 31 108 68 154 111 62 57 124 112 187 167 49 42 91 90 118 149a531 531 0 0 0 217 223c22 14 46 27 68 44 27 21 38 48 33 82-5 30-15 57-37 78a82 82 0 0 1-98 17c-26-12-47-30-69-48a588 588 0 0 0-230-122c-32-8-52-27-63-58-20-56-46-108-77-159a553 553 0 0 0-186-200c-10-6-19-14-29-21-37-30-73-61-100-100-16-24-29-49-29-79Zm93-92c-43 0-87 45-88 89 0 42 21 74 46 104 38 44 84 79 132 112 39 28 78 56 105 97 51 75 102 150 136 234 14 34 38 56 74 67 71 20 133 58 191 103 30 23 57 48 91 65 28 14 55 15 82-2 59-39 64-127 8-169-27-20-56-36-83-55a512 512 0 0 1-192-210c-25-56-66-103-112-144-46-40-94-77-138-121-56-55-118-103-184-145-21-14-42-25-68-25Zm165 827c0-47 60-87 103-68 9 3 15 10 18 18 18 45-23 103-71 101-28-1-50-23-50-51Zm113-21c0-24-15-39-39-40-32 0-64 29-64 60 0 24 19 43 44 43 30 0 59-30 59-63Zm1001 6c0 24-20 39-43 36-28-5-59-37-62-65-2-11 3-19 14-22 27-7 76 16 88 41l3 10Zm-40 20c8 0 15-3 19-11 4-7 3-15-2-21a53 53 0 0 0-46-22c-11 0-15 7-14 18 3 18 24 36 43 36ZM344 734c3-33 9-71 37-102 19-20 41-25 67-16l15 7c68 44 135 89 190 150 14 16 27 34 36 54 11 26 11 51-7 74a80 80 0 0 1-74 32c-22-1-42-9-60-20L384 813c-30-18-41-39-40-79Zm265 193c60 0 94-50 73-100-6-17-16-31-27-45a818 818 0 0 0-194-154l-6-3c-32-13-59-5-79 22-17 25-23 53-26 83-3 35 10 62 40 80 53 33 105 68 160 98 20 11 41 19 59 19Z"/>
  <path d="M651 194c11 0 26 10 40 21 42 34 79 74 117 111 71 69 134 144 198 219 11 13 21 27 29 42 18 34 17 68-4 100-25 41-60 72-100 96-29 17-59 12-88-2-51-25-92-63-133-100-68-64-126-136-181-211-46-61-45-109-1-172 21-30 45-59 72-85 12-11 25-20 51-19Zm391 439c-1-33-19-59-39-84-73-89-148-175-231-254-29-28-56-57-90-79-32-21-57-19-84 8-24 23-46 49-66 76-43 62-43 110 2 170 53 71 107 140 171 201 39 38 80 74 129 100 35 20 71 24 107 0 26-19 50-40 71-65 17-21 30-44 30-73ZM513 1940c0-21 6-40 15-57 20-37 49-67 82-92 23-18 50-21 76-9 50 24 89 61 117 108 15 26 14 52-2 77-27 41-58 79-96 110-21 17-43 31-72 25-21-5-37-18-52-33-31-31-57-65-66-109l-2-20Zm5 2 1 12c8 46 34 81 66 111 43 40 77 41 122 4 35-29 63-64 87-102 18-28 16-57-2-85-24-38-57-68-97-90a76 76 0 0 0-90 9c-21 17-40 36-56 57-18 25-30 51-31 84ZM2030 227c-40-7-83-17-117-48-31-28-23-69 14-80 15-5 29-4 42 4 43 23 68 62 84 107 6 15-7 17-23 17Zm-31-19c23 0 31-7 28-19-10-36-31-63-65-78-20-9-41-2-51 14-9 14-5 34 11 49 23 21 51 31 77 34ZM343 2257c-14 0-36-11-56-24-39-26-71-59-100-96-36-44-68-90-100-137-17-23-30-48-28-77 3-39 26-64 57-85l51-32c33-22 43-53 34-91-14-54-42-102-71-149-18-31-39-60-52-93-22-60 14-126 74-138 24-5 45 3 66 14 38 21 68 50 97 81 49 55 93 115 130 178 31 53 19 103-29 141l-43 29c-42 30-52 56-39 106 13 55 41 104 69 153 18 31 36 62 42 99 10 58-38 121-102 121Zm-171-917c-16 0-27 2-37 7-55 28-72 84-44 143 15 31 35 60 53 90 28 46 54 93 67 146 8 33-1 60-29 80l-49 30c-74 43-87 95-40 166 27 39 54 78 83 115 36 47 75 91 127 120 17 9 35 16 55 14 53-7 92-66 81-122-9-40-31-73-50-108-27-48-53-97-66-151-10-43-1-67 36-92l49-32c48-35 60-83 33-135-24-46-56-87-87-128-34-46-72-88-121-120-20-13-41-23-61-23Zm1345 581c0-26 9-46 22-66 23-34 52-63 84-89 25-21 53-23 80-5 48 30 86 70 113 120 14 26 14 54-3 79-25 35-56 66-93 89a99 99 0 0 1-107 3c-36-20-65-49-85-86-7-15-12-30-11-45Zm146 140c18 0 35-6 51-14 36-21 64-50 89-83 20-27 22-55 7-84-26-47-62-86-109-114a61 61 0 0 0-73 4c-35 26-66 58-89 96a97 97 0 0 0-15 64c7 53 63 114 117 128l22 3Zm0-493c-10 0-20-2-28-7-52-27-88-68-98-127-4-28 5-54 20-77 19-30 44-55 72-77 27-20 56-22 84-4 40 24 70 57 88 99 9 23 9 47-2 69-21 41-48 77-85 105a84 84 0 0 1-51 19Zm-121-146c0 43 30 93 73 122 34 23 65 23 98-1 36-27 62-62 81-101 7-15 10-30 6-46-12-54-47-92-94-118a62 62 0 0 0-69 4c-34 24-62 53-82 90-8 15-13 32-13 50Zm384-88c-18-1-33-8-46-18-41-30-75-67-100-111-19-33-19-66 4-97 24-31 50-60 82-83 42-29 81-30 123-1 31 20 55 46 74 77 22 36 22 73 1 109-26 43-61 78-99 109-11 9-24 15-39 15Zm148-180-1-9c-12-58-50-96-99-124a88 88 0 0 0-91 0c-39 22-68 55-94 91a78 78 0 0 0-6 87c24 46 58 83 100 112 32 22 59 20 89-5 27-22 51-47 72-75 16-23 29-47 30-77Zm-13 498c0 25-8 46-21 66-22 32-49 58-80 80a72 72 0 0 1-80 4c-42-22-72-55-93-98a82 82 0 0 1 3-78c20-37 45-70 77-97 42-36 79-36 121-1 34 28 61 61 71 105l2 19Zm-5-5c-4-48-34-87-75-118-37-28-70-27-107 1-35 28-61 63-81 103-7 13-11 29-7 44 12 57 48 94 97 120 25 14 50 12 74-4 33-22 61-49 81-83 11-18 17-37 18-63ZM895 1812c-14 1-27-3-39-10-42-22-75-53-99-93a71 71 0 0 1 1-81c25-37 54-69 92-92 33-21 67-24 100-4 45 27 81 62 91 116 4 22-3 43-14 62-24 39-56 69-95 93-11 6-24 10-37 9Zm141-155c0-4 0-9-2-14-11-48-42-80-83-104a91 91 0 0 0-100 2c-36 23-65 54-88 90a73 73 0 0 0 0 79c22 37 53 65 91 86 30 16 60 14 88-6 15-11 30-23 44-36 26-27 49-55 50-97Zm362-45c0 45-37 68-79 53-20-7-36-21-50-37-42-44-73-96-99-150-21-43-53-75-95-97-52-26-100-59-141-100-16-15-28-32-33-54-8-33 14-58 49-54 24 3 45 14 66 26 48 26 90 59 129 97 41 40 89 72 130 112a508 508 0 0 1 121 190l2 14Zm-8-4c0-1 0-6-2-11-2-10-5-21-9-30-31-73-79-133-142-180-43-32-82-68-119-106-37-37-81-66-129-88-14-7-29-12-45-11-21 2-34 15-34 37 1 22 13 40 28 56 35 38 77 70 125 91 58 27 98 68 123 127 18 46 46 86 79 122 15 17 32 33 54 42 39 14 71-7 71-49Zm-736-269c0 41-29 66-70 55-49-13-89-42-128-73-26-19-49-41-63-71-10-22-13-43 3-63s38-23 60-16c70 22 130 61 180 116 12 14 18 32 18 52Zm-57 49c28 1 47-17 49-45 1-21-6-39-19-55-18-24-41-41-65-58-34-23-69-45-110-52-42-8-69 25-54 65 5 15 15 29 26 41 40 43 89 75 143 98 9 4 19 6 30 6Zm1118-524c-1 54-52 86-106 59-37-18-67-46-100-70-48-35-97-69-151-95-39-18-68-45-91-80-40-62-81-123-120-186-27-45-62-81-106-110-49-32-97-65-137-109-26-27-48-58-48-98 0-54 52-91 103-74 20 7 37 19 55 30 57 36 110 77 158 125 38 38 79 70 120 104 59 48 104 107 135 176 25 57 62 103 111 142 38 30 77 59 116 87 18 13 35 27 47 45 10 15 14 31 14 54Zm-9-6c1-22-8-40-22-57-11-13-25-24-39-35-46-34-92-68-136-105-32-28-59-61-75-101-38-90-96-164-174-222-34-26-66-53-96-83-51-52-109-93-170-131-13-7-25-14-39-18a73 73 0 0 0-93 70c0 36 18 64 40 89 36 41 80 72 125 102 47 30 90 64 118 114 36 61 77 118 116 177 25 37 54 69 93 89 58 29 109 66 160 103 33 25 64 53 102 69 48 20 90-10 90-61ZM604 904c-20 0-39-7-56-16-51-26-99-56-143-92a96 96 0 0 1-19-128c18-27 45-35 76-19 51 27 96 61 140 98 19 17 35 35 49 57 9 14 16 30 14 48-2 31-28 53-61 52Zm-3-8c42 1 66-33 52-72-3-11-9-21-16-30-11-16-25-30-39-43-43-37-87-70-137-95-30-15-56-6-71 20a90 90 0 0 0 16 113c46 39 97 72 152 97 14 6 28 11 43 10Z"/>
  <path d="M1023 638c0 14-6 31-17 47-20 32-47 56-80 74-35 20-69 11-102-6-57-31-103-76-147-122-50-53-93-113-134-173-34-49-32-98 1-147 17-24 36-46 58-66 25-21 52-24 81-8 35 19 64 48 93 75 79 72 147 154 212 239 18 24 35 49 35 87ZM885 764c11 1 25-2 37-9 32-18 60-42 80-73 7-12 12-24 14-37 5-36-12-64-32-91-60-80-123-159-197-227-31-28-60-58-97-80-35-20-61-18-91 9-17 16-33 33-46 52-36 51-39 102-3 153 38 54 76 109 121 158s91 95 150 127c19 11 39 18 64 18ZM535 1947c1-46 21-77 48-105 51-52 95-54 150-6 21 18 39 38 48 64 7 18 7 36-1 53-22 44-52 80-93 106a71 71 0 0 1-83-1c-40-28-66-65-69-111Zm128-139c-32 0-51 15-69 32-71 64-71 147 0 203 33 27 66 29 101 4 33-24 58-54 76-89 11-22 12-44 1-66-19-36-47-62-84-78-9-4-19-7-25-6Zm-230-144c-1 25-16 49-43 66-26 16-53 26-82 33-21 5-38-1-51-18-16-22-28-47-42-70l-100-170c-17-31-27-64-11-99 20-41 60-57 102-41 40 16 71 45 99 76 43 47 77 100 109 155 11 19 19 39 19 68Zm-7-8c-1-22-7-41-17-59-33-57-69-112-114-161-26-28-54-53-91-66-38-14-76 2-93 38-16 32-7 63 7 92 29 58 66 110 99 166 12 20 24 40 38 58 15 18 33 29 57 25 29-4 56-13 80-30 22-15 33-37 34-63Zm-4 489c0 66-61 104-120 75-33-17-60-42-84-70-42-47-77-100-111-154-10-17-17-34-19-54-2-31 11-56 36-74 32-22 69-36 108-44 22-4 36 8 48 25 20 31 36 66 53 99 24 44 51 86 72 131 10 21 17 42 17 66Zm-6-6-1-11-6-24c-37-85-84-165-135-243-13-21-35-26-59-22-20 4-39 10-58 19-62 27-79 74-46 133s71 113 116 163c22 24 46 45 75 60 57 28 114-8 114-75Zm1383-225c0 9-1 17-4 24-24 48-59 86-113 101-41 12-90-13-120-58a99 99 0 0 1-3-115c18-29 42-54 70-74 24-16 49-18 74-4 40 22 69 54 89 94 4 10 7 21 7 32Zm-139 122 15-1c50-11 82-45 108-86 12-20 13-42 3-64-17-40-44-69-82-90a66 66 0 0 0-75 5c-25 18-47 40-63 66-21 34-25 69-4 104 22 38 54 63 98 66Zm123-632c-3 40-23 69-48 95-53 58-114 52-156-13-25-39-26-78-3-117 15-26 35-47 60-64s51-19 77-3c39 24 65 57 70 102Zm-7 1c1-15-3-29-11-42-21-34-46-64-90-65-27 0-46 17-64 34-30 30-51 63-45 108 8 54 64 101 109 91 46-10 101-78 101-126Zm278-251c0 23-8 44-21 63-18 28-42 51-68 72-18 13-39 21-61 11-57-24-95-66-111-127-4-15 0-30 7-43 20-38 48-70 87-91 28-15 56-15 84-1 46 21 83 73 83 116Zm-6 0c0-50-46-106-97-118-18-4-35-3-52 4-44 20-74 53-95 96-8 15-8 32-2 48 16 48 48 83 93 106 23 12 46 8 67-7 27-20 51-43 69-72 10-18 17-36 17-57Zm-244 515c-1-12 2-24 8-36 13-27 31-52 53-72 47-42 95-40 137 7 53 58 48 122-16 181-55 52-103 49-152-9-20-24-30-47-30-71Zm229-22c-2-38-22-69-55-93-32-23-64-22-96 1-28 20-48 47-63 77-6 12-10 24-9 37 2 49 32 81 73 103 37 20 67 1 95-23l9-8c25-25 45-53 46-94Zm-1016 22c-1 24-19 50-43 73-60 60-112 59-170-3-40-43-42-81-5-128 24-30 51-58 92-65 60-10 126 50 126 123Zm-125 111c12 1 24-3 35-9 24-13 45-31 61-53 47-63 11-152-67-166-52-9-131 50-141 107-9 52 55 122 112 121Zm185-446c-4-1-12-2-19-5-35-14-65-35-86-67-5-8-10-17-4-25 6-9 16-8 24-5 44 12 79 36 102 76 10 16 4 27-17 26Zm-16-26c4 0 6-6 2-12a80 80 0 0 0-55-39c-6-2-11 2-8 10 4 16 40 41 61 41Zm144 151c0-25 8-32 28-26 25 7 45 22 63 41 30 32 54 68 61 113 5 30-16 45-44 34a231 231 0 0 1-108-162Zm16 11c1 24 8 42 17 59 17 31 37 59 70 77 9 4 19 7 28 0 9-6 10-16 8-27-4-31-19-57-38-81-15-19-33-36-57-44-18-6-29 1-28 16Zm-646-116-15-3c-45-15-83-41-113-78-12-15-24-32-11-51s34-12 51-6c41 13 76 37 104 69 8 10 15 20 18 33 5 22-7 36-34 36Zm-98-130c-26-1-35 11-28 30l6 13c28 37 64 62 109 74 10 2 20 2 27-7s6-19 1-28c-27-47-69-72-115-82ZM883 187c0-40 34-67 73-58 17 4 33 12 48 21 54 31 104 68 148 113 39 39 83 72 126 106 59 46 104 103 130 174 25 67 65 121 124 163 40 28 79 56 113 90 16 16 28 34 29 57 1 27-20 44-46 40-18-2-34-11-48-21-47-31-91-64-135-99-15-12-31-25-48-35a557 557 0 0 1-205-207c-15-23-28-48-42-72-21-36-49-65-85-87-50-31-100-63-142-105-25-26-40-55-40-80Zm64-53c-38 0-63 32-56 68 6 26 21 46 39 65 39 38 83 68 130 95 44 26 78 61 102 106 11 22 23 43 36 63 46 72 98 138 175 181 33 19 63 42 92 67 38 31 78 60 119 86 13 9 28 17 45 17 21 1 35-13 33-34-1-19-11-34-23-46-36-36-76-66-117-95-55-39-92-89-115-152-27-78-75-141-142-191-43-31-85-64-122-102-44-46-95-81-150-111-15-9-31-16-46-17ZM586 867c-10 0-20-3-30-6-49-19-93-48-131-85a72 72 0 0 1-23-52c0-36 27-56 60-42 46 19 85 48 121 82 16 14 31 30 38 51 11 30-5 52-35 52Zm-9-11c28 0 41-16 33-41-4-13-12-24-21-34-30-33-66-59-105-81-10-5-20-10-32-12-20-4-36 7-40 27-4 25 7 43 23 60 30 30 65 53 104 70 13 6 26 10 38 11Z"/>
  <path d="M872 748c-30-1-59-17-86-36a705 705 0 0 1-172-181c-16-23-32-45-46-69-39-63-32-116 19-169l10-9c33-33 63-37 103-14 40 24 73 56 106 87 64 61 115 132 166 203 24 35 36 72 14 113s-72 75-114 75Zm4-5 15-2c84-16 124-106 78-176-54-82-114-160-188-226-29-26-57-52-93-69-19-9-39-11-59-2-68 31-98 115-63 181 16 31 37 59 57 88 47 68 101 129 170 175 25 17 51 30 83 31ZM646 2041c-42 0-82-41-87-90-6-50 45-117 96-122 38-4 65 19 86 47 20 26 23 53 8 83-15 27-35 51-61 68-13 9-27 14-42 14Zm-1-7c17 0 32-6 45-16 19-13 34-30 46-50 23-38 19-71-12-103-28-28-61-37-90-23-30 16-53 40-64 73-19 54 22 119 75 119Zm-244-392c3 36-24 65-65 70-30 5-56-5-76-27-54-59-98-126-129-200-7-16-9-34-5-52 10-37 46-55 84-42 30 10 53 30 74 53 43 46 77 97 105 153 7 14 12 29 12 45Zm-77 62c44 0 74-30 69-70-2-16-7-31-15-46-26-50-57-97-95-138-20-22-43-42-72-52-36-13-70 5-78 40-3 15-2 31 4 45 29 74 72 139 127 196 16 16 37 25 60 25Zm-119 170c26-1 46 6 60 22 57 64 103 135 128 218 12 42-12 81-50 87-19 3-36-3-52-12-36-21-63-51-88-84-27-35-51-71-71-111-9-17-15-34-13-53 3-39 36-65 81-67h5Zm183 252c0-2 0-9-2-16-25-78-67-147-124-206a81 81 0 0 0-63-22c-47 3-77 33-72 75 1 14 6 27 12 40 27 51 59 99 99 142 19 20 39 39 66 49 45 19 85-9 84-62Zm1383-207c-5 36-32 64-68 85a85 85 0 0 1-105-15 88 88 0 0 1-20-106c15-29 36-51 64-67 16-9 33-11 52-4 39 13 77 61 77 107Zm-196 7 3 16c17 70 95 89 150 36 25-24 46-52 32-90s-40-65-83-73l-8 1c-45 5-94 61-94 110Zm181-522c0 40-40 92-79 103-36 10-75-15-89-55-16-51 28-122 81-130 41-7 87 36 87 82Zm-8 1c1-49-49-90-90-72-37 16-61 44-67 85-7 51 43 96 88 81 35-12 69-57 69-94Zm280-257c0 50-49 113-93 124-13 4-25 4-37-2-43-20-73-51-78-99-5-40 22-68 49-91 60-51 142-21 158 56l1 12Zm-6 4c0-50-45-94-94-91-35 2-60 23-80 50a99 99 0 0 0 59 155c9 2 18 2 27 0 42-11 88-70 88-114Zm-192 519c-1-42 44-99 85-109 42-11 88 23 97 70 10 53-40 120-93 126-42 5-89-41-89-87Zm178-22c0-56-56-98-102-76-39 18-62 50-69 92-6 43 40 91 80 86 45-5 91-57 91-102Zm-1017 6c3 51-74 127-133 97-40-20-64-61-55-96 15-53 76-94 123-82 36 9 65 45 65 81Zm-109 97c39 0 82-32 96-67 12-31 6-59-17-82a73 73 0 0 0-83-19c-24 10-41 27-56 48-15 23-20 47-5 73 15 27 38 44 65 47Zm38-1549c0-28 21-43 48-36 39 11 72 34 104 58 20 14 38 32 55 51 27 31 58 58 94 79a366 366 0 0 1 183 259l7 35c4 19-4 26-23 23-17-4-33-10-48-18a380 380 0 0 1-159-188c-23-61-61-104-122-130-44-19-82-49-114-84a80 80 0 0 1-25-49Zm474 418c-5-46-19-93-44-137-33-58-85-95-142-127-32-19-60-41-83-70a350 350 0 0 0-158-110c-23-4-38 11-35 34 3 16 12 28 23 40 37 39 81 68 131 88 39 16 66 43 83 82l15 37c19 46 44 88 78 125 28 30 60 56 102 67 21 5 30-2 30-29ZM507 775l-7-6c-1-2 1-3 3-2l6 5-2 3Z"/>
  <path d="M662 283c24 1 44 11 63 24 72 51 130 115 179 187 19 27 40 53 55 83 20 41 16 76-13 109-33 37-71 49-114 33-51-19-89-55-125-93-49-52-87-110-121-171-33-58-20-114 32-155 15-12 28-17 44-17Zm207 437c3 0 10 0 16-2 69-16 100-87 63-150-36-61-76-119-125-170-35-36-70-71-115-95-39-22-69-17-100 15-36 36-45 81-20 128 32 65 72 124 121 177 29 31 60 59 97 79 18 11 38 18 63 18ZM587 1944c0-36 30-74 66-82s77 28 72 65c-5 36-26 62-59 76-38 16-79-15-79-59Zm58 54c30 0 60-27 69-61 7-25-4-49-27-61-35-18-85 14-91 58-5 34 18 64 49 64Zm-281-372c1 30-22 49-52 44-24-4-42-17-58-34-39-39-69-84-89-136-4-12-7-23-7-36 1-29 23-47 52-41 23 5 41 19 57 35 37 37 65 80 87 128 6 13 10 26 10 40Zm-10-4c0-12-3-23-7-34-18-43-43-81-75-115-16-17-33-33-57-40-29-8-51 12-48 42 2 11 4 21 8 31 19 46 45 87 81 122 15 15 32 27 53 31 27 5 45-11 45-37Zm-150 291c22 0 42 9 57 24 48 45 83 99 100 163 2 6 3 14 2 20-1 37-28 55-63 42-23-9-41-25-58-43-32-35-59-75-79-118l-8-27c-8-35 13-61 49-61Zm150 190c-16-65-49-130-117-172-19-12-43-14-62 3-18 16-15 38-7 58 18 48 47 89 82 126 14 14 30 28 49 35 32 11 55-6 55-50Zm1384-195c0 37-40 76-78 76-33 0-60-28-60-61 0-38 39-81 75-81 31 0 63 33 63 66Zm-62-56c-33 0-67 36-68 70 0 29 24 53 52 54 34 0 68-35 69-68 1-28-25-56-53-56Zm44-447c0 34-29 67-59 67-24 1-44-20-44-47 0-33 30-65 60-65 23 0 42 20 43 45Zm-12 3c0-21-13-36-32-36-25 0-48 25-48 51-1 22 15 38 34 38 23 0 46-26 46-53Zm141-239c0-52 60-98 105-82 30 11 50 42 45 74-6 38-30 64-65 77-38 15-85-24-85-69Zm84-77c-41 0-80 45-75 87 5 35 43 62 74 51 32-12 53-35 59-69 6-35-22-69-58-69Zm-2 501c29 0 53 26 53 57 0 32-30 67-62 72-25 4-47-9-56-33-15-39 24-95 65-96Zm-59 76c0 24 19 44 41 44 30 1 62-32 62-63 0-26-20-47-44-47-29 0-59 33-59 66Zm-984 55c-27 0-52-24-51-50 0-34 35-70 69-70 28 0 52 24 52 52 0 34-36 68-70 68Zm60-67c0-24-18-43-42-43-29 0-58 29-58 59 0 22 17 40 40 41 30 0 60-28 60-57Zm404-1101c0 33-15 43-42 33-46-19-98-99-98-149 1-22 12-30 32-24 24 7 43 21 60 40 26 30 45 64 48 100Zm-12-6c-1-41-42-101-80-115-22-8-36 0-33 22 7 51 33 91 78 116 21 11 35 0 35-23Z"/>
  <path d="M595 400c0-49 39-91 83-88 24 1 44 14 63 28 55 39 99 88 137 144 19 29 40 57 55 89 27 56 1 115-57 128-26 6-50-2-72-14-33-17-61-42-86-69-45-50-81-107-111-167-8-16-12-33-12-51Zm7 2c-1 17 4 34 11 50 31 61 67 118 113 168 25 27 52 50 85 66 27 12 54 17 82 2 45-25 58-70 32-118-31-59-68-114-113-162-28-30-58-58-94-77-57-31-116 5-116 71ZM307 1588c0 14-9 21-23 16-15-6-27-16-37-28-17-21-32-44-34-73 0-14 9-20 23-16 30 11 71 68 71 101Zm-25-23c0-14-20-42-33-46-7-2-11 0-11 8 0 14 19 41 33 46 7 2 11 0 11-8Zm33 511c1 29-13 39-31 29-44-24-70-62-80-109-5-24 13-36 34-25 46 23 68 64 77 105Zm-17-6c0-28-30-71-56-81-14-5-24 2-21 16 6 34 25 61 55 78 13 8 22 2 22-13Zm1654-914c0 16-15 33-31 32-14-1-21-9-21-23-1-17 14-32 29-32 13 0 23 10 23 23Z"/>
  <path d="M916 607c0 48-43 80-88 68-35-9-63-32-87-57-45-46-78-100-105-157-10-21-15-43-10-66 8-41 45-63 84-48 38 14 67 41 94 70 40 42 70 92 98 143 9 15 14 32 14 47ZM693 350c-32-1-57 21-61 51-3 22 2 42 11 61 25 53 55 102 94 146 24 25 50 48 85 59 25 8 49 5 68-14 20-19 23-42 16-67-9-31-27-58-44-84-32-51-68-97-118-131-17-11-34-20-51-21Z"/>
  <path d="M835 647c-17 0-32-6-45-15a353 353 0 0 1-131-192c-5-19-1-39 16-52 17-14 35-11 54-3 24 11 43 28 61 47 35 37 62 80 84 125 7 15 12 31 9 48-4 26-23 42-48 42Zm-8-9c31 1 50-19 48-47 0-10-3-19-7-29-22-49-51-94-90-133-18-18-37-34-63-40-23-5-42 8-47 31-3 13-1 26 3 38 22 60 55 113 104 155 15 14 33 24 52 25Z"/>
  <path d="M706 460c0-21 12-30 31-24 10 3 18 8 25 14 36 31 63 68 75 114 3 12 2 23-8 30-10 8-21 6-31 1-35-19-57-50-75-83-9-17-16-34-17-52Zm116 97c-9-38-31-72-68-97-7-6-17-10-26-4-9 7-7 18-5 27 9 35 29 63 57 86 5 4 12 8 19 10 14 5 23-1 23-22Z"/></g>
</svg>
