<svg data-name="contour-map" xmlns="http://www.w3.org/2000/svg" viewBox="0 0 2402 2402">
  <g data-name="contour-map-group">
    <path d="M2370 2402c-12-18-27-35-42-51l-76-78c-39-40-77-81-114-123-47-52-97-101-153-143-17-13-36-24-59-23-17 1-31 7-45 15-25 14-45 32-66 51-23 21-45 44-69 64-31 25-65 32-103 19-26-8-49-22-69-40-33-28-65-57-91-91-19-24-33-51-38-82-5-30 4-57 23-80 11-15 24-28 36-41 24-25 48-51 66-80 10-18 19-36 20-56 1-23-6-44-17-63-14-23-31-44-48-66-20-26-39-53-50-85-14-40-7-77 18-111 20-27 43-51 64-76 20-23 38-48 53-75 13-24 12-47-3-70-11-15-23-30-35-43-27-30-54-60-86-84-24-19-51-33-83-32-20 0-37 6-53 17-19 13-35 28-51 44l-64 59c-40 36-84 37-131 15-23-11-44-27-64-44-29-25-58-52-90-74a82 82 0 0 0-91-6c-25 14-49 31-71 50l-65 54c-41 33-86 35-133 13-33-15-61-37-89-60-16-13-33-25-52-35-45-22-88-19-128 11-23 18-45 37-66 57l-42 37c-10 10-20 20-28 32a45 45 0 0 0-3 49c10 20 25 37 39 53 63 70 129 136 196 201l129 124c17 16 35 31 55 43 26 16 51 16 77 1 23-14 44-30 63-49 23-23 45-46 69-68 16-17 35-30 58-34 30-6 57 2 83 16 35 18 62 45 89 74 17 18 34 36 47 57 12 19 21 38 25 60 7 37-5 68-30 94l-64 64c-24 25-46 51-65 79l-9 14c-9 16-8 32 4 47 18 23 38 44 59 65 51 48 101 99 151 149l51 52c40 40 82 77 125 115l66 59c3 3 6 5 8 9h-6l-69-62c-33-30-68-58-99-90-70-67-136-137-206-204-28-25-54-52-82-78l-26-23c-9-7-13-7-22 0l-65 59c-39 37-72 79-106 121-8 9-15 19-19 31-9 26-1 48 12 70 26 46 62 85 98 124 16 18 33 34 48 52h-6c-20-21-41-41-60-63-25-28-50-57-72-88-12-16-23-33-30-53-6-17-5-34 4-50 5-10 10-19 17-27l31-35c27-32 53-64 83-92 13-13 27-25 38-40 12-18 12-31 0-48-10-13-21-24-32-35-34-35-70-68-107-100-19-16-38-31-60-43-21-11-40-9-58 5-8 5-15 11-21 18l-48 54c-19 21-37 42-51 66-22 37-23 74-7 112 10 24 24 44 38 65 14 20 29 41 42 62 25 37 28 75 5 114-11 19-22 37-35 55-30 39-63 76-83 123h-8c8-23 21-43 35-62l57-75c12-16 22-34 30-52 16-33 13-65-5-96-15-26-32-50-49-74-17-25-34-51-41-82-9-32-4-61 13-89 11-21 26-40 41-58 24-27 47-55 73-81 29-29 49-31 84-8 29 19 55 43 81 67l128 118 7 5c6 5 12 5 18-1 10-8 18-18 26-28 38-48 82-91 126-135l17-20c22-30 24-62 13-95-9-27-25-50-43-71-26-28-51-55-81-78-15-11-31-20-48-26-43-15-81-7-113 25l-73 73c-23 22-47 40-74 55a58 58 0 0 1-63-3c-20-13-37-27-54-43l-64-62c-78-74-153-150-228-227a1036 1036 0 0 1-91-103c-9-16-8-31 2-46 12-17 28-30 43-44l70-62c16-14 33-28 51-39 37-22 74-20 112-2 28 13 51 32 75 51 27 21 54 42 88 52 38 13 74 7 106-17 28-20 53-43 79-64 25-21 51-39 81-52 21-9 42-7 62 5 24 14 46 32 67 51 27 23 52 49 83 68 22 13 45 22 72 23 23 1 43-7 62-20 18-14 34-29 50-45l61-56c41-36 88-39 136-10 17 11 33 23 48 37 33 33 66 66 96 102 27 33 28 50 5 86-21 33-45 63-72 92-17 19-34 39-49 60-26 36-25 75-10 114 11 27 29 50 46 73 20 25 40 50 55 78 18 34 15 65-2 98-15 27-36 50-56 74l-51 56c-30 35-33 74-15 116 11 26 28 49 47 70 26 27 54 54 84 76 19 14 39 24 62 28 37 9 68-5 96-30 33-29 63-61 98-89 13-10 27-18 42-26 27-16 54-13 80 4a987 987 0 0 1 140 125l90 99 96 99c26 26 51 52 75 80l7 11h-10Z"/>
    <path d="M1476 2402c-11-13-26-23-39-35l-124-106a1306 1306 0 0 1-177-190l-53-67c-9-12-17-24-23-37a86 86 0 0 1 3-81c15-29 39-50 66-67l36-22c32-24 43-55 36-94-8-40-26-76-48-110-22-36-47-70-76-102-13-15-30-28-46-41-33-26-67-51-106-70-25-12-52-22-81-24-30-2-53 11-72 34-9 11-17 24-25 37-13 20-27 38-44 54-39 34-82 39-127 12-29-18-55-40-83-60-44-31-86-65-123-104-30-32-59-65-78-105a95 95 0 0 1-10-65 164 164 0 0 1 76-86c33-17 65-14 97 1 31 13 57 34 85 51 33 21 67 41 105 52 20 7 40 10 61 9 19-1 35-8 49-20 17-15 29-33 43-50 17-21 36-39 61-51 37-18 72-14 107 6 27 16 52 36 78 54 36 25 73 48 115 62 13 4 27 7 41 9 42 4 73-14 95-50 10-17 20-33 33-48 15-17 32-31 53-40 43-20 84-2 110 29 37 45 34 99-9 144-13 15-29 28-46 40-16 11-32 22-42 40-13 24-14 50-9 76 7 35 22 66 39 97s38 60 56 91l16 32c16 43 6 80-22 114-14 18-32 31-50 43s-36 23-50 39a73 73 0 0 0-20 49c-1 38 12 72 30 105a606 606 0 0 0 251 250c35 18 73 28 113 33 32 3 37 0 52-30l25-53c13-23 30-43 52-58 37-26 75-25 114-1 18 11 34 26 50 41l158 157c23 24 44 49 60 78 5 9 10 18 11 28h-8c-1-6-4-11-6-17-15-30-36-56-59-80-53-56-110-108-164-163l-26-24c-20-15-41-28-67-30-37-1-64 17-87 43s-34 58-41 91c-4 18 1 26 17 34 12 7 26 11 39 16 44 15 88 30 128 54 33 20 62 44 84 76h-10a323 323 0 0 0-135-98c-34-14-69-25-106-31-25-4-35 1-47 24l-4 10c-13 31-22 63-32 95h-6c3-18 9-35 14-52l15-60c2-18-2-27-19-34s-34-12-51-17c-51-13-94-39-135-70-29-22-59-44-84-71-43-48-83-98-111-156-11-23-20-48-24-74-5-34 6-61 32-82 17-13 35-23 53-35 16-11 30-24 42-39 29-37 31-77 10-119-10-21-23-40-35-60-22-33-43-67-57-105-8-20-14-40-16-62-3-39 10-70 43-93l35-24c21-16 37-35 48-59 32-69-32-136-88-132-25 2-45 14-63 30-19 17-33 39-45 61-11 18-23 35-41 45-23 12-47 13-71 9-40-6-76-25-111-46-33-20-63-45-96-66l-29-17c-42-21-81-15-118 13-18 14-32 31-46 49l-20 27c-24 28-55 36-91 30-39-5-74-22-108-41-33-18-64-40-96-60-19-11-38-19-60-22-21-3-41 2-59 12-24 12-41 30-56 52a81 81 0 0 0-10 72c8 26 23 49 40 71 48 61 106 110 169 155 22 16 44 34 68 48 17 11 35 20 55 22 31 3 56-11 78-31 16-15 29-33 41-52 9-16 18-30 30-44 23-25 51-32 83-26 33 6 63 19 92 36 48 29 93 61 132 100 21 20 37 44 53 68 29 40 56 82 71 130 4 15 8 30 8 46 1 28-10 50-32 67-15 12-32 21-48 31-23 14-43 32-57 54a86 86 0 0 0-3 94c13 24 31 44 48 65l50 64 62 71c44 48 93 89 142 131l109 92 3 4h-10Z"/>
    <path d="M1502 2402c-14-13-29-24-44-36l-120-102c-34-29-69-59-100-93-33-36-63-76-92-115-18-23-37-45-51-71-23-40-21-71 2-104 12-18 28-30 47-40 22-12 44-21 66-34l6-4c23-14 30-33 25-58-9-40-26-77-46-113-24-45-54-86-84-128-16-22-36-41-58-58-41-31-82-62-127-86-31-17-63-32-99-38-25-5-45 4-61 24-14 17-24 38-35 58-12 23-27 45-48 61a89 89 0 0 1-95 10c-25-11-47-27-69-42-33-23-67-46-97-73-36-31-69-65-95-105-14-22-25-46-24-74 1-7 1-13 4-19 17-41 46-68 90-76 26-4 49 4 72 15 24 13 47 28 71 43 43 27 87 52 137 67 16 5 33 9 51 9 20 0 35-8 47-23 15-18 25-38 38-57 11-17 24-32 41-43 32-21 66-23 101-8 27 12 51 29 75 46 41 29 84 57 131 76 29 12 60 20 92 19 30-1 51-15 62-43l16-40c12-29 32-52 63-63 26-10 50-4 70 14 19 18 28 40 23 67-7 35-30 59-61 75l-40 19c-24 12-35 31-36 58-1 40 11 76 27 112 19 45 46 84 71 125 10 18 20 36 27 56 12 39 2 73-25 103-13 15-30 26-48 35-20 11-41 21-61 34-27 18-33 33-25 65 11 43 30 83 53 121 32 51 68 100 110 145a811 811 0 0 0 161 119l54 27c32 16 46 42 42 77-2 23-5 45-12 66h-6c3-20 7-39 9-59 2-31-6-56-33-73-23-15-48-24-70-39-56-36-111-74-158-122-25-25-44-55-65-83a710 710 0 0 1-104-199c-7-22-3-32 17-44 13-8 27-14 41-21 27-13 56-24 79-44 33-29 46-67 33-109-10-30-27-56-43-82-24-38-46-76-63-117-14-33-23-67-25-103l3-27c4-16 15-25 30-30l47-17c23-9 40-25 53-45 22-38 4-86-37-97-30-7-53 6-73 28-14 16-21 36-26 56l-8 27c-8 29-21 39-52 40-32 2-64-4-95-16-40-15-77-37-113-60-30-19-58-41-89-58-19-11-39-19-61-20-35-1-61 14-82 39-17 20-27 43-40 64-25 41-46 49-92 36-48-13-93-35-135-60-31-18-60-38-91-55-28-15-57-24-88-15-39 12-66 38-75 80-5 23 3 44 14 64 22 40 53 73 87 104 48 43 102 79 157 113 27 17 56 25 88 12 23-10 41-27 54-49l32-60 19-30c15-19 33-26 57-22 22 4 43 12 63 21 53 24 100 56 146 90l43 33c20 16 36 36 51 57 38 54 77 109 105 171 10 23 20 45 28 69 11 33 6 44-25 60-26 13-55 23-81 37-17 9-31 20-43 34a83 83 0 0 0-10 93c11 22 26 41 41 61 28 37 54 74 85 110 26 30 55 59 85 85l129 110 68 55 7 7h-10Z"/>
    <path d="m1456 2402-123-108a1603 1603 0 0 1-201-205c-21-26-43-50-64-74-11-13-22-26-30-41-22-39-15-75 9-110 19-26 42-46 67-64 13-8 25-17 35-28 22-22 29-48 26-78s-15-58-30-84a524 524 0 0 0-215-208c-22-10-46-17-72-18-33-2-58 13-77 37-13 16-24 34-37 49-17 20-35 38-57 51a98 98 0 0 1-109-3c-26-17-50-38-74-57-37-28-73-57-106-89-43-40-85-82-116-133-14-22-26-45-25-72 1-11 3-21 8-30 21-38 50-68 89-88s76-13 112 8c30 18 57 40 87 58a302 302 0 0 0 116 45c41 4 72-14 97-44 20-25 43-47 69-65 45-30 90-29 136 0 29 19 54 41 82 61 29 21 59 39 94 50 19 5 38 9 58 7 29-3 51-19 69-41 17-22 33-44 54-63 14-13 29-24 47-32 33-16 66-11 96 9 27 17 48 40 61 69 17 36 12 70-8 103-19 30-43 54-70 76-23 19-41 42-45 72-3 22 1 43 7 63 9 30 24 58 41 84l44 66c13 21 23 42 25 66 3 30-7 56-24 80-14 20-31 37-51 52-13 10-27 20-39 32-28 25-34 57-29 92 8 41 28 77 52 111 19 26 39 51 62 73 42 41 85 79 139 105 22 10 44 17 69 18 35 2 62-12 83-40 13-17 25-36 40-53 19-19 39-36 63-47 35-16 67-10 99 9 22 13 40 30 59 47 20 19 41 38 60 58 30 32 63 63 93 96 25 26 50 53 71 83 10 14 18 29 25 45h-8c-14-34-36-62-60-89-50-55-103-108-157-160-25-24-49-49-78-69-50-34-95-26-140 12-20 17-37 38-51 60-9 13-18 26-30 36-22 20-49 22-77 19-36-4-67-18-97-38a629 629 0 0 1-200-210c-15-28-25-57-27-89-1-33 13-59 38-80l38-29c22-17 41-37 55-61 19-33 20-66 5-100-8-17-18-33-29-49-24-35-48-70-64-110-8-21-15-42-16-65-1-37 14-67 42-90s55-47 74-78c24-39 25-78-1-117-14-22-32-39-55-51-36-20-71-14-104 8-21 14-39 32-54 52l-25 33c-27 35-63 46-105 38-34-6-64-21-94-39-29-18-56-40-84-61-15-11-30-21-47-29-35-16-68-12-101 7-26 16-48 37-68 61-11 13-22 26-36 36-26 18-55 21-86 16-34-7-64-21-93-38-28-16-54-36-82-54l-31-17c-40-19-78-14-114 11-22 15-40 35-56 57a82 82 0 0 0-8 83c10 23 24 44 39 64 47 58 101 110 160 156 35 27 68 55 105 80 17 11 35 19 56 20 32 1 57-14 79-34 20-18 35-38 50-59 9-14 19-27 32-38 30-25 65-26 100-16 26 8 50 19 73 33a526 526 0 0 1 204 234c8 18 12 37 14 57 2 34-12 61-39 82l-47 35c-20 15-36 33-49 54a89 89 0 0 0 0 102c11 19 26 36 41 52 23 26 44 54 66 80 41 48 83 93 130 135l178 157h-8Z"/>
    <path d="M2340 2402c-10-21-25-38-40-56-16-21-34-39-52-58l-94-99c-24-26-48-53-73-77-26-24-51-50-80-70-9-7-19-13-29-18a97 97 0 0 0-94 4c-26 14-47 33-68 53l-45 47c-24 23-51 37-86 34-18-1-35-7-52-14-28-13-52-31-74-51-31-28-61-56-86-89-21-28-38-58-44-93-5-34 2-65 27-90 18-19 38-37 56-57 20-21 38-43 50-70 13-30 12-60-2-89-11-25-27-46-43-67-22-28-42-58-55-91-17-46-14-88 19-126l22-25c21-22 41-45 59-69 9-13 17-28 23-44 11-27 8-53-7-78-27-45-62-83-107-111a96 96 0 0 0-111 2c-20 13-38 29-55 46-20 19-38 40-59 58-31 27-67 32-105 21-34-10-64-29-91-52-28-22-53-47-84-66-29-18-59-25-92-14-17 6-32 15-46 25a666 666 0 0 0-88 75c-39 33-81 36-128 19-38-14-70-38-101-62-23-17-45-35-73-44-31-11-61-8-90 8a589 589 0 0 0-120 112c-15 26-10 51 3 75 15 27 35 50 54 73 41 46 84 89 129 132 35 34 71 65 108 98 18 15 34 32 53 46 11 9 23 16 36 21 28 12 55 9 80-5 28-15 51-38 73-60 19-19 35-41 55-58 29-26 63-30 99-20 34 10 63 28 89 51 35 30 67 63 95 100 15 21 27 44 35 70 15 49-1 88-39 121-35 31-70 62-95 102-19 31-24 62-5 95 8 13 17 26 27 37 20 23 42 43 63 65l111 119c27 27 54 54 83 79l111 98c13 12 27 24 39 37h-8c-17-18-35-33-54-49l-95-85c-37-33-72-68-106-104-48-51-96-102-146-152-12-13-23-27-33-43-19-30-17-59-1-89 13-24 30-44 49-63l63-61c37-34 42-74 25-119-11-31-30-58-51-82-27-31-55-60-87-84-27-20-55-35-89-39-31-5-57 4-79 25-27 26-51 55-78 80-13 12-27 23-42 32a94 94 0 0 1-109 0c-16-10-32-22-46-35l-148-137a1928 1928 0 0 1-159-172c-9-12-16-25-22-39-11-25-7-50 10-71 34-41 72-78 118-106 35-21 70-22 107-6 26 12 48 30 70 47 27 21 56 42 89 55 19 7 39 11 60 10 29-2 52-16 73-35 30-26 59-54 93-76 13-8 26-15 41-20 29-9 57-4 83 11 24 14 45 31 66 50 26 23 53 46 85 61 23 11 48 18 75 16 17-1 32-7 45-17 11-7 20-15 29-24 28-28 55-58 87-81 27-19 55-32 89-24 17 4 33 12 48 22 40 29 72 64 99 105 23 36 21 71 1 106-16 29-37 53-59 77l-38 43c-31 36-33 77-19 120 11 30 29 57 48 82 16 22 33 43 46 67 24 42 21 83-4 124-14 21-30 40-48 59l-43 43c-31 31-39 68-26 110 8 30 24 56 44 79 33 39 69 75 111 106 25 18 53 32 85 35 30 3 55-6 77-25 18-16 33-35 51-51 22-20 43-40 69-56 37-21 73-23 111 0a1204 1204 0 0 1 144 128l109 117c33 35 67 69 95 107 7 9 14 17 17 28h-8Z"/>
    <path d="m1436 2402-46-42-91-79c-38-33-73-69-108-105-29-30-57-62-85-94-16-19-34-37-51-55-14-15-28-30-39-48-25-40-21-79 5-117 21-29 46-52 73-74 12-10 25-21 36-33 25-31 26-65 16-100-11-38-33-71-57-101-29-35-62-68-98-96-28-21-57-38-92-46-45-11-82 1-111 38-18 23-37 46-59 67-15 13-30 25-48 34-42 19-79 8-114-17l-50-42c-30-26-61-51-90-78a1366 1366 0 0 1-169-182c-9-13-16-27-21-42-9-24-6-47 8-67 27-40 61-73 103-95 38-20 74-16 110 3 24 13 44 30 66 46 27 20 55 38 88 50 20 7 42 11 64 10 30-2 53-18 74-38 26-26 52-52 82-71 11-7 22-13 33-17 28-10 55-8 82 4 26 12 47 30 69 48 29 24 57 47 91 64 19 9 39 16 60 18 33 4 62-7 85-30 21-21 39-45 61-65 18-16 36-31 57-41 28-14 57-15 85 0 45 22 78 57 101 101 17 35 14 69-5 102s-45 60-72 86l-20 21c-30 34-33 72-21 114 11 37 31 68 53 99 13 18 26 35 38 54 33 55 26 100-12 151-21 27-47 49-73 71-30 26-43 59-36 99 5 36 21 67 42 95 43 56 93 105 151 145 15 10 31 18 48 24 59 18 97 4 132-38 23-28 47-53 76-75 17-12 36-22 57-26 29-5 54 4 77 18s42 33 62 50c55 49 103 104 154 156 33 34 65 68 92 106 9 13 18 25 23 40h-8c-7-20-20-37-33-53-21-27-44-53-68-77-49-52-98-104-150-153-24-23-47-47-76-64-39-23-78-22-115 2-28 18-51 41-72 65-11 13-21 26-33 37-33 29-70 33-110 21-26-7-51-21-73-37-54-40-102-87-141-141-19-26-33-54-41-85-12-47 2-86 40-117 27-23 54-47 75-76 31-42 33-89 7-133-13-22-29-43-44-64-22-32-42-65-52-104-11-45-1-84 33-117 24-24 48-47 68-74 9-12 17-25 23-39 11-28 10-55-3-81-19-39-47-68-84-90-39-24-78-19-115 7-29 20-53 46-76 73-10 12-20 23-32 32-25 18-53 22-81 17-41-6-75-26-107-50-26-19-51-40-76-60-14-11-30-19-47-24-36-11-67-1-97 18-29 18-53 42-77 67-13 14-27 26-45 34-35 15-69 9-102-3-36-13-67-34-97-56-20-15-39-30-61-41-39-20-76-18-113 5-32 20-58 46-82 76-24 32-20 66-2 99 16 28 37 54 59 78 26 30 55 58 83 86 35 34 73 65 111 96 19 16 38 33 58 48 17 14 36 24 59 28 22 3 42-2 60-12 28-16 50-38 71-62l31-38c31-38 70-48 116-35 35 10 65 28 93 50 54 41 99 90 134 148 17 28 28 58 29 91s-12 59-37 80c-21 18-44 35-64 56-11 11-22 24-31 37a95 95 0 0 0 1 117c9 13 19 25 30 37 30 30 58 63 86 95l40 44c47 52 99 100 153 146l102 91 5 5h-8Z"/>
    <path d="M2402 886c-38-2-65 15-87 43-19 24-38 47-63 65-52 39-100 38-150-3-27-22-50-49-75-73-26-27-53-52-88-66-19-8-39-11-60-10-25 3-43 17-58 35-13 16-23 33-34 50-19 29-41 55-71 75a94 94 0 0 1-109 1c-26-16-47-37-70-57-35-30-71-58-114-74-25-9-49-15-76-10-24 4-43 17-59 36-14 18-25 38-40 56-16 19-34 36-56 47-42 22-82 14-117-15-15-13-28-28-37-46-17-38-8-72 17-104 17-22 39-40 62-55 13-9 27-18 39-30 21-21 28-46 25-75-5-41-22-77-44-111-25-39-53-76-87-107-21-21-45-38-68-57-43-35-84-71-121-112-24-26-45-55-60-88-16-37-14-72 8-106 13-21 29-40 48-56 34-26 73-29 109-8 25 15 46 33 69 51a1458 1458 0 0 1 162 140c35 34 72 65 108 97 50 43 98 88 135 143 20 29 36 59 56 87 35 52 79 95 133 127 34 19 69 33 108 34 35 0 58-16 71-49 5-13 9-28 11-42a544 544 0 0 1 62-162c20-28 54-29 78-2 17 20 24 44 29 68 7 30 14 60 25 88 38 90 107 141 202 158 29 5 57 1 80-20 13-12 22-26 30-41 13-24 22-50 32-76 9-24 21-47 37-68 2-3 4-6 8-8v10c-24 27-36 61-49 94-11 30-23 60-42 85a81 81 0 0 1-67 33 262 262 0 0 1-244-182c-10-29-16-59-24-88-4-14-9-26-17-38-22-31-55-31-75 1a479 479 0 0 0-59 167l-12 36c-15 37-41 50-79 45-58-7-107-32-152-68-49-39-88-87-119-142-35-64-84-117-138-166-52-46-106-91-156-140-48-49-103-90-158-132-15-12-30-23-46-33a88 88 0 0 0-106 9c-23 19-41 41-53 68-13 29-10 58 2 87 14 31 34 58 57 83 46 52 100 96 155 138 66 53 115 118 151 194 11 22 17 45 19 70 1 31-9 58-34 77-14 11-29 19-43 29-23 16-43 34-58 57a87 87 0 0 0 3 108c14 18 30 32 51 40 37 16 70 6 101-17 21-17 38-38 53-61 10-16 19-32 34-45 28-25 61-27 96-20 36 8 67 25 97 46 32 22 60 49 90 74 19 15 38 29 62 35 23 5 43 1 63-10 34-19 57-48 77-81l32-50c25-35 59-45 100-35 35 8 64 27 90 51l71 72c19 20 39 38 64 49 28 12 55 11 82-2 31-15 55-38 75-65 10-12 19-25 31-36 21-20 46-27 75-25v8Z"/>
    <path d="M1448 2c51 66 115 117 188 157 39 21 82 30 126 34 12 1 22-3 29-14 7-12 13-25 19-39 14-33 32-63 62-85 38-29 79-31 120-5 18 12 34 27 50 43 53 51 105 102 156 154 23 24 44 49 61 78 17 31 24 63 14 98-10 39-24 76-47 109-4 7-10 13-16 19-18 18-40 16-56-4-7-11-12-22-16-34-10-28-16-57-27-84-26-70-71-123-139-156a557 557 0 0 0-160-49c-9 0-17 4-22 12-5 7-9 15-12 23-17 42-29 85-42 128-8 27-19 53-38 74-25 31-57 36-90 12-14-10-27-22-39-35-37-39-78-73-118-107l-102-87a1336 1336 0 0 1-213-222c-5-7-12-12-14-20h6l20 25a1168 1168 0 0 0 188 198l118 101c45 37 89 74 129 116 9 9 18 17 29 24 27 19 56 16 78-8 9-9 17-20 23-32 14-25 21-53 28-81 10-34 21-68 28-104 3-17-2-25-18-33-11-5-23-8-35-12a389 389 0 0 1-164-84c-33-25-65-52-91-84-7-9-15-16-19-26h6Zm820 387c0-18-4-35-12-50-14-32-35-58-59-83-54-55-110-108-164-162-9-9-17-17-27-24-19-15-40-28-65-30-38-2-65 17-88 44-23 26-34 57-41 91-4 17 1 25 16 33l39 15c39 14 78 27 114 46 55 29 96 70 123 125 16 31 27 64 36 97 5 15 11 31 21 44 11 15 27 17 42 5l10-9c14-16 23-34 32-53 12-28 22-58 23-89Z"/>
    <path d="M1470 2a566 566 0 0 0 136 120c26 16 53 28 84 32 40 6 73-5 98-38 13-17 25-36 40-52 18-20 38-37 62-48 35-16 68-11 100 9 22 13 41 30 59 47 21 20 42 39 62 60l91 94c29 30 57 60 79 95 10 16 18 32 22 50 5 19 5 37-1 56-14 50-37 96-61 142-4 9-11 17-19 24a50 50 0 0 1-55 9c-22-9-35-26-44-47-8-17-12-35-16-54-7-34-15-68-32-100a254 254 0 0 0-216-137c-27 1-48 12-64 34-19 28-29 58-39 90-8 27-18 54-32 79-10 16-21 32-37 43a57 57 0 0 1-60 5c-22-11-39-28-54-46-32-38-68-72-105-105l-87-76-89-78c-32-27-61-57-90-88-33-35-63-72-94-109l-8-11h8a1962 1962 0 0 0 160 179c35 34 74 66 111 98l90 78c26 23 52 45 75 70l52 56c10 9 20 17 32 23 19 9 38 7 55-5 19-12 31-31 41-50 11-21 19-42 26-64 8-28 17-56 31-82 18-33 44-53 83-50a285 285 0 0 1 174 82c33 34 54 74 66 119l19 76c5 18 13 35 27 49 25 23 55 21 76-6 12-16 20-34 29-51 15-29 26-59 36-89 12-36 7-70-11-102-18-31-40-58-64-83-47-50-94-99-144-146-24-23-48-48-76-67-51-35-97-28-142 12-20 17-36 37-50 59-9 13-18 26-30 36-22 20-49 23-77 19-45-5-84-27-119-53A671 671 0 0 1 1462 2h8Z"/>
    <path d="M814 2c-16 20-34 38-49 60l-14 20a89 89 0 0 0-7 99c12 27 29 50 48 74 34 43 73 82 113 120l58 57c25 23 49 46 72 70 20 21 40 42 56 67 15 24 26 49 28 78 1 24-5 45-19 64-17 21-37 39-57 58-32 30-63 62-86 100-13 22-13 43 2 64a531 531 0 0 0 133 126c29 16 59 25 92 14 21-7 37-20 53-34 31-25 58-54 86-82 17-15 35-26 58-30 25-4 48 2 70 12 30 14 56 35 79 58 24 23 46 48 73 69l21 15c26 17 52 17 79 2 23-13 44-30 63-48l73-74c8-7 16-14 26-20 30-20 62-20 94-6 22 9 40 23 57 38 28 24 53 53 81 77 13 11 26 22 40 31 26 18 52 19 80 5 22-11 42-25 62-42 26-22 51-47 79-69 13-10 26-20 44-23v6c-31 13-55 35-80 57-28 25-56 51-89 72-9 6-20 11-31 16-15 6-31 6-47-1-19-9-35-23-50-36-28-25-55-51-81-77-17-16-34-31-54-41-47-24-87-19-125 18l-75 75c-20 20-43 37-67 52-30 18-57 16-83-4l-38-32c-24-22-46-46-71-68-22-21-47-39-77-49-41-13-77-5-108 25l-65 63c-15 14-31 28-49 39-30 20-62 23-96 10-26-9-49-26-70-44a1386 1386 0 0 1-100-100c-17-22-18-36-3-60 13-21 29-40 45-58 28-33 61-60 91-91 20-21 34-45 33-76-1-22-8-43-18-62-13-23-29-42-46-61-50-54-104-103-155-155-43-43-88-86-124-136-14-20-28-40-37-64-13-30-9-59 9-86 19-29 42-56 65-82h8Z"/>
    <path d="M2402 910c-26 3-47 15-66 33-18 18-35 39-55 56-19 16-39 31-62 41-31 13-62 9-91-7-21-12-38-27-55-43-25-24-48-50-75-72-16-13-33-25-52-33-48-19-87-7-119 31-23 25-42 54-67 78-14 14-29 27-46 37a99 99 0 0 1-108-4c-16-10-30-23-44-36-23-21-46-44-72-62-25-17-50-31-79-39-47-12-85 2-114 39-22 27-43 53-70 75-12 10-24 18-38 24a98 98 0 0 1-88-2c-36-18-64-44-84-79-23-38-16-74 8-109 18-25 41-46 65-66l24-19c40-31 50-67 38-116-10-39-32-72-56-104-34-44-75-81-117-116l-59-52c-33-31-66-63-95-99-14-18-27-37-38-58-25-47-22-92 11-135 21-28 43-53 74-71h16c-2 3-5 4-7 5-46 23-76 61-97 105-12 25-9 50 0 74 13 36 35 66 60 94 46 53 98 99 152 143 44 37 85 77 118 124 20 29 38 60 46 96 12 47 0 86-40 115-24 18-49 38-70 61-10 11-18 22-26 35a89 89 0 0 0 4 99c19 29 44 52 76 67s63 13 93-4c32-18 55-43 77-71 11-13 21-28 34-39 31-29 68-34 107-22 36 10 66 30 95 52 30 25 57 54 88 77 11 8 22 14 34 19 27 10 53 6 77-7 32-18 57-44 79-73l34-43a102 102 0 0 1 124-33c23 10 43 24 62 41 27 24 51 51 77 75 13 12 26 22 40 31 39 23 77 21 115-2 26-17 49-37 69-61l34-34c17-14 37-22 59-24v8Z"/>
    <path d="M844 2c-10 12-23 22-33 34-16 19-31 37-43 58-19 34-15 67 1 100 14 29 33 54 53 79 37 44 80 84 123 124 38 35 78 68 113 106 31 33 58 68 74 110 10 28 14 56 3 85-7 20-21 34-37 48-30 27-61 53-86 85-8 10-14 20-19 31a84 84 0 0 0 8 89c24 34 54 63 89 84 41 25 81 25 121-2 32-21 58-48 83-77 10-11 20-23 32-32 30-23 63-26 98-16 34 10 62 29 89 52 26 22 49 48 76 70 11 8 21 16 33 22 31 17 62 14 92-3 31-19 56-45 80-71 18-19 33-41 54-57 34-28 71-30 110-12 24 11 44 27 63 45 26 25 51 52 79 75 14 12 30 22 47 29 26 11 52 9 77-3 28-13 51-33 73-54l45-42c17-16 37-28 60-33v8c-24 6-44 19-61 36-27 26-53 52-83 74-14 10-29 18-45 24-23 8-46 8-69-3-28-12-50-32-72-52-22-21-42-44-65-63-18-15-37-29-60-37-38-14-71-7-101 20-24 22-44 49-68 72-20 20-42 40-67 54a93 93 0 0 1-101-6c-28-17-51-41-74-64-26-25-53-48-85-63-25-12-52-19-80-14-20 4-36 13-50 27-17 16-32 34-49 51-23 23-46 45-76 60s-60 15-91 1a319 319 0 0 1-114-102 86 86 0 0 1 0-100c16-26 37-48 59-70 21-19 44-36 63-58 19-23 24-50 20-78-6-37-25-68-47-98-30-39-67-73-104-107l-92-86c-35-34-68-69-97-108-14-19-26-39-35-60-16-36-12-71 10-103 15-22 31-43 50-62l16-17h10Z"/>
    <path d="M2402 602c-16 21-25 45-33 69-13 39-26 78-43 115-13 32-23 38-57 32-45-9-87-23-129-41-32-14-63-30-89-54-21-19-36-42-50-66-20-36-34-73-49-111-3-8-7-15-12-22-10-14-23-15-36-3-15 14-23 31-30 49-10 28-16 57-18 87-2 23-4 46-4 69-1 21 8 36 25 47 13 8 26 14 39 20 48 19 84 52 118 89 27 29 51 61 83 84 39 29 79 29 118 0 26-18 42-44 55-72 5-13 11-25 17-36 7-11 16-17 29-17 23 1 45 5 66 11v8c-17-3-33-5-51-4-17 1-30 9-40 23-8 11-14 24-21 36-13 23-30 44-52 60a96 96 0 0 1-117 3c-23-14-41-34-59-54-24-26-48-53-74-76-28-26-63-40-99-53l-43-16c-15-6-18-11-16-27 1-19 7-37 10-55 5-31 7-63 14-93 8-33 18-66 39-93 20-27 43-24 58 5 11 21 17 44 25 66 12 31 26 61 43 90 24 38 57 65 97 86 42 21 86 37 133 45h31c15-1 26-10 35-22 13-19 21-41 30-63 14-35 23-72 41-105 5-8 9-16 16-23v12ZM2 1906l3-7c11-37 35-64 63-89l42-35c28-26 36-59 31-96-5-32-19-62-35-90-18-32-42-61-60-93-13-21-24-43-24-69-1-19 4-36 13-52 15-29 37-51 62-70 30-22 61-24 94-9 27 13 50 30 73 48 58 50 108 107 155 167l63 78c10 13 19 26 25 41 15 32 11 63-5 93-15 29-37 52-61 74-18 16-37 33-46 57-11 30-7 60 1 90 11 35 29 66 48 97 12 21 25 41 35 63 20 42 19 84-6 124-17 27-37 51-65 68a72 72 0 0 1-62 8c-30-9-55-26-78-45-50-41-93-88-132-139-31-40-63-79-96-118-16-17-29-37-35-60l-3-6v-30Zm506-237-3-24c-5-19-15-34-26-49-45-54-86-112-134-164-35-38-71-75-113-105-17-12-35-23-55-29-25-7-49-5-71 10-23 16-42 34-57 57-13 19-20 41-19 64 1 24 10 45 22 65 15 25 32 49 48 74 23 36 42 74 49 117 5 31-1 59-22 84-8 10-17 17-27 25-26 20-51 41-69 68-15 24-25 48-18 77 4 18 13 34 24 49 26 34 55 66 81 100 43 56 87 110 141 156 24 20 49 38 78 49 28 11 54 8 77-10 19-15 35-32 48-51 24-35 31-73 16-113-11-28-27-54-42-79-20-32-38-64-48-100-5-19-9-39-8-59 3-34 21-60 46-81 21-18 42-38 58-61 14-21 24-42 24-70Z"/>
    <path d="M2 1390a262 262 0 0 1 92-111c32-24 65-21 98-3 30 17 56 38 82 61l57 54c33 34 65 70 95 107l69 78c14 15 25 31 34 48 18 35 16 69-3 103-17 31-41 57-65 83l-25 27c-23 28-29 60-23 95 8 40 27 75 49 109 14 23 30 45 41 70 19 43 15 84-9 123-19 32-44 60-73 83-25 20-52 21-81 8-31-14-58-35-84-58-46-41-88-86-127-134-33-41-66-81-103-118l-24-27v-10c4 1 6 4 8 7 9 13 20 25 31 36 36 37 68 79 101 119 45 55 93 106 150 149 19 14 38 26 61 33s44 4 63-11c35-27 64-59 82-99 18-42 10-82-12-120l-50-83c-18-31-30-64-32-99-2-34 10-62 33-86s47-47 66-74c8-10 14-21 20-33 19-40 11-77-13-112l-38-46c-23-25-44-52-66-77-41-48-85-94-131-137-25-22-51-44-82-60a92 92 0 0 0-67-13c-17 5-30 14-43 25-22 19-42 39-57 64-27 41-25 83 0 125 16 29 38 54 55 82 14 20 25 42 34 64 9 25 14 51 9 78-3 20-12 37-26 51l-54 52c-13 12-24 26-35 40-2 3-4 6-7 7v-12l9-8c18-24 39-44 61-64 42-37 58-73 39-136-10-31-27-59-46-86l-37-52c-11-15-17-32-26-48v-64ZM2048 2c23 21 46 43 67 66l86 95 94 97c30 30 59 59 84 92 12 16 22 32 19 53-2 15-9 28-18 41-14 22-29 43-41 67-14 26-27 53-37 81-9 23-19 45-36 63a88 88 0 0 1-100 23c-49-18-79-55-97-103-9-26-13-53-17-81-7-37-19-72-43-102-27-34-62-57-107-59-31-1-56 13-75 38-12 18-20 38-27 58-16 49-36 97-63 141a72 72 0 0 1-58 38c-19 1-37-5-54-14-33-18-56-44-76-74-42-62-92-117-146-168l-136-120c-41-36-78-76-116-114L1046 16c-4-5-10-7-12-14h8c6 8 13 14 20 21l109 109c25 27 52 53 79 79 32 30 65 58 98 87l42 37c52 49 103 99 145 157 19 27 38 54 62 76 18 16 38 28 61 32 28 5 50-4 67-26 20-25 33-55 47-84 13-31 21-63 34-93 11-25 25-46 50-59 18-10 37-12 57-9 54 9 91 41 118 86 19 33 26 71 31 108 5 33 15 66 34 94 15 21 33 39 56 50 50 24 99 12 127-40 7-12 12-24 17-36 19-50 43-97 72-141l11-20c13-23 10-46-4-69-14-21-30-40-47-58l-77-79c-38-40-77-81-114-123a924 924 0 0 0-97-99h8ZM2 1008c5 1 8 5 12 9 23 23 47 46 75 64 26 18 52 19 80 5s52-33 75-54l66-57c41-34 86-35 133-14 31 14 58 36 84 57 24 19 48 37 78 47 32 10 63 7 93-10 29-18 55-40 80-63 18-16 37-30 54-47 7-7 13-13 18-21 11-15 11-30 2-47-10-18-24-33-38-48-39-41-81-80-122-119-53-51-107-102-158-155-20-20-37-42-57-62-16-16-32-32-52-44a46 46 0 0 0-54 3c-30 21-51 48-69 79-14 26-25 53-35 80-8 20-17 40-30 57a95 95 0 0 1-99 38c-51-9-87-40-113-83-8-12-14-24-18-37-1-3-2-6-5-8v-18c5 2 5 8 6 12 13 41 36 76 71 102 24 17 50 27 80 27 34 0 59-17 78-45 12-18 20-38 28-58 16-43 36-84 64-119 12-15 25-28 40-39 21-16 36-17 57-2 19 13 36 29 51 46 52 57 105 113 161 167l114 110c31 29 61 58 90 88 9 9 18 19 24 31 11 17 10 29-2 45-11 14-24 24-37 35-33 27-64 57-99 83-9 7-19 14-29 19-37 22-74 21-111 3-27-12-50-30-73-49-23-18-47-36-74-48-32-14-65-20-98-5-19 9-35 23-51 36-28 24-54 50-84 72-15 11-31 22-49 30s-37 9-55-1c-24-12-43-30-62-47l-40-37v-8Z"/>
    <path d="M1992 2c52 38 98 84 142 130l105 110c27 30 54 60 75 95l14 28c9 25 8 49-2 73-14 38-32 74-49 111-7 16-13 32-22 47-13 22-30 38-57 41-21 2-39-5-56-18-20-15-33-36-41-59-9-25-12-51-17-76-8-41-22-79-49-112-39-48-88-79-152-82-39-2-66 17-86 50-9 16-16 33-22 51-9 26-17 53-29 78-12 24-25 47-45 65a64 64 0 0 1-80 8c-23-14-40-34-56-55-24-31-50-61-79-87-38-36-76-71-116-106-64-55-127-110-185-172L1084 9c-2-2-4-4-4-7h6c29 32 57 66 87 98 24 26 48 53 74 77 28 27 58 54 88 80a7985 7985 0 0 1 178 161c19 19 36 39 52 60 15 18 29 35 48 49 25 20 54 22 77 5 14-10 26-24 35-40 16-24 26-50 35-77 8-24 15-49 27-72 25-49 60-67 115-59 40 6 74 24 105 50 50 41 74 96 85 158 4 19 7 38 12 56 8 25 21 47 41 64 31 26 72 22 97-10 15-20 23-44 34-66l38-88c18-41 13-79-11-116-16-26-36-50-57-73-29-33-61-63-91-95-29-31-58-60-88-89-26-26-52-51-83-70l-4-3h12Z"/>
    <path d="M1064 2c11 14 24 26 36 39l82 87 77 76c32 30 65 58 98 87l67 61 44 41c36 34 68 71 97 112 14 19 29 37 49 51 15 11 30 18 48 18 16 0 30-6 42-17 20-19 34-43 47-68 14-27 23-57 32-87 6-16 13-32 22-48 24-38 61-55 105-47 58 10 99 43 130 92 21 32 30 68 36 106 4 25 9 50 19 74 12 25 27 45 50 60 45 30 94 18 120-30 11-19 18-39 27-58 12-29 25-57 39-84l13-27c15-31 12-60-5-89-15-25-33-47-52-69-35-39-72-77-109-115-32-34-62-69-95-101a1222 1222 0 0 0-69-64h10c10 12 22 21 33 32a1500 1500 0 0 1 126 130l94 98c24 26 48 52 66 82 12 19 21 38 19 61-1 15-6 28-12 41l-34 68-34 77c-6 16-14 31-26 44a83 83 0 0 1-107 15c-32-18-51-46-64-80-10-25-13-52-17-79-8-40-21-77-47-109-31-38-70-64-121-69-38-3-68 13-89 46-10 15-17 32-23 50-10 31-20 62-35 92-12 21-23 43-41 60a66 66 0 0 1-79 15c-22-10-40-25-55-44-21-25-39-53-60-78-27-31-56-60-86-87l-59-55-92-81c-35-31-68-64-100-97L1060 7l-4-5h8Z"/>
    <path d="M1350 2c21 33 37 68 56 101 20 35 47 60 84 78 46 23 88 53 125 89 7 7 13 14 16 23 4 8 5 16 2 24-2 10-9 15-19 15-9 1-17-3-24-7-40-26-80-54-113-88-35-36-74-65-117-90-58-34-102-83-138-140l-2-5h10c23 36 48 69 81 95 20 17 41 31 66 40 6 2 13 6 18 0 6-5 2-13 0-19-11-30-24-59-39-87-5-10-12-19-16-29h10Zm143 205c-7-1-9 3-7 9 3 7 7 12 12 17a391 391 0 0 0 102 74c7 1 12-3 10-11-1-6-5-11-9-16-26-28-56-50-90-67l-18-6ZM762 2c-6 11-16 20-24 29-27 29-59 54-87 83-8 9-9 9-1 18l87 100c45 50 91 97 138 144 42 43 82 88 122 133 18 21 38 40 54 63 10 16 18 34 21 53 5 28-5 53-21 75a467 467 0 0 1-120 112 74 74 0 0 1-63 3c-26-10-49-26-71-43a1951 1951 0 0 1-292-302c-8-10-14-21-21-32-20-36-19-73 0-109 12-25 28-47 45-68 28-34 53-70 81-105 7-9 14-18 23-27 5-4 5-7 0-13-29-34-59-68-86-104l-7-10h8c19 27 41 51 65 74 20 19 34 20 56 4h1c31-23 60-48 84-78h8ZM478 383c-1 26 10 48 23 70 15 23 34 44 52 66a1694 1694 0 0 0 221 227c26 22 52 42 83 56 29 14 57 13 84-5 16-11 30-23 44-36 25-23 50-46 67-77 11-19 16-39 12-61-4-20-12-37-23-53-16-23-37-43-55-64-32-37-65-74-99-109l-92-94-87-93c-15-17-31-34-49-47-13-10-25-10-38 0l-10 9c-18 18-33 39-49 59-19 24-40 48-57 75-15 23-28 48-27 77ZM2 714a376 376 0 0 0 219 90c21 1 36-8 47-25 15-24 25-50 35-76 11-30 19-60 34-88 9-17 20-31 35-44 22-19 53-21 82-4 21 12 38 28 57 43 33 27 69 53 101 82 45 40 89 80 120 133 6 10 10 20 13 31 7 22 4 44-9 63-15 22-34 41-58 54-29 16-60 17-91 5-18-8-36-18-52-29-29-18-57-37-87-54-41-23-85-38-133-40-22-1-41 7-53 26-13 19-22 40-36 58-15 20-33 37-56 48-34 16-66 11-97-9-23-15-41-34-59-54-4-4-6-8-12-10v-10c9 2 13 10 18 16 16 17 32 34 51 47 37 28 78 27 115 0 26-19 42-45 55-73l18-36c7-11 16-17 30-16 44 1 86 12 126 29 41 18 77 43 114 67 17 11 33 21 51 29 45 20 85 12 122-20 8-7 16-16 23-25 17-24 20-49 9-77-9-25-25-46-43-66-41-49-89-90-139-129l-80-62c-6-6-14-10-21-14-34-19-67-11-92 21-19 23-29 50-39 78-13 38-25 76-41 112-14 34-24 39-59 32-44-8-86-22-127-39-31-14-60-29-86-51l-5-3v-10Zm0 1318c5 1 7 4 10 7 42 39 79 81 116 125a2123 2123 0 0 0 150 153c24 22 49 45 76 63 7 5 15 8 23 11 12 4 24 1 35-6 16-11 27-26 39-41 25-31 52-61 73-95 10-14 18-29 23-46 11-36 3-69-15-101-14-27-34-52-50-78-16-25-28-51-33-80s0-56 16-81c17-26 38-50 58-73 25-29 49-60 65-96 8-19 7-38-4-57-11-18-25-34-39-49-29-33-62-62-92-94-56-60-114-119-173-177-31-30-62-60-97-85l-20-13c-27-13-46-11-69 8-24 20-43 44-64 65l-22 25-6 3v-8l56-60c13-14 26-29 42-41 20-15 40-15 62-3 22 13 42 31 61 48 28 25 54 51 80 77 45 46 91 90 135 136l109 111a561 561 0 0 1 55 69c5 11 6 22 2 34-7 19-19 36-30 53-19 28-41 52-63 78-14 16-27 34-39 52-19 30-22 63-12 96 8 29 24 55 40 79 14 20 28 39 39 59 16 28 26 58 19 90-5 22-14 41-26 60-17 28-39 53-59 78l-17 22c-14 18-28 37-46 52h-40c-40-25-73-58-107-90-36-35-72-71-106-108-31-33-59-68-90-101-21-22-41-44-65-63v-8Z"/>
    <path d="M528 2c5 12 14 21 21 32 11 15 21 31 29 48 12 24 13 49 3 74-13 34-35 62-57 91-21 26-42 53-58 82-6 11-11 22-14 33-7 23-4 44 8 65 15 26 35 49 55 72a2814 2814 0 0 0 201 211c40 38 80 75 125 107 14 11 29 21 47 25 12 3 23 2 34-3 18-8 32-21 45-34 24-22 48-44 71-68l30-35c24-32 27-65 12-101-8-20-20-38-35-54l-72-77c-49-54-102-104-152-157-39-40-76-81-106-128-7-12-13-24-18-37-5-17-3-32 4-47 9-19 23-34 37-50l42-49h8l-53 64-20 28a68 68 0 0 0-6 62c7 20 19 37 32 55 23 32 50 62 77 92 46 49 95 96 142 144 31 33 64 65 93 99 17 19 30 41 38 65 11 34 6 66-16 94-19 25-41 47-64 68l-47 46c-9 9-19 18-31 25a55 55 0 0 1-59 3c-27-14-49-33-72-52a2899 2899 0 0 1-339-348l-17-26a65 65 0 0 1-5-55c9-27 23-51 40-74l57-76c12-15 22-32 30-50 16-34 13-66-5-98l-36-54-7-12h8ZM2 986c11 4 18 14 27 22 13 12 26 24 40 34 42 30 82 31 125 3 21-13 40-30 59-46 17-16 33-34 51-49 27-22 57-29 91-23 36 6 67 23 97 44 27 18 51 40 79 57 40 24 81 28 122 4a502 502 0 0 0 107-92c24-28 26-54 7-86-11-17-23-33-37-48-46-51-95-98-145-145l-65-60c-28-25-54-54-81-81-10-11-22-20-35-28-34-21-64-18-93 10-24 23-40 50-53 79-12 27-21 57-35 84-12 21-26 40-48 52-29 17-60 16-91 7-50-15-87-48-114-92-2-4-4-8-8-10v-12c5 1 6 5 8 9 20 36 46 65 83 85 27 14 56 22 87 17 38-5 61-30 78-62 14-25 22-54 34-81 15-32 32-62 59-86 27-25 54-29 87-12 11 5 21 14 31 22 17 13 30 30 45 45 58 60 122 116 182 175 37 37 74 73 107 114 9 12 17 24 22 38 7 17 6 33-3 49-4 9-9 16-15 23-31 32-62 63-100 87-17 10-34 18-54 22-19 3-37 0-54-7-25-9-47-24-68-40-24-19-48-38-75-53-22-12-45-20-70-22-36-4-65 11-90 34-28 27-55 54-86 76-14 10-28 18-44 24-24 10-48 9-72-3-26-12-48-31-70-51-7-7-14-15-22-21v-6ZM956 2c37 20 66 50 99 76 39 31 76 64 111 99 53 52 109 101 165 149 65 57 122 121 166 196 28 47 64 87 109 119 29 21 62 34 98 38 37 4 67-14 82-48 7-17 12-35 17-53 14-44 31-87 50-130 7-16 18-30 33-39 24-14 56-9 80 14 18 17 30 39 36 63l13 60c9 44 24 86 54 121 37 44 84 72 142 78 39 4 70-12 92-43 20-27 30-57 42-88 10-28 24-54 43-78 4-5 8-10 14-14v10c-20 20-34 45-46 71-12 29-21 59-37 87-8 15-18 28-30 40a99 99 0 0 1-86 21c-71-12-125-50-161-112-21-34-31-73-38-112l-9-39c-7-24-17-47-38-62-34-26-71-19-93 18-9 15-15 32-21 48-16 39-31 79-41 119-3 11-7 21-12 31-17 38-51 49-86 45-37-4-70-19-101-40-49-35-86-81-117-131-26-42-54-81-88-117-30-33-64-62-97-92-28-25-57-49-84-75-62-60-125-119-193-172-18-14-35-29-54-42-10-6-21-9-30-16h16Z"/>
    <path d="M2 678c4 1 6 5 9 8 42 45 94 73 155 83 29 4 58 2 81-20 13-12 22-26 30-41 13-25 22-51 32-76 12-31 27-60 51-83 26-25 58-29 90-10 16 10 31 22 45 35 30 28 62 53 93 80 54 46 107 94 151 152 11 14 21 29 27 46 13 30 8 58-12 83-15 21-33 38-55 52-42 29-86 29-131 4-19-11-37-24-55-36-36-25-73-49-115-62-20-6-41-8-62-6-30 2-52 20-70 43-20 25-40 49-67 68-21 15-44 25-71 24-21 0-39-8-56-18-17-11-31-23-45-38L2 942v-8c10 4 15 13 22 20 20 20 41 40 68 52s54 11 81-2c31-15 55-38 76-65 9-12 18-25 30-36 25-24 56-29 89-24 40 6 76 24 110 45l78 52c12 8 24 14 37 18 35 14 67 9 98-10 21-13 39-30 54-49 25-32 27-62 7-98-15-26-34-50-55-72-49-53-103-101-160-146-25-20-48-43-74-62a94 94 0 0 0-46-21c-28-3-47 11-64 31-24 27-36 60-48 93-11 30-22 59-42 85a80 80 0 0 1-67 33c-61 0-113-24-161-60-12-9-21-21-33-30v-10Z"/>
    <path d="M2 646c4 1 6 4 8 7 27 38 62 66 106 82 23 8 46 12 71 10 29-4 51-20 68-43 14-19 24-41 32-63 14-36 28-72 53-103 16-19 34-34 60-37 14-1 26 2 38 8 17 7 31 19 44 32 42 43 89 81 133 122 54 50 109 100 154 158 9 12 16 25 22 38 15 30 10 57-10 82-24 30-51 55-84 75-41 25-82 24-124 1-29-16-54-37-81-56-31-21-64-39-101-47-40-8-75 2-103 32l-41 41c-21 20-43 39-69 52-34 16-66 13-98-4-20-11-37-27-54-42-8-8-15-16-24-23v-8c5 1 8 5 12 9 17 18 35 35 56 49 40 27 80 29 121 3 26-16 49-37 70-60 11-13 23-26 37-37 31-24 67-27 104-16 39 10 73 31 106 55 23 17 46 35 72 48 38 20 75 19 112-2 34-20 62-46 85-78 18-24 18-49 6-75-10-22-25-42-41-60-48-56-102-106-157-155-35-30-70-60-102-93-12-11-25-22-39-30-37-20-69-10-95 19s-41 64-54 99c-11 29-22 58-43 82a92 92 0 0 1-70 34c-52 2-96-18-136-50-14-12-27-26-38-41l-6-5v-10Zm0 1362 4 2c26 26 53 51 76 79 38 44 74 89 114 131 37 38 76 74 119 106 9 7 19 13 29 18 34 17 60 14 87-13 31-30 60-63 81-101 22-39 23-79 4-119-8-17-17-32-27-48-18-25-34-51-47-79-9-19-14-38-16-59-3-35 10-65 32-91 24-27 49-54 71-84 11-15 20-31 26-48 10-31 3-59-13-85-12-18-25-35-40-50-36-36-68-74-102-111-41-44-83-88-127-129-21-19-42-37-65-54-13-9-26-17-40-23-27-11-52-8-74 10-32 25-60 54-83 86-3 3-4 7-9 8v-10l40-46c16-18 34-34 53-48 23-18 49-19 75-7s47 28 68 46c40 34 77 70 113 107 38 40 75 80 111 121l54 56c18 19 34 39 45 63 11 26 9 51-2 76-12 27-29 50-48 72l-48 56c-30 36-37 76-23 120 9 29 24 55 41 81 13 20 28 40 39 62 24 47 22 92-5 137-15 24-33 46-51 67-13 14-25 29-41 41a63 63 0 0 1-70 9c-26-12-49-30-71-49-47-39-90-83-131-129-46-52-88-107-139-153-3-3-5-7-10-8v-10ZM992 2l56 50c36 32 73 64 108 98 50 49 100 98 153 143 42 35 81 72 119 112 29 31 54 65 78 101 22 34 45 67 76 95 26 23 55 42 90 49 13 3 27 4 40 1 25-4 41-19 52-40 13-25 21-52 32-78l38-98c5-12 11-24 20-34 27-31 67-36 103-13 35 22 54 55 64 93 7 27 9 55 16 83 10 41 30 78 61 108s67 49 111 51c33 1 60-13 81-39 18-23 29-50 39-78 12-33 27-64 48-91 8-10 15-18 25-25v10c-26 22-42 51-56 81-12 27-20 57-35 83-12 22-26 41-47 53-30 17-61 16-92 7-50-15-87-48-114-93-22-34-30-73-36-112-5-29-11-57-27-82-11-18-25-33-43-44-38-22-81-10-104 30-9 15-14 31-20 46l-50 133c-12 31-32 54-67 58-20 2-39 0-57-7-28-11-53-26-75-46-26-25-48-52-68-82a926 926 0 0 0-162-190l-97-86c-35-31-68-64-102-97-37-36-77-71-117-105L982 2h10Z"/>
    <path d="M474 2402c7-27 22-50 39-72l107-139 14-14c5-4 4-7 0-12-34-39-68-79-99-121-15-20-27-41-36-64-15-38-10-74 11-109 11-19 25-37 40-54 15-16 30-33 47-48 10-7 19-14 30-19 13-5 26-5 40-2 19 6 36 16 51 28 39 29 74 61 104 99l16 24c14 26 8 50-8 72-14 19-30 36-44 53-23 28-47 56-74 81l-62 58c-6 5-7 9-1 16l88 101c36 40 73 79 111 117l4 5h-8l-47-49-88-94c-15-17-30-34-49-47-15-11-28-11-41 1-8 7-16 14-23 23l-67 85c-20 25-38 50-47 81h-8Zm362-475c-1-13-6-26-13-37a391 391 0 0 0-135-125 69 69 0 0 0-84 9c-32 27-60 57-83 92-28 42-31 86-7 132 26 49 62 91 103 129 17 16 29 16 49 3l8-5c39-27 70-61 100-97 16-20 34-39 49-61 8-12 12-25 13-40ZM2402 464c-17 17-32 35-45 56-17 29-30 59-42 90-8 21-17 41-30 59a95 95 0 0 1-97 37c-52-9-89-40-116-83-20-34-28-72-34-110-4-23-9-47-18-68-16-36-41-65-78-80-45-18-87-2-110 41-8 15-13 31-19 47-17 47-36 93-58 137-7 15-18 28-33 36a83 83 0 0 1-58 7c-33-7-60-25-84-48-21-19-37-41-52-65-38-57-82-109-132-156-34-33-70-64-105-95-27-23-53-46-78-71L1099 86l-83-76c-2-3-5-4-6-8h8c13 15 29 28 43 41l90 86c61 62 125 121 190 178 27 23 53 47 78 72 41 41 79 85 111 133 13 21 27 41 44 58 27 28 56 50 96 56 31 5 58-7 75-34 18-30 31-64 45-97l30-80c5-14 13-27 24-38 24-25 54-32 88-23 36 11 63 35 82 67 18 29 25 61 30 94s12 65 28 94c20 38 49 68 90 83 35 14 70 13 101-11 19-16 31-37 40-59 10-22 17-45 27-66a338 338 0 0 1 72-102v10Zm0 926-7-6c-33-33-66-66-101-98a591 591 0 0 0-92-71c-23-10-42-2-60 12-23 19-42 43-63 64a463 463 0 0 0-64 89 97 97 0 0 0 3 83c13 27 32 51 50 74 23 29 44 58 55 93 14 42 6 79-22 112-24 29-50 55-75 83-19 22-36 45-50 71-12 21-9 40 4 58 21 28 45 53 71 77 30 28 59 57 86 88 33 37 65 75 99 111l75 74c29 27 58 54 91 76v12c-57-45-109-97-160-149-38-38-73-79-108-119-28-33-60-62-91-92-26-25-52-49-75-77l-6-7c-10-15-12-30-3-46 15-24 31-46 50-68l77-85c10-12 20-24 27-38 10-21 11-43 7-66-7-38-29-68-52-98-18-23-37-46-52-72-24-38-23-76 0-114 13-23 30-43 47-63l68-73 19-15c19-14 38-13 58-3 23 13 43 31 62 49 28 24 53 51 80 76 18 17 34 36 52 52v6Zm-834 1012-112-88c-50-40-100-81-149-123-40-34-74-74-103-118-16-23-32-46-46-70-7-12-13-24-16-37-9-39 13-71 53-78 39-7 69 9 93 38 42 50 79 104 115 159 18 27 37 54 62 76 20 19 44 34 66 50 37 25 74 52 109 79 35 28 46 62 34 105l-2 7h-12c18-42 8-78-31-109-42-34-86-65-131-95-43-28-75-65-101-108-31-50-66-99-103-144-14-17-28-32-48-41-18-8-37-11-56-5-28 8-44 33-39 61 3 16 9 30 17 43a700 700 0 0 0 190 220c72 57 142 116 216 171 2 2 5 4 6 7h-12Z"/>
    <path d="m1694 2402 5-37c0-11-1-22-3-32-4-21-16-37-32-49-29-21-59-39-88-60-30-23-62-44-91-68-26-21-47-46-66-73-39-55-78-110-114-167l-20-25a78 78 0 0 0-74-31c-26 3-51 10-71 29a69 69 0 0 0-21 70c4 16 11 30 20 44 32 47 64 94 101 137 26 31 56 59 87 86l140 115c22 19 45 36 68 54l7 7h-10c-50-40-101-80-150-122-41-34-82-68-120-106-34-35-63-74-91-114-16-21-32-42-45-65-5-8-9-17-13-27-12-37-3-69 29-92 27-20 58-29 92-28 26 1 43 17 58 36 21 27 36 57 55 84 36 52 71 105 112 153 20 23 45 41 70 59 43 32 86 63 131 91 28 17 46 41 47 75 1 14-1 28-3 42l-2 14h-8Zm708-996c-18-15-34-33-51-50-30-29-61-58-95-83-13-10-27-18-43-24-22-8-45-8-65 7-41 30-76 66-102 110-22 39-18 78 3 116 15 25 34 47 52 71 16 23 30 47 41 73 19 52 11 97-29 136-26 26-52 52-75 81-12 15-22 32-28 50-8 25-5 48 8 70 16 27 37 49 60 70 19 18 35 37 52 56 38 44 74 89 114 131 37 38 76 74 119 106 12 9 25 17 39 22v8c-12-3-22-10-32-17a1287 1287 0 0 1-219-217c-33-39-69-75-105-111-14-15-27-31-37-48-19-32-15-63 2-93 13-23 30-42 47-61 19-22 40-41 58-62 31-35 34-74 20-117-9-27-24-51-41-74s-35-45-50-68c-30-49-28-97 6-143 25-35 54-66 88-92 24-20 51-23 80-10 24 11 45 27 65 44 38 33 75 68 111 105l7 8v6Z"/>
    <path d="M2402 1422c-8-6-15-14-22-21-33-34-67-68-106-96-17-12-35-24-55-30-24-8-47-7-67 7-35 24-65 53-85 91s-15 76 6 113c16 27 36 51 53 77 15 22 28 44 37 69s15 51 9 79c-3 19-12 36-26 50-21 22-44 41-65 63-16 18-31 36-40 59-14 30-9 60 7 88 11 18 26 35 41 50 32 34 61 70 91 106 28 36 58 70 90 102 31 29 62 57 98 78 11 7 22 12 34 15v8c-14-4-27-11-40-18-28-18-52-39-76-61-49-46-93-97-135-149-21-27-43-53-67-77-16-16-30-32-42-51a96 96 0 0 1-2-107c20-35 49-63 79-90 23-20 43-42 47-75 3-27-2-52-13-77-15-37-38-68-61-99-11-16-21-31-30-47-23-43-19-84 7-123 20-31 45-57 75-78 31-23 63-19 96-2 28 16 53 36 77 57 30 26 58 54 85 83v6Z"/>
    <path d="M2402 2306c-33-8-61-27-87-48-49-40-92-87-131-138-31-40-63-79-96-117-10-11-18-23-25-36-19-35-15-69 5-103 19-29 44-52 72-73 17-14 33-29 42-49 13-28 10-57 2-85-9-33-26-63-45-92-15-23-32-45-46-69-12-21-22-43-23-67-1-20 4-37 13-54 15-29 37-51 63-70 29-22 61-24 94-8 24 11 45 26 66 43 35 28 67 60 96 94v6c-5-3-8-8-12-12-42-44-84-88-137-118a97 97 0 0 0-71-14c-9 2-16 5-23 9-26 17-48 38-64 64-22 34-22 70-5 106 12 26 29 49 45 73 23 34 45 70 56 111 4 13 7 27 7 42 2 36-14 64-41 86l-44 36c-19 17-34 36-45 58-16 33-11 65 9 95 11 17 24 33 38 49 27 31 51 63 76 96 23 29 47 57 73 83 33 32 66 64 108 84 9 4 19 8 30 10v8Z"/>
    <path d="M2402 2258c-25 0-47-11-68-25-29-19-54-43-78-69-45-51-83-108-123-164-9-13-16-27-22-42-11-33-4-62 16-89 16-20 37-32 58-45l34-22c29-22 37-50 29-84-9-40-26-76-46-111l-58-96c-15-25-27-50-26-79 0-41 36-86 75-96 25-7 49-1 71 11 40 22 73 52 103 86l35 41v8c-9-7-15-17-22-26-26-30-54-59-87-83-20-15-41-27-65-31-16-3-31-1-44 6a99 99 0 0 0-44 141c14 30 33 58 51 87 25 42 49 85 65 133 3 11 6 23 6 34 2 26-8 45-28 61-19 15-40 25-60 37-14 9-27 18-37 31a86 86 0 0 0-12 100c12 25 29 47 45 69 25 36 50 72 78 105 30 34 61 67 102 89 16 9 33 15 52 15v8Z"/>
    <path d="M2402 2282c-16-1-31-7-44-14-43-24-77-56-109-92-50-54-91-116-138-174-9-11-16-23-22-36-20-39-12-74 13-107 17-23 39-39 62-55l21-16c31-26 38-60 29-98-9-42-28-79-50-114l-48-77c-7-11-12-22-16-34-11-33-7-63 11-92 13-21 30-37 50-50 29-19 59-16 89-2 25 12 48 28 69 46 30 26 57 55 83 85v8l-49-52c-31-32-63-62-104-80-24-11-49-17-73-4-61 32-98 95-56 169 18 32 40 62 58 94 22 38 41 77 47 120 5 36-6 65-34 88-12 10-25 18-37 27-21 14-39 31-53 52a87 87 0 0 0-6 88c8 17 18 32 30 47l95 125c32 41 68 79 110 109 17 12 33 22 52 27 7 2 13 4 20 4v8ZM1380 2l40 60c23 33 51 59 84 82 47 32 93 65 138 100 33 26 45 66 31 106-12 32-39 43-70 28-18-9-34-24-50-36-70-53-137-110-206-165a682 682 0 0 1-152-165c-2-3-5-6-5-10h8a625 625 0 0 0 172 183c46 36 89 75 136 110l82 63 11 7c33 19 64 3 69-34 5-38-12-64-39-87-43-33-86-64-131-93-42-28-74-65-100-107-9-14-19-27-26-42h8Z"/>
    <path d="M1150 2a1115 1115 0 0 0 113 138c32 32 67 61 101 91 60 52 123 100 183 152l44 39 20 14c28 16 55 11 76-15 13-16 21-34 26-53 8-25 13-51 14-78 2-28-7-52-33-68-23-15-48-24-71-39-56-37-111-74-158-123-17-18-32-37-45-58h8c10 17 23 32 36 46 53 57 115 101 182 139 16 10 33 16 49 25 34 17 45 45 41 81-4 32-10 63-21 93-8 22-19 42-38 57-21 16-42 15-64 3-14-7-27-17-38-28-41-41-87-76-132-112l-117-100A1068 1068 0 0 1 1142 2h8Z"/>
    <path d="m1404 2 48 64a1515 1515 0 0 0 209 157c21 14 39 31 44 57 7 40 0 79-21 113-10 15-23 26-41 28-11 1-21-1-30-5-17-8-32-19-45-32-36-32-75-60-112-90-50-42-101-83-150-126A832 832 0 0 1 1164 2h8c33 49 69 95 111 136 27 26 56 49 84 73 60 51 121 99 181 147 17 13 32 28 50 40l22 11c21 6 40 0 54-17 15-19 21-41 24-65l1-25c-1-32-17-55-43-72-47-30-92-64-137-96-41-28-76-63-103-104-6-9-14-17-18-28h6Zm698 2400c-12-24-30-43-50-60-27-23-59-37-91-52-23-10-46-20-69-33-50-27-57-80-17-121 32-32 71-37 109-14 19 11 35 26 50 42 34 37 69 74 107 108 30 28 60 56 81 91 7 13 14 25 16 39h-10c-7-29-24-53-44-74-18-21-39-39-60-57-24-23-46-47-69-71-20-23-40-47-65-65-21-14-43-23-70-16-33 8-60 41-60 75 0 18 8 32 22 44 21 18 46 28 71 40s52 22 76 36c36 22 64 51 85 88h-12ZM2 472c5 4 5 9 6 14l10 58c8 38 24 73 53 99 23 22 49 35 81 35 29 0 50-12 67-33 11-13 19-28 25-44 20-54 46-106 78-155 25-39 23-65-8-102-33-42-71-79-108-117-39-41-78-83-116-126C62 71 34 40 2 14V8c6 0 9 5 13 8a1822 1822 0 0 1 144 153l109 112c22 23 45 46 64 72 11 16 21 32 18 53-2 15-10 27-18 39-14 23-29 44-41 67-14 27-27 54-37 82-9 23-19 45-36 63a88 88 0 0 1-100 23c-49-18-79-55-97-103-8-21-11-44-15-67-1-4-1-8-4-12v-26Z"/>
    <path d="M2 136c4 1 7 4 10 7 34 38 71 72 108 107 25 23 48 49 62 80 11 24 15 48 9 73-5 23-13 45-26 64-4 5-8 10-14 13-9 4-16 3-24-3-9-8-15-19-21-30-19-36-37-73-60-106-10-16-23-29-36-42l-8-5v-12c8 2 13 8 18 13 27 24 44 54 62 85 13 21 24 44 40 64 13 16 26 16 38-1 26-33 29-83 8-120-17-30-41-55-67-78-32-29-63-59-91-91l-8-6v-12Z"/>
    <path d="M2 104c3 0 5 2 8 4 50 47 98 96 146 145 20 22 39 45 54 71 18 32 25 64 15 101-11 38-25 74-47 107-5 7-10 14-16 19-18 18-40 16-55-4-8-10-13-22-17-34-10-28-16-57-27-84-12-31-28-60-48-86-4-5-7-9-13-11v-10c9 3 14 11 20 18 23 29 40 62 53 97 10 25 15 52 26 76l7 15c15 25 37 26 56 4s31-48 41-75c7-20 13-40 15-60 3-36-13-66-32-94-21-29-46-54-71-79L9 118l-7-6v-8Z"/>
    <path d="M2 422c5 1 5 5 7 9 12 28 17 57 21 86 6 36 16 71 40 99 19 22 43 37 73 39 26 2 46-9 62-28 13-16 21-34 28-52a1752 1752 0 0 1 66-141c12-30 7-57-8-84-14-23-31-45-49-65-36-40-74-78-111-117-33-35-64-71-98-104L2 36v-6c7 2 12 7 17 12 40 38 77 78 114 119l64 67c30 32 60 63 86 98 9 12 17 24 23 38 11 22 11 44 3 67a1279 1279 0 0 0-75 161c-5 13-12 24-20 35-28 40-74 44-112 23-33-17-52-46-65-79-10-26-12-52-17-78-3-16-7-31-12-46-1-4-2-8-6-11v-14Zm1382 1980c-13-16-29-29-45-43-34-30-68-59-101-90-31-28-60-59-90-88l-124-116c-19-18-38-35-60-50-42-29-71-28-113 4-44 32-77 75-106 120-18 29-16 59-2 89 14 31 35 58 56 84a1084 1084 0 0 0 83 90h-6l-27-28c-39-39-75-80-103-127-7-10-12-22-16-33-11-29-6-57 11-82a573 573 0 0 1 121-130c32-22 64-22 96 0 20 13 38 29 55 45 59 54 116 109 173 165 49 49 101 96 154 142 18 15 37 30 52 48h-8Z"/>
    <path d="M2 52c13 7 22 18 32 28 49 47 95 98 142 146 27 28 53 57 75 88 12 16 22 33 29 52 9 24 8 48-2 72-14 38-32 74-49 111-7 16-13 32-22 47-13 22-30 38-57 41-21 2-39-5-56-17-20-16-33-37-41-60-9-25-12-51-18-77-5-28-13-54-27-79-2-3-3-6-6-8v-10c6 2 7 7 10 12 17 29 26 62 32 95 4 19 7 38 13 57 7 25 21 46 41 63 31 25 71 20 95-11 15-19 24-42 34-65 14-29 26-59 39-89 18-41 13-78-10-115-17-27-37-51-58-74-30-33-61-64-92-96-30-33-62-64-94-95-3-3-6-7-10-8v-8Z"/>
    <path d="M2 76c5 1 7 4 10 7 49 46 95 95 142 143 23 22 45 46 64 73 17 24 33 48 39 78 3 16 2 32-2 48-15 51-38 98-62 144-5 9-11 17-19 24a50 50 0 0 1-55 10c-22-9-35-27-44-48-8-17-12-36-16-54-7-37-16-73-35-106-6-11-11-23-22-31v-10c5 1 7 5 10 8 29 41 44 87 54 135 5 22 9 43 20 63 10 17 23 31 43 36 19 4 33-3 46-17a874 874 0 0 0 66-137c15-43 9-82-15-120-17-26-37-50-59-73-46-49-94-97-142-144-7-8-15-14-23-21v-8Zm2400 1918c-11-12-17-28-25-42-17-28-31-58-51-85-15-21-35-32-63-27-32 7-63 17-89 37a73 73 0 0 0-28 78c5 24 17 44 30 63 26 40 52 79 82 116 24 28 50 55 83 74 12 7 25 12 39 15 7 1 15 1 22-1v10c-30 2-55-11-79-27-38-28-68-63-96-101-25-34-50-69-72-106-11-19-19-39-20-62 0-30 13-52 36-68 32-22 67-35 105-44 20-4 37 2 49 20 13 18 23 38 34 58l43 82v10Zm-1034 408c-11-14-25-25-38-36-36-32-73-64-108-97-35-32-66-66-101-97l-87-75c-19-17-37-36-58-50-16-11-33-20-52-23-17-3-32 0-48 7-21 9-38 24-54 40-16 18-31 37-45 57-26 37-27 75-8 115 15 28 34 54 54 79a879 879 0 0 0 75 80h-6c-28-26-54-54-78-83-22-26-42-55-56-87a99 99 0 0 1 7-97c22-36 49-69 83-95 15-12 32-21 52-24 18-3 35 1 52 9 20 10 38 23 55 38l120 107 91 89c34 32 70 63 105 94 18 16 37 31 53 49h-8Zm1034-892c-8-7-13-17-20-26-25-33-53-64-87-89-16-13-34-23-55-28-47-10-86 31-88 70-1 28 8 52 22 76 37 65 77 129 117 192 7 12 16 22 26 31 11 10 25 13 39 13 16-1 31-7 46-11v10c-18 9-37 15-57 17-13 2-24-3-33-12-12-11-20-25-28-39-33-60-69-119-104-177-11-19-22-38-30-59-11-33-9-65 15-93 22-25 55-34 87-22 23 8 43 22 62 38 34 29 63 63 88 101v8Z"/>
    <path d="M1090 2402c-20-12-41-21-60-33-30-19-59-40-83-65-10-10-17-21-23-33-4-10-5-20-4-30 2-19 21-32 42-28 14 2 28 8 41 15 53 27 98 64 138 109 19 22 44 40 69 57l10 8h-20l-4-4c-33-18-57-45-81-73-36-41-80-73-130-94-8-3-17-5-26-5-19 1-29 14-26 33 3 15 12 28 22 39 35 36 75 64 121 84 13 6 27 10 38 20h-24ZM24 2l18 19c30 29 56 61 84 92l41 46c36 38 73 76 111 111 25 22 49 44 76 62 6 4 13 8 20 10 14 5 27 3 39-6 15-11 27-26 38-40 25-31 51-61 73-94 10-15 18-31 23-48 11-35 3-68-14-100-10-18-22-34-33-52h8c9 18 22 33 31 50 15 28 26 57 19 90-4 21-14 41-25 59-18 28-40 54-61 80-16 20-30 42-49 61l-6 6c-16 14-28 15-48 5-16-8-29-20-43-32-54-46-104-97-153-147-30-31-57-63-84-95A982 982 0 0 0 16 2h8Z"/>
    <path d="M1352 2402c-15-17-33-30-49-45-27-24-55-47-81-72-64-61-128-122-198-177-17-13-32-27-50-39-46-31-89-27-130 10-21 20-39 42-53 66a99 99 0 0 0-7 90c14 36 37 67 62 96 21 23 43 46 66 66l4 5h-8l-20-19c-36-36-71-74-96-118-10-17-17-35-21-54-3-19-1-37 7-54 17-38 42-70 75-94 40-30 77-30 121-3 20 14 38 31 57 46l81 68c9 7 18 15 26 24l72 69c33 31 68 61 102 91 16 14 33 28 48 44h-8Zm1050-744c-16 16-34 15-54 10-13-4-26-12-36-21-46-42-80-93-101-151-5-12-6-24-5-37 1-24 23-42 47-38 16 2 29 9 42 18 25 19 45 43 62 68 18 25 34 49 45 77v30a402 402 0 0 0-88-146c-15-15-31-29-53-34-25-6-44 9-45 34 0 12 3 25 8 37 18 46 44 86 80 121 11 12 24 22 40 28 7 3 14 4 21 4 20 0 28-6 35-25l2-3v28Z"/>
    <path d="M1336 2402c-17-17-35-32-53-47-35-31-70-61-103-94-47-47-98-89-151-128-19-14-37-30-58-43-44-27-85-22-122 14-16 15-29 32-39 51-17 31-15 63-2 95 13 31 33 57 55 82 20 23 43 44 66 65l5 5h-8c-21-19-41-39-60-60-26-28-49-57-65-93-16-37-14-72 8-106 13-22 29-41 49-56 33-26 72-29 108-8 25 15 46 33 69 50a1452 1452 0 0 1 163 142c35 34 71 64 107 95l39 36h-8Zm1066-368-46-74c-14-19-28-37-44-54-32-31-83-26-110-8-23 15-31 40-24 70a566 566 0 0 0 127 188c10 9 19 17 30 23 21 12 43 19 67 11v10c-23 6-43 1-63-10-30-17-54-41-75-67-33-41-63-84-86-131-9-17-15-36-12-56 5-32 26-49 56-58 46-14 79-3 110 35 25 31 45 66 65 99l5 8v14Z"/>
    <path d="M2402 2152c-14 15-35 19-56 10-19-8-36-21-50-36-35-36-64-78-85-124-7-14-12-28-11-44 3-33 29-48 60-45 22 2 40 12 55 27 39 38 68 83 87 134v30l-10-32c-16-44-41-81-72-114a99 99 0 0 0-53-33c-19-3-36-1-48 16-9 12-8 26-5 40 3 17 12 33 20 48 17 31 38 59 62 85 10 11 22 21 34 29 10 7 20 10 31 12 17 2 33-7 38-24 1-2 1-5 3-7v28Zm0-606c-14-20-26-40-41-59-19-25-40-49-66-68-14-11-29-20-47-23-35-7-66 17-68 54-1 19 5 36 13 53 30 61 67 119 114 169 26 28 58 38 95 26v10c-35 14-66 5-93-20-18-16-32-36-46-56-28-39-54-79-75-122-9-18-16-36-16-57-1-51 44-82 92-61 26 11 46 29 66 48 28 28 50 61 72 94v12Zm-1084 856c-16-16-33-30-50-44-31-27-62-53-91-82-48-47-100-89-155-128-16-11-32-24-50-34-48-28-88-18-124 24-23 27-36 57-27 94 5 23 16 44 30 63a524 524 0 0 0 103 107h-8l-45-41c-36-34-68-71-84-119-10-29-8-58 9-85 12-21 27-39 48-52 25-16 51-19 78-8 18 6 34 16 48 27 35 26 70 50 103 77 24 20 48 41 70 63 37 36 76 70 115 103 13 11 26 22 38 35h-8Z"/>
    <path d="M1032 2402c-14-12-31-21-46-32-30-23-60-46-83-77-9-13-16-27-19-43-5-24 0-46 20-63 19-16 40-16 63-8s43 22 64 34c48 29 91 66 131 106 26 26 56 50 86 73l12 10h-12c-11-12-25-21-38-31-30-24-58-51-86-77-43-42-92-74-145-101-12-6-24-9-38-9-30-1-53 29-50 58 3 26 17 47 33 65 24 26 51 46 79 66 14 10 30 18 43 29h-14Z"/>
    <path d="M968 2402c-9-10-20-17-30-26-30-26-59-53-81-87-8-13-14-26-19-40-13-37-4-70 21-99 10-12 22-22 38-28 27-11 54-6 77 9 57 34 111 71 160 116 53 49 105 98 161 143 4 4 8 7 11 12h-8c-10-12-23-20-34-30-28-24-57-47-83-73-60-61-127-112-200-157-11-7-23-12-36-15-32-8-58 4-79 27-34 38-33 78-11 120a645 645 0 0 0 119 124l4 4h-10ZM48 2c8 14 21 23 31 35 31 37 60 74 93 109 28 30 56 60 87 87 23 20 47 40 73 56 15 9 31 17 50 17 20 0 36-10 49-23 30-30 59-61 80-99 23-39 25-80 5-121-10-22-23-41-36-61h8c7 14 17 26 24 39 8 14 15 28 20 44 11 38 3 73-17 107a563 563 0 0 1-92 109 62 62 0 0 1-69 8c-28-13-52-32-75-51-46-40-89-83-129-128C115 90 83 48 45 10c-2-2-4-4-5-8h8Z"/>
    <path d="M998 2402c-33-24-66-49-94-79-16-17-30-36-40-58-18-40-9-79 23-106 20-15 42-19 65-12 23 5 42 18 61 30a915 915 0 0 1 150 117c34 34 70 64 107 94l16 14h-10c-12-13-26-23-39-34-32-26-62-53-91-81-28-27-57-51-89-72-28-19-55-39-86-53-16-8-33-12-50-8-44 9-69 57-53 101 13 35 36 62 63 86 23 21 47 39 72 56l5 5h-10ZM2 858c5 1 7 5 10 9 16 22 32 44 52 62 15 13 31 23 51 27 38 8 87-27 83-74-2-14-9-25-20-34-23-18-50-28-77-39-33-12-67-23-99-37v-16c45 27 95 41 143 62 14 6 28 12 40 21 22 16 30 36 23 62a83 83 0 0 1-128 51c-26-16-45-40-64-63-4-6-8-12-14-17v-14ZM68 2c36 43 71 88 108 130 43 48 89 94 145 128 10 6 21 11 33 14 23 7 44 4 63-11 34-27 62-58 80-97 19-43 11-83-10-122-8-14-18-27-25-42h6c13 20 26 40 36 62 18 43 14 83-9 122-20 32-44 60-74 83-25 20-52 21-81 8-31-14-58-35-83-57-47-41-89-87-128-135L67 10c-2-2-5-4-5-8h6Z"/>
    <path d="M88 2c30 36 56 74 87 108 38 44 78 86 127 118 12 7 24 14 37 18 27 10 52 7 75-11 20-16 38-35 52-57 25-40 25-80 6-122l-22-41c-3-4-6-8-6-13h6c9 18 20 34 29 53 6 14 11 29 13 45 3 23-1 44-11 65-16 34-40 62-72 83a72 72 0 0 1-64 7c-30-9-54-26-78-45-49-40-92-87-131-138L85 8l-3-6h6Z"/>
    <path d="M108 2c21 28 42 57 64 84 32 41 67 78 110 109 16 11 33 21 53 28 24 7 47 5 68-10 32-24 55-54 60-94 2-25-4-48-15-70-7-16-16-31-24-47h6c13 21 25 43 33 66 16 46 6 87-26 123-10 13-21 24-35 32-32 19-63 13-92-3-43-23-77-56-109-91-34-37-63-77-92-116-3-3-6-7-7-11h6Zm2294 982c-23 9-43 25-61 41l-82 73c-10 9-19 19-26 30a45 45 0 0 0-3 49c10 19 24 35 38 51 41 47 84 91 128 135l6 5v6c-16-13-30-29-45-44l-86-89c-20-20-40-41-55-65-9-16-9-31 2-47 12-16 27-29 42-42l72-64c21-18 43-37 70-47v8Z"/>
    <path d="M128 2c23 32 46 65 72 96 30 35 62 67 103 89 24 14 50 22 77 9s46-35 55-64c8-25 5-49-3-73-6-16-14-32-22-47-2-3-4-6-4-10h6c8 17 18 33 24 50a112 112 0 0 1-57 153c-16 8-34 6-51 1-29-9-52-26-75-45-44-38-79-84-113-132-6-9-14-17-18-27h6Z"/>
    <path d="M150 2c11 21 26 39 40 58 20 27 42 53 68 75 17 14 35 27 55 35 43 16 85-6 98-50 6-20 4-40-2-60-6-21-16-39-25-58h8l20 44c8 19 12 39 10 60-2 35-30 70-65 77-18 4-34-1-50-8-34-16-61-40-86-67-28-31-52-64-75-99l-4-7h8Zm1342 0c7 13 19 22 30 32 20 19 40 37 63 54 20 14 42 27 66 35 57 18 94 4 129-37 27-31 54-61 88-84h12c-7 8-18 13-26 19-24 19-45 41-64 65-12 15-24 29-41 39-30 17-60 16-92 7-34-10-63-29-90-50s-52-45-76-70c-3-3-6-5-7-10h8ZM828 2402c-24-26-50-51-75-76a593 593 0 0 0-80-67c-27-13-48-11-69 9-34 31-64 66-87 106l-11 28h-8c11-33 30-61 53-88l32-38c8-9 17-17 26-24 21-15 41-15 63-3s40 29 57 45l103 103 4 5h-8Z"/>
    <path d="M370 2c8 19 18 37 23 56 5 23 5 45-6 65a60 60 0 0 1-72 29c-21-6-39-17-55-32-39-34-69-74-96-118h8c27 44 59 85 99 118 14 11 29 19 46 24 31 8 61-10 68-42 5-18 2-35-3-52s-13-32-20-48h8Zm2032 1006a404 404 0 0 0-125 108c-22 28-20 56-4 85 15 27 35 50 55 74 23 27 49 52 74 79v6c-8-6-15-14-22-21-32-35-65-68-94-106-11-14-21-30-29-47-10-26-6-50 10-70 35-43 74-81 122-109l13-7v8Z"/>
    <path d="M344 2c9 17 15 36 19 55 2 7 2 15 1 22-6 37-35 46-64 36-21-8-37-21-52-37-19-19-36-40-51-63l-7-13h8c14 22 29 43 47 61 19 19 37 38 65 43 21 4 37-6 42-27 4-18-1-34-6-51L336 2h8Zm-22 2400c-12-18-27-35-42-51l-76-78c-39-40-77-81-114-124-28-30-56-61-88-87v-6c6 0 9 5 13 8a1826 1826 0 0 1 144 153l108 112c20 20 40 40 57 62l8 11h-10ZM1514 2c35 37 72 73 119 93 21 10 43 14 66 11 16-2 29-8 42-16 12-9 23-19 33-30 12-14 25-27 39-39 7-6 14-12 19-19h12c-19 18-39 35-57 54l-31 32c-34 30-73 33-115 18-28-11-53-27-76-46l-52-48c-3-3-6-5-7-10h8Zm558 0 31 32c25 25 47 53 71 79l41 47c36 37 73 75 111 110 25 22 49 44 76 62v12c-57-45-109-97-160-149-38-38-73-79-108-119a893 893 0 0 0-70-74h8ZM812 2402c-19-22-41-41-63-61-15-14-31-27-49-39l-26-14c-26-11-49-5-69 13-24 21-46 44-62 72l-13 29h-8c17-46 47-82 84-113 22-18 47-20 72-7 24 11 43 27 62 43 26 23 52 47 76 72l4 5h-8Zm1232 0c-44-50-99-80-165-89-25-4-50 0-70 18-9 8-16 17-22 27-8 14-14 29-19 44h-8c6-18 13-35 22-51 14-24 31-43 60-47 19-2 38 0 56 4a286 286 0 0 1 154 94h-8ZM2 2184c4 1 7 4 10 7 34 38 71 72 108 107 26 24 48 50 63 82 3 7 7 14 7 22h-10c-8-30-25-54-45-76-18-20-39-38-59-56-24-21-45-44-66-68l-8-6v-12Zm0-902a385 385 0 0 0 79-106c8-19 5-36-5-53-10-16-22-30-34-43l-30-32c-3-4-5-7-10-8v-8a816 816 0 0 1 84 88c15 20 18 40 4 62a632 632 0 0 1-79 102c-2 3-5 6-9 6v-8Zm0 534c24-26 51-50 73-78 25-31 26-66 15-102-8-28-23-53-41-76l-42-57-5-5v-10l5 4c20 30 44 56 63 87 11 17 20 36 27 55 15 48 6 90-29 125-19 19-39 38-56 58-3 3-6 7-10 7v-8Zm2400-784c-36 19-65 46-90 77-29 35-31 67-9 106 17 30 38 56 61 82l38 41v6c-14-11-25-25-37-39-25-27-49-55-67-86-7-11-11-22-15-34-8-28 0-52 17-73 23-29 49-55 81-76 6-4 13-8 21-10v6ZM292 2402c-10-21-25-38-40-56-16-20-34-39-52-58l-94-99-73-77-31-28v-6c7 2 11 7 16 11 40 38 77 79 115 120l65 68c33 36 68 70 95 112 3 4 6 8 7 13h-8Z"/>
    <path d="M2 2100c13 7 22 18 32 28 49 47 95 98 142 147 27 27 53 56 75 87 9 13 18 25 23 40h-8c-7-20-20-37-33-53-21-27-44-52-67-76-50-52-99-104-151-155-4-3-7-8-13-10v-8ZM2096 2c8 13 20 22 29 34 32 37 62 75 95 110 45 49 91 95 145 133 11 8 23 16 37 21v8c-12-3-22-10-32-17-48-33-88-73-128-114-31-31-59-65-87-98-19-23-38-45-59-66-3-3-7-6-8-11h8ZM2 2152c3 0 5 2 8 4 50 47 98 96 146 145 21 22 40 46 55 73 4 9 10 17 11 28h-8c-8-26-23-48-40-69-24-30-53-57-80-84l-86-84-6-5v-8Z"/>
    <path d="M2 2124c5 1 7 4 10 7 46 43 89 89 133 133 25 25 49 51 70 80 14 18 26 37 35 58h-8c-14-34-36-62-60-89-50-55-104-108-157-160-7-8-15-14-23-21v-8ZM308 2c5 11 8 22 8 34 0 21-13 30-33 22-17-8-30-21-42-35-6-6-11-13-15-21h16c9 14 20 25 34 33 13 6 23-1 21-15l-3-18h14Zm2048 0c5 11 8 22 8 34 0 21-13 30-33 22-17-8-30-21-42-35-6-6-11-13-15-21h16c9 14 20 25 34 33 13 6 23-1 21-15l-3-18h14ZM794 2402c-32-33-65-64-107-83-25-12-50-11-72 7-26 20-47 44-59 76h-8c14-39 40-70 75-91 18-11 37-10 57-3 21 7 39 20 56 33 20 17 40 34 59 53l7 8h-8ZM2116 2l108 130c43 48 88 93 144 127 11 7 22 12 34 15v8c-14-4-27-11-40-18-27-18-52-38-75-60-50-46-93-97-135-150l-37-44c-2-2-5-4-5-8h6Zm-580 0c24 24 49 48 79 64 28 15 58 23 90 14 11-3 20-8 29-15 25-18 48-41 70-63h8c0 4-3 6-5 8-21 18-40 39-61 56-31 25-65 31-102 20-30-10-55-27-78-47-13-12-27-23-38-37h8Zm866 1056a240 240 0 0 0-73 66 83 83 0 0 0-8 85c11 28 29 52 48 75l33 38v6a387 387 0 0 1-83-108c-20-39-18-75 10-109 18-22 38-42 63-57 3-1 6-4 10-4v8ZM2 1786c9-3 13-12 19-19 16-16 31-33 42-54 12-22 14-46 9-70-8-36-29-66-51-95-6-7-11-16-19-22v-8c2 0 4 1 5 3 24 30 50 60 64 97 8 20 13 41 10 63-3 23-13 43-27 60-14 18-30 34-45 51l-7 4v-10Z"/>
    <path d="M2136 2c30 36 56 74 87 109 38 43 78 85 127 117 16 10 33 19 52 22v8c-33-8-61-27-87-48-49-40-92-88-131-138l-51-64-3-6h6Zm-118 2400c-40-42-89-66-148-63-30 1-52 18-68 42l-12 21h-8c7-16 16-32 29-45 21-21 46-29 74-27 56 5 102 30 141 70l2 2h-10Z"/>
    <path d="M2156 2c21 28 42 57 64 84 32 41 68 79 110 109 17 12 33 22 52 27 7 2 13 4 20 4v8c-16-1-31-7-44-14-43-24-77-56-109-91-34-37-63-77-92-116-3-3-6-7-7-11h6Zm246 102c-14 15-35 19-56 10-19-8-35-21-50-35-20-20-37-43-52-66l-6-11h8c14 22 30 43 48 62 17 18 35 35 61 42 19 5 41-5 45-26l2-4v28Z"/>
    <path d="M2402 210c-25 0-46-11-66-23-30-19-55-44-79-70-30-33-56-70-82-106l-5-9h6c23 33 46 66 72 96 30 35 62 67 102 89 16 9 33 15 52 15v8Z"/>
    <path d="M2402 184c-30 2-55-11-78-27-41-29-72-67-101-107-12-16-24-31-33-48h8c12 21 26 40 41 59 20 27 41 52 67 74 21 18 44 34 72 39 8 2 16 3 24 0v10ZM1560 2c23 23 48 43 80 53 28 9 56 6 82-9 19-13 37-28 54-44h8c-1 6-7 8-10 12-13 12-26 23-40 33-30 21-63 27-98 14-33-12-61-33-84-59h8Z"/>
    <path d="M2402 152c-23 6-43 1-63-10-31-17-55-43-77-70-19-22-36-45-50-70h8c27 44 59 85 99 118 9 7 18 13 29 18 17 8 35 10 54 4v10ZM776 2402c-20-18-41-35-65-48-47-26-76-18-110 21-7 8-12 17-17 27h-8c15-35 38-62 78-71 13-3 25 1 37 5 30 11 54 31 78 52 5 4 11 8 15 14h-8Zm1626-1318c-24 14-42 33-56 57a80 80 0 0 0-6 65c8 27 23 49 40 71l22 27v6a320 320 0 0 1-69-103c-8-24-7-48 6-70 16-26 36-47 63-61v8Zm0-444c-16 35-26 72-31 111-4 29 6 53 31 69v10c-10-6-21-12-29-21a53 53 0 0 1-13-41c5-47 17-92 38-134l4-6v12Zm0 1154c-5 6-11 11-15 18-11 19-10 38-7 58 4 25 13 48 22 72v14c-17-35-32-70-36-109-2-23 7-42 24-57 3-4 8-7 12-10v14ZM2 1252l4-3c18-22 36-45 42-74 3-14 4-29-1-43-9-26-24-49-45-68v-8c4 0 6 3 8 5 13 15 26 31 36 48 17 30 18 60 2 90-10 22-25 42-41 60-1 2-3 3-5 3v-10Zm0 506c28-29 52-60 50-104-1-13-4-26-9-38-10-24-24-45-41-64v-8l6 4c16 20 31 42 41 66 18 41 13 79-13 114-10 14-20 29-34 40v-10ZM572 2c12 15 26 27 43 36 21 12 43 11 65 0 17-9 32-22 46-36h8c-2 7-7 10-12 14-12 12-25 22-40 30a68 68 0 0 1-76-3c-15-10-27-23-39-36-2-1-2-3-3-5h8Zm1420 2400c-13-15-30-23-47-30-19-8-40-13-62-11-29 3-52 17-69 41h-8c22-37 56-52 98-48 35 4 66 20 94 43l4 5h-10Z"/>
    <path d="M2402 1112c-10 9-19 18-27 29a79 79 0 0 0-11 78c9 23 22 44 38 63v8c-18-18-30-39-41-61-6-14-10-28-10-44 0-15 4-29 12-41 11-16 23-30 39-40v8ZM750 2402c-24-20-50-37-83-34-22 2-37 16-49 34h-10c8-22 40-47 68-44 33 4 60 22 84 44h-10ZM1586 2c11 9 23 17 36 23 37 18 72 13 105-9 6-4 12-8 17-14h12c-21 19-43 34-71 40-29 7-55-3-79-18-11-6-21-12-28-22h8ZM2 1726c23-28 33-59 24-95-4-18-11-35-24-49v-10l6 4c36 52 41 102 1 155-2 2-4 5-7 5v-10Zm0-508c24-32 29-66 13-103-3-8-6-16-13-21v-10c3 0 5 3 7 5 31 47 31 87 0 134-2 2-4 5-7 5v-10Zm1960 1184c-34-21-68-26-105-8-4 2-8 4-11 8h-12c17-17 37-26 60-26 30 0 57 7 80 26h-12Z"/>
    <path d="M2402 1148c-24 28-24 58-9 90l9 18v10c-17-25-30-50-26-82 2-18 11-34 26-46v10ZM54 2402c-13-24-30-44-52-60v-12c5 1 9 5 13 8 20 18 38 40 51 64H54ZM700 2a74 74 0 0 1-80 17c-9-4-19-8-26-17h12c27 18 54 18 82 0h12Zm1018 0c-5 6-12 8-19 10-28 12-56 8-83-5l-6-5h14c27 13 53 13 80 0h14Zm684 782c-10-11-11-25-11-38-1-23 3-45 11-66v26c-3 19-5 39 0 58v20ZM2 1610c2 1 4 2 4 4 11 26 11 51 1 77l-5 5v-20c6-15 6-31 0-46v-20Zm648 792c10-10 23-13 36-12 15 0 28 4 40 12h-20c-11-4-23-5-34 0h-22ZM2402 56l-18-54h8c5 7 7 16 10 24v30ZM2 2370c9 3 13 10 19 17l11 15H22c-5-9-10-18-20-22v-10Zm0-1236c7 5 5 13 5 20s2 15-5 20v-40Zm1882 1268c15-6 29-5 44 0h-44ZM2 204c6 7 6 12 0 18v-18Zm0 2048c6 7 6 12 0 18v-18Zm1466-342c-2-24 9-44 22-63 19-26 42-49 63-73 24-27 46-55 65-86 15-25 11-48-6-70-17-24-36-46-54-69-19-24-38-47-52-74-25-47-20-92 11-135 17-23 36-45 55-65l47-51 18-16c16-11 33-13 51-5 13 6 23 14 33 22 47 41 89 87 123 139l4 8c18 32 16 63-6 93-37 49-74 98-118 142-7 8-15 16-21 25-12 18-11 35 0 53a2991 2991 0 0 0 147 166l41 46c18 24 17 37-4 59-22 24-49 44-72 67l-45 43c-13 11-26 22-39 31-38 26-77 24-116 3-21-11-39-26-57-43-25-22-48-45-67-74-14-22-24-45-23-73Zm207 198c14 1 30-5 46-14 24-15 44-34 65-53l56-52c13-13 27-25 37-41 10-15 11-30 1-46-2-5-6-9-9-14-14-20-31-37-48-55l-106-115c-12-14-24-27-34-42s-10-24 0-38c9-12 19-21 29-31 46-43 84-92 121-143 24-33 23-65 3-99a548 548 0 0 0-129-141c-10-7-21-13-34-14-20-2-35 8-48 20-22 20-42 43-62 64-16 18-31 37-44 57-26 39-28 79-7 120 13 28 32 51 51 75 24 29 50 56 73 86 14 19 14 29 0 48-31 43-63 84-99 123-17 18-33 36-46 57a93 93 0 0 0-15 69c5 23 15 44 29 62 24 33 54 61 87 86 23 18 48 31 83 31Z"/>
    <path d="M1918 951c34 0 59 14 81 32 37 28 68 63 101 97a538 538 0 0 1 35 42c14 19 17 38 4 59-18 30-39 57-62 83-27 31-56 60-78 95-7 10-13 21-18 31-10 22-9 42 3 63 17 28 39 54 60 80 20 25 40 50 53 81 18 41 13 79-13 115-13 18-27 35-43 51-23 24-45 48-69 71-14 13-29 24-50 23-13 0-26-5-37-13a620 620 0 0 1-136-138c-7-10-13-21-17-32-12-24-9-48 5-70 15-23 34-44 51-66 25-34 55-65 82-98 20-25 22-46 5-73-19-31-43-57-66-84-32-36-65-71-95-109l-10-13c-13-21-12-38 4-57 14-17 31-32 47-48 24-22 46-46 69-69 15-14 31-28 49-39 15-9 31-14 45-14Zm-184 709c0 21 7 37 17 52 27 43 63 78 99 112 14 13 30 25 47 34 16 7 32 8 49 1l19-13c31-27 59-58 87-88 11-12 21-25 30-39 13-21 20-44 18-69-3-20-10-39-20-56-20-35-48-65-73-96-13-16-26-32-37-50a51 51 0 0 1-2-55l15-24c25-41 59-75 91-111 18-22 35-45 49-70 14-24 14-47-3-70a679 679 0 0 0-138-139c-43-27-82-26-122 4-21 17-40 35-59 55l-68 68c-8 8-15 17-20 28-5 10-6 20-2 30 4 14 12 26 21 37 40 50 84 96 125 145 14 17 28 33 38 53 7 15 6 29-2 43l-14 18c-21 25-45 48-65 73-22 28-45 55-65 84-9 14-16 28-15 43Zm-842-191c28 0 51 9 72 24 44 30 81 68 109 113 14 23 21 48 17 75-1 14-6 26-14 38-8 13-18 26-29 38l-84 83c-7 7-16 14-25 20a58 58 0 0 1-64 4c-19-10-37-23-53-36-35-29-68-60-99-92-14-13-27-28-37-44-14-21-14-36 0-56 5-7 10-13 16-18l96-96c15-15 31-29 49-40 15-8 30-13 46-13Zm192 198c-1-20-6-38-16-55a359 359 0 0 0-128-125 94 94 0 0 0-98 7c-14 10-27 21-39 32l-85 86c-8 7-15 16-21 25a47 47 0 0 0-2 52l13 20a792 792 0 0 0 163 144c25 13 48 11 71-6l33-29c28-27 56-52 80-82 16-20 29-42 29-69Zm371-32c0 33-15 58-41 76-24 17-51 26-80 29-30 3-52-11-70-34-19-25-34-53-51-80-32-49-63-99-98-146-20-27-47-46-74-66-59-41-120-81-181-119-9-5-16-11-24-17a60 60 0 0 1-20-59c5-28 13-54 30-77 23-31 62-43 98-32 30 9 56 26 81 43 42 26 83 55 126 79 29 16 59 29 90 41 30 12 53 31 66 61 27 57 55 113 89 167 17 28 34 56 48 86 7 17 11 32 11 48Zm-627-411c-2 23 10 40 26 54 13 11 26 21 40 30 58 36 114 76 170 115 24 16 45 35 61 58 29 42 56 85 84 127 19 29 36 59 58 87 16 20 36 35 64 34s54-8 78-24c11-9 21-19 28-31 12-23 13-46 5-70-8-25-21-48-34-71-35-57-70-115-100-175-19-39-48-66-87-82-38-16-73-36-107-58l-116-74c-17-11-35-21-56-26-31-8-58-2-80 21-24 24-31 53-34 85Zm-97 87c-6 41-19 80-44 114a84 84 0 0 1-99 26c-17-6-34-16-49-26-37-24-74-47-107-75-38-32-73-67-95-113-13-29-15-57 3-85 23-33 59-48 98-39 26 6 50 19 72 33 57 34 113 67 171 99 12 6 22 14 32 23 12 11 18 26 18 43Zm-13 6c1-19-7-34-20-47-10-11-23-19-35-26-53-30-104-62-156-93-22-13-44-25-69-30-38-9-67 5-90 35-18 25-17 52-4 79 20 45 55 79 92 111 31 26 65 47 99 69 20 13 40 25 63 31 35 9 64-2 85-30 22-29 32-63 35-99Zm658-151c0-19 13-36 31-40 22-5 41 14 36 36-4 17-18 31-35 33-19 2-32-10-32-29Zm40-8c0-3-2-5-6-5-3 1-5 3-5 7s2 5 5 5c4 0 6-3 6-7ZM919 42c22 1 42 8 60 20 51 35 103 71 149 113 31 27 60 56 90 83l82 73c62 51 116 110 154 182a475 475 0 0 0 261 225l70 25c28 10 32 17 23 46-13 39-28 78-48 114-14 24-32 43-56 57-36 22-70 15-103-6-20-12-37-28-55-43-37-30-74-60-118-80-31-14-63-23-97-21-28 2-49 13-64 38-9 16-16 33-24 49-15 26-34 47-60 61-57 30-123-14-127-72-1-23 9-42 22-59 20-27 48-42 77-56l19-9c28-15 38-40 36-70-1-41-16-78-35-113-25-46-55-88-88-128-15-18-33-34-52-48-37-29-75-57-110-88-40-36-78-73-101-123-8-17-13-36-13-55 1-31 16-55 36-77 17-19 37-34 64-37l8-1Zm147 861c0 7 0 15 3 22 15 41 62 69 108 46 25-12 43-31 56-54 9-18 16-37 24-55 13-29 36-41 66-42 44-3 83 11 121 31 42 23 78 52 114 82 20 17 40 33 64 44 14 6 30 10 46 8 31-5 53-23 71-47 27-33 41-73 48-115 5-26-3-41-27-53l-39-20c-54-23-106-50-151-88-47-38-87-81-115-135-39-78-96-141-163-197-36-29-72-60-105-93-46-45-94-88-147-124-24-16-46-35-71-49-34-18-67-19-99 4l-19 18c-28 32-42 68-27 111 7 18 16 35 27 51 26 37 60 68 95 98 31 26 65 50 97 75 13 11 27 22 38 35 20 20 36 44 53 67 28 40 55 82 72 129 10 27 16 54 14 83-1 23-11 41-32 52l-24 12c-27 11-53 22-72 44-15 17-27 36-26 60Zm1118 63c-36 1-57-12-75-28-26-23-47-52-68-79-27-36-57-68-96-91-22-13-40-30-49-56-10-29-12-58 0-88s32-33 52-6c17 22 31 46 44 71 24 44 59 73 105 91 39 15 79 29 117 48 9 4 18 10 26 17 16 13 21 30 18 50-6 39-44 72-74 71Zm62-75c0-19-7-32-19-42-13-10-27-18-42-25-33-15-68-27-103-39-41-14-74-38-94-79-7-14-16-27-25-41-7-11-15-23-26-31-10-7-19-6-25 5-3 3-4 7-5 11-7 31-1 59 21 83 13 14 29 24 45 35 17 11 32 24 44 40l33 45c19 27 38 54 63 76 21 20 45 32 75 27 32-6 58-37 58-65Zm-612 1462c0 22-11 31-29 26-6-1-11-4-17-7-45-30-88-62-126-101-28-30-62-52-97-73-56-33-100-78-136-132-14-22-29-44-40-68-6-13-11-26-7-41 4-20 21-31 41-28 22 3 39 15 54 29 22 22 41 46 59 71 25 35 44 74 65 112 12 23 26 45 47 62 12 10 26 18 40 25 47 24 91 54 129 91 10 11 17 22 17 34Zm-440-380c1 11 5 23 11 34 27 51 60 98 104 136 20 18 41 33 67 41 6 3 14 7 19 1 6-6 2-13 0-20a579 579 0 0 0-119-193 98 98 0 0 0-46-29c-20-4-36 8-36 30Zm407 382c7 0 10-4 9-11-1-6-5-11-9-16-26-28-56-50-90-67-5-3-11-5-17-6-8-1-11 2-8 9l11 16c26 28 57 51 90 70 5 3 9 5 14 5ZM622 961c-24 0-46-9-67-21-33-18-63-39-95-58-28-17-57-31-87-44-13-5-25-11-36-19a53 53 0 0 1-25-51c5-47 17-92 38-134 7-14 17-26 29-36 22-18 52-19 80-3 26 14 47 34 71 51 43 31 85 63 122 101 22 22 42 46 57 73 13 26 22 52 8 79-20 38-51 61-95 62ZM420 592c-16-1-30 6-42 17-15 15-26 33-33 53-11 28-18 58-22 88-4 34 7 56 37 73l21 10c39 17 76 39 112 62 25 16 50 32 77 45 22 10 44 15 68 12 62-10 94-74 65-129-17-31-41-58-66-82-33-32-69-60-106-87-24-17-45-36-71-50-12-7-25-12-40-12Zm1473 1597c0-31 32-52 64-44 17 5 31 14 43 27 22 22 40 47 51 76 9 21 1 31-21 27-38-5-74-16-106-38-12-8-23-18-28-33l-3-15Zm110 65h7c13-1 18-7 15-20l-2-8c-7-18-18-33-31-46-13-14-29-25-51-24-21 2-34 17-33 38 1 11 7 20 14 27 23 20 50 31 81 33Zm275-768c5 0 12 2 18 6 30 23 50 52 59 88l1 8c0 14-11 21-24 17-9-3-17-8-23-14-24-21-40-47-48-78-1-5-2-11 0-16 2-8 7-11 17-11Zm50 77c0-13-18-38-31-43-6-2-11 1-9 9 3 18 13 32 28 41 8 5 12 3 12-7Zm36 519c0 23-14 32-33 24a172 172 0 0 1-80-108l-1-11c1-15 13-23 28-20s26 12 37 22c24 24 41 51 48 85l1 8Zm-19-13v-5c-5-25-19-46-38-63-5-5-11-9-18-11-12-4-19 1-19 13 0 11 4 21 9 31 11 20 24 36 43 48 14 8 24 2 23-13ZM119 925c-21-1-36-13-49-28a69 69 0 0 1-19-38c-2-13 4-21 16-23 20-4 38 3 55 11 9 5 17 10 23 17 11 12 17 24 10 39-6 16-19 21-36 22Zm-26-71c-13 1-20 7-18 17 3 16 22 35 39 36 9 1 16-2 21-10s2-15-3-21a55 55 0 0 0-39-22Zm2149-471c-2 29-11 59-30 86-13 17-28 18-43 1-12-14-19-32-28-49-14-26-28-51-44-76-22-34-52-60-88-79-30-16-61-29-91-43-13-7-26-13-38-21-30-21-39-47-25-83 16-43 70-82 130-45 18 11 34 26 48 41 35 37 70 75 108 109 30 28 60 55 81 91 12 20 20 41 20 68Zm-12-7c1-19-5-37-14-53-17-31-41-55-67-78-41-36-79-76-115-117-14-16-28-30-45-42-43-30-91-21-118 23a62 62 0 0 0 5 76c10 10 22 17 34 24 26 14 52 25 79 37 34 15 65 33 91 61 20 21 35 47 50 73 13 21 24 44 40 64 13 16 26 16 38 0 15-20 21-44 22-68ZM30 1925c-1-27 10-47 24-66 16-22 39-39 62-54l20-16c32-27 39-61 30-101-9-41-28-77-50-113l-48-76c-7-12-12-23-17-36-11-32-6-63 13-92 12-19 29-35 48-48 29-19 59-16 90-2 25 12 48 28 69 47 57 49 104 108 149 169l35 47 22 35c22 40 16 78-9 114-15 22-34 38-54 53l-24 21a95 95 0 0 0-27 83c5 39 20 74 38 108 16 32 37 62 53 95 8 18 15 37 16 57 3 35-11 64-33 90-8 9-17 19-28 26a78 78 0 0 1-72 13c-28-8-51-25-73-42-40-32-74-70-105-110l-96-125c-12-16-22-32-29-51-3-9-5-19-4-26Zm452-257c0-15-4-28-10-42-13-29-34-53-52-78-43-60-88-117-142-167-23-21-48-40-78-54-23-10-48-15-73-3-31 15-54 39-67 71-13 34-5 66 12 97 16 29 35 57 52 85 22 37 41 74 51 116 7 33 4 63-19 89-10 12-23 21-36 30-20 13-39 27-55 46a99 99 0 0 0-27 73c2 20 11 38 22 54 18 29 41 54 61 82 40 55 81 110 134 154 24 21 49 40 80 50 25 7 49 4 70-12 9-6 16-13 23-20 35-39 45-82 25-131-13-33-34-63-51-95-19-34-36-68-44-106-4-18-6-35-3-53 3-27 20-47 40-63 18-15 37-28 52-45 20-22 35-47 35-78Z"/>
    <path d="M1049 636c-1 28-14 51-31 72-21 27-46 48-74 68a92 92 0 0 1-99 7c-27-13-52-30-75-49a1343 1343 0 0 1-205-215c-16-22-35-42-50-66-13-23-22-47-21-73 1-23 9-44 21-63 25-41 54-77 90-109 22-19 44-20 69-6 22 13 41 30 59 48l131 131c39 41 76 84 112 129 16 19 34 36 48 57s25 43 25 69ZM502 387c-1 20 7 40 18 60 11 19 25 36 38 53 52 69 108 136 173 194 31 28 64 55 101 76 32 17 66 25 100 5 39-24 73-54 96-94 10-18 15-38 12-59s-12-38-24-55c-14-19-30-36-44-53-32-39-63-79-98-115-52-53-104-106-159-156-14-13-28-24-45-33-21-11-40-9-59 4l-13 11c-24 23-46 48-64 75-18 25-32 52-32 87Zm10 1551c1-23 8-46 21-67 21-32 47-60 78-82 24-18 50-19 77-7a269 269 0 0 1 118 111c12 25 11 49-3 73-15 25-35 47-54 70-17 20-36 38-58 53-8 5-17 9-26 12-23 8-44 1-63-13-36-28-64-62-81-105-6-14-9-29-9-45Zm9 2v16l1 8c14 53 47 92 93 122 9 6 19 8 30 8 21 1 38-8 54-21 39-30 69-68 96-109 15-25 15-51 0-76-26-43-61-76-107-98a71 71 0 0 0-78 9c-22 16-41 35-57 56-19 25-34 52-32 85Zm971-23c-1-24 8-44 21-63 13-21 29-39 46-57 22-23 42-48 67-69 23-18 43-19 67-5 15 9 27 19 39 30 33 32 65 65 94 101 10 14 19 28 26 44 7 17 7 33-1 50-6 12-13 23-22 32-27 27-53 56-83 79-12 10-25 18-39 24a94 94 0 0 1-85-2c-52-27-92-67-120-118-7-15-11-30-10-46Zm174 167c24 1 45-9 64-22 38-28 71-62 101-98 20-24 21-51 7-78l-8-12a601 601 0 0 0-135-140c-27-15-48-13-71 7-23 19-43 43-64 65-18 19-34 39-47 62a95 95 0 0 0 0 99c24 44 60 77 102 103 16 9 33 14 51 14Zm166-672c1 16-4 31-13 45-23 38-50 74-82 105-16 15-32 27-52 35-16 7-31 6-47-1a342 342 0 0 1-111-119c-22-43-19-84 7-124 24-38 56-71 91-100 29-24 58-26 89-4 46 31 83 71 108 121 7 13 11 27 10 42Zm-312 7 2 17c3 23 13 43 26 62 20 29 43 55 72 76 25 19 51 23 80 6 15-9 29-20 42-33 24-25 44-53 63-81 26-36 25-72 3-109a333 333 0 0 0-104-105 63 63 0 0 0-74 6c-34 27-64 59-88 96-14 20-21 41-22 65Zm588-263c-1 19-8 37-17 54-15 26-35 49-55 71l-56 62c-9 9-19 17-30 23-14 9-29 8-43 0-15-8-27-18-39-29a907 907 0 0 1-121-145 70 70 0 0 1 7-83l26-31c25-27 49-54 79-76 15-11 31-20 50-24 29-5 54 4 77 19a359 359 0 0 1 113 122c5 12 8 24 9 37Zm-10-1c1-16-5-32-13-46a303 303 0 0 0-110-111 91 91 0 0 0-88-4c-8 4-17 9-25 15-39 29-71 65-101 104a67 67 0 0 0-15 50c2 14 7 26 14 38a636 636 0 0 0 141 151c19 11 38 12 57-2 6-5 13-10 18-16 22-22 44-45 65-69 14-15 26-30 36-47 12-19 22-39 21-63Zm-14 503c1 20-6 38-16 55-17 30-40 55-65 78l-32 29c-33 26-64 28-98 5-43-29-78-66-105-110a89 89 0 0 1 3-104c25-36 51-71 83-102 14-14 29-25 45-34 19-11 38-13 57-1a411 411 0 0 1 111 120c11 20 18 40 17 64Zm-160 174c11 0 25-6 38-15l31-26c25-22 47-47 65-74 26-40 25-81 2-122a362 362 0 0 0-100-108 54 54 0 0 0-57-4c-8 5-17 9-24 15-45 35-79 80-108 129a76 76 0 0 0 0 76c23 46 58 82 100 112 14 10 30 17 53 17ZM898 1494c23-2 42 6 60 17 37 24 68 55 91 93 27 43 24 84-6 124a454 454 0 0 1-106 101 72 72 0 0 1-70 3 407 407 0 0 1-132-114 94 94 0 0 1-19-44c-2-20 4-38 16-53 30-37 61-71 98-100 11-9 23-17 37-22 10-4 21-6 31-5Zm162 166c-1-12-3-26-10-39-24-47-59-83-104-108a86 86 0 0 0-64-10c-17 4-31 12-45 22-37 28-69 62-97 99a65 65 0 0 0-11 68c4 10 9 19 15 27a385 385 0 0 0 111 100c30 17 60 18 89-4 36-27 69-57 96-95 12-17 19-36 20-60Zm287 44c-38 1-63-17-83-42-40-50-76-103-108-158-25-46-61-80-105-106-51-31-99-66-145-104-14-11-26-23-36-38a81 81 0 0 1 0-90c16-25 40-33 69-29 25 3 48 16 69 28 46 28 90 58 133 89 21 15 42 30 64 43 38 23 69 53 94 90 42 59 83 119 115 184 9 19 16 39 14 60-1 29-15 50-40 63-14 7-29 11-41 10Zm-416-558c-12 0-23 1-34 8a67 67 0 0 0-27 72c5 28 25 48 46 66 43 36 90 70 139 99 44 26 80 59 104 104 20 35 42 69 65 102 18 25 35 50 57 71s48 30 78 26c37-6 61-33 61-69 0-22-8-42-17-60-32-64-72-122-115-178-18-24-39-45-64-63l-120-87c-37-27-75-53-116-74-18-9-36-18-57-17Zm-505-8c23-1 44 8 64 18 53 27 102 60 149 94 12 8 23 18 33 29 20 26 22 54 14 85-3 14-9 28-19 40-21 25-53 32-87 19-23-9-44-22-64-34-36-22-71-46-101-76-23-21-43-46-55-76-19-43 4-89 49-98 6-2 11-1 17-1Zm254 200c1-32-13-54-36-74a748 748 0 0 0-176-110c-14-5-28-8-43-8-42 1-71 37-61 78 6 29 24 51 43 71 31 35 69 61 109 86 20 12 41 26 64 34 38 12 69 4 88-29 9-15 13-32 12-48Zm1073-492c-2 36-14 69-41 95a83 83 0 0 1-94 16c-25-11-46-28-67-45-42-33-84-66-132-90-29-15-60-25-91-33l-15-5c-30-7-49-26-59-54l-28-70c-14-30-30-59-48-87-23-36-47-73-73-108-18-23-40-41-63-58-42-30-84-60-122-95-31-28-60-59-77-97-10-23-16-46-8-70 14-40 38-69 81-76 21-4 41 3 59 14 56 34 111 71 159 116 58 54 117 106 177 157 53 45 95 98 126 160 15 29 30 58 51 83 25 31 55 56 85 80 38 32 81 56 123 82 9 5 19 12 27 20 20 17 31 38 30 65ZM840 170c-1 13 3 26 7 38 11 28 29 51 49 73 39 41 85 75 131 107 36 25 71 52 95 89l42 63c37 54 68 110 94 170 7 19 17 36 33 48 12 9 26 15 39 20 23 8 47 15 69 25 51 24 96 56 140 91 20 15 40 33 62 46 27 16 56 23 86 8 45-23 61-80 53-119-5-25-22-41-42-56-19-14-39-25-59-38-39-25-76-54-111-85-30-26-56-56-75-91-16-30-31-60-49-89-34-54-80-96-128-137-44-36-87-73-127-113l-31-28c-30-26-64-49-96-71-18-12-35-25-54-34-16-7-33-12-51-10-42 5-80 56-77 93Zm376 705c0 40-27 74-64 80-20 3-37-3-50-19a51 51 0 0 1-8-55c13-32 46-52 81-51 28 1 41 16 41 45Zm-68 69c24 0 57-27 55-65-1-23-15-35-39-35-23 0-41 12-54 31a42 42 0 0 0-3 47c8 14 21 22 41 22Zm1015-20c-17 0-32-12-45-27a69 69 0 0 1-19-38c-2-13 4-21 17-23 19-4 37 3 54 12 9 4 17 9 24 17 10 11 15 23 9 38-5 14-18 21-40 21Zm-22-69c-13-1-19 6-18 16 2 16 24 36 40 36 9 0 16-3 20-10 5-8 2-15-3-22a55 55 0 0 0-39-20ZM617 935c-26-1-48-9-68-20-59-34-116-70-173-106a70 70 0 0 1-32-49 185 185 0 0 1 25-115c24-36 59-44 97-22 32 19 61 42 91 63 29 22 58 45 83 71 18 19 34 40 46 63 34 63-20 117-69 115Zm-3-9c36 3 79-32 74-75-2-13-6-25-12-36-19-35-47-61-76-87-28-24-59-45-89-66-15-11-30-22-46-31-36-21-69-13-92 23-7 10-11 22-15 34-5 18-8 36-7 55 1 29 15 51 39 66l70 44c34 21 67 43 103 60 16 8 33 13 51 13ZM1938 96c18 0 29 4 40 10 26 16 43 40 58 65 7 10 13 21 17 33 5 16-2 26-19 24-40-5-78-16-111-39-7-5-14-11-19-18-11-15-15-31-7-48 9-19 25-27 41-27Zm64 110h7c14-1 19-7 16-21l-3-8c-6-18-17-33-31-46a69 69 0 0 0-49-23c-17 1-38 15-34 41 2 10 7 18 14 24 23 20 50 31 80 33ZM162 1333c27 0 48 10 68 22 33 20 60 47 87 75 42 46 76 99 112 150 9 12 16 25 23 39 19 42 12 82-19 115-10 11-22 20-34 28-15 10-30 20-44 32-24 20-29 47-23 76 8 41 25 80 44 117 20 38 44 73 60 113a112 112 0 0 1-56 153c-17 8-35 6-52 1-28-9-52-26-75-45-44-38-79-84-112-131-23-31-47-61-66-94-19-34-25-68-3-103 9-16 22-29 38-39l52-34c9-5 17-12 24-20 18-21 20-45 14-71-9-39-26-75-46-110l-58-97c-11-17-19-35-24-55-7-30 1-58 20-82 10-12 22-23 37-31 11-6 23-9 33-9Zm292 330-3-22c-4-19-13-36-24-52l-50-73c-28-40-58-78-94-112-19-18-39-34-62-47-22-12-44-20-70-15-15 4-27 11-38 21a93 93 0 0 0-32 95c5 24 17 45 29 65 28 46 58 90 79 139 10 23 20 46 24 71 5 29-3 53-27 71l-26 17c-20 12-41 22-58 37-29 25-45 62-30 102l14 29c16 27 36 52 55 78 34 49 69 97 115 135 21 19 44 35 71 44 23 7 45 5 66-9 36-27 55-67 43-113-5-24-17-45-28-67-20-37-43-73-60-112-11-26-21-51-27-79-8-39 2-64 35-87l20-13c12-8 25-15 36-24 25-21 41-46 42-79Z"/>
    <path d="M888 771c-34-1-58-13-82-28-34-20-63-46-92-73a1254 1254 0 0 1-186-236c-17-38-13-74 7-109 18-32 41-59 70-82 22-19 47-22 73-9 24 11 45 28 64 45a1705 1705 0 0 1 208 224c16 20 33 39 47 59 9 12 16 25 21 39 10 27 7 53-7 78-20 35-50 61-85 81-13 8-27 11-38 11Zm128-138c0-20-6-37-16-53-14-25-34-46-51-69a1275 1275 0 0 0-209-226c-19-16-38-32-62-43a62 62 0 0 0-65 5c-15 10-28 24-40 37-14 16-27 33-36 52-19 40-14 79 9 116 14 25 32 47 49 70 48 68 103 131 168 184 25 20 51 39 82 50 29 11 57 11 83-5 29-18 53-39 72-68 10-15 16-32 16-50ZM786 1926c1 12-2 23-8 34-20 36-46 69-80 93-36 26-67 26-103 0-27-21-47-47-57-81-9-31-3-60 12-88 16-28 39-51 65-70 23-16 48-19 74-7 40 18 70 46 90 85 5 10 8 21 7 34Zm-8-1c0-14-3-26-9-37-18-31-44-56-76-71a71 71 0 0 0-76 6c-22 15-40 33-54 55-23 33-28 69-13 107 10 24 26 44 47 59 34 26 63 26 98 2 34-24 58-56 77-92 4-9 7-19 6-29Zm1048-7c1 16-4 30-13 43-26 36-57 68-95 91a98 98 0 0 1-102 3c-40-22-71-52-90-93a93 93 0 0 1-1-83c11-24 26-44 43-62 16-17 32-34 50-48 35-28 61-28 97-2a344 344 0 0 1 106 122c4 10 6 19 5 29Zm-8 0c1-15-4-29-11-42-26-44-60-81-104-108a63 63 0 0 0-75 3c-33 25-62 55-85 90-21 33-26 68-8 104 18 34 44 61 78 80 37 21 74 19 109-4 33-22 60-49 82-81 9-12 15-26 14-42Zm-282-496c-1-23 7-43 18-62 21-34 48-61 80-84 22-16 46-17 71-6a213 213 0 0 1 97 106c9 25 8 49-4 72-13 28-32 52-52 74-16 18-34 33-57 42-18 7-36 7-53-1a179 179 0 0 1-100-130v-11Zm264-14c1-12-2-24-7-35-17-38-43-68-79-90a69 69 0 0 0-85 6c-23 18-44 39-61 63-27 37-34 78-13 121 13 27 32 50 57 67 39 28 73 27 110-5 29-26 52-56 70-90 5-12 9-24 8-37Zm280-252c0 24-9 46-22 65-25 37-56 69-90 97-25 21-51 21-79 5a336 336 0 0 1-108-114c-22-38-21-70 5-105 22-29 47-56 77-78 8-6 16-10 25-14 39-19 74-9 107 14 28 20 52 45 70 76 9 17 15 35 15 54Zm-8-4c0-11-3-26-10-40-18-36-45-64-79-85-15-10-32-16-51-17-27-1-50 10-70 26-29 23-54 49-75 80a76 76 0 0 0-9 68 312 312 0 0 0 107 128c30 19 55 19 82-3 33-27 62-57 85-92 12-19 20-39 20-65Zm-141 350c13-1 25 4 37 11 40 24 69 58 87 102 13 33 8 65-10 95-21 37-51 66-86 90a71 71 0 0 1-79 3c-42-22-73-55-93-97a83 83 0 0 1 2-81c22-38 47-73 82-100 17-14 36-24 60-23Zm123 148c1-12-2-25-7-37-15-35-39-63-69-85-37-26-70-24-105 4-32 26-57 59-76 95a83 83 0 0 0-1 81c18 36 45 64 79 85 25 15 51 17 77 2l18-12c17-14 34-29 48-46 20-25 37-51 36-87Zm-1011 7c0 27-10 49-25 69-23 29-50 55-82 75a74 74 0 0 1-73 5c-47-21-82-55-108-98a71 71 0 0 1 3-81c24-36 53-68 91-92 35-22 70-23 106-2 34 21 61 49 78 86 6 12 10 26 10 38Zm-139-131c-17 0-34 5-48 14-37 21-64 51-88 85-21 30-20 60-1 90 22 33 51 60 86 79 26 14 53 17 80 0 34-21 64-48 86-83 18-29 22-60 7-92-17-35-43-62-76-80-14-8-29-13-46-13Zm494 88c1 39-28 62-67 55-20-3-36-14-51-28-35-34-63-74-87-117l-29-56c-21-40-53-67-93-88-52-26-99-59-140-100-15-15-27-33-32-55-6-29 13-53 43-53 18-1 34 5 49 13 51 24 96 55 137 94 35 33 72 64 109 95 66 53 117 118 151 196 6 14 11 29 10 44Zm-55 46c29 0 49-23 46-54-2-22-11-42-21-61-31-62-74-114-129-156-42-31-81-65-117-102-39-40-84-70-134-94-12-5-24-9-37-10-31-1-43 20-40 43 3 12 8 23 15 32 12 18 27 32 44 46 34 29 72 53 113 72 37 18 67 44 86 82l28 58c23 43 51 83 87 117 17 15 35 26 59 27Zm-905-492c23 0 43 9 62 18 44 22 85 49 121 82 18 18 32 38 34 64 4 45-28 72-66 65-25-5-47-18-68-30-33-18-63-40-90-66-19-18-36-38-44-65-11-37 12-69 51-68Zm4 10c-35-3-55 29-45 60 6 19 17 34 30 48 31 33 68 58 107 80 17 9 34 18 54 21 29 5 51-11 56-41 2-12 0-23-4-34-7-19-21-34-36-47-37-34-79-60-125-79-12-5-24-8-37-8Zm1274-313c-2 24-12 49-42 63-17 8-35 8-53 1-17-6-33-15-47-26-37-27-73-55-110-81-33-23-67-44-103-61-18-9-34-19-50-31-23-18-39-43-55-67a12275 12275 0 0 0-116-180c-25-41-58-73-98-99-32-21-64-43-94-68-27-22-53-46-71-76-13-20-22-42-22-67 2-52 51-88 101-74a913 913 0 0 1 171 113l35 33c37 37 78 71 120 104 58 48 107 104 139 173 9 20 19 39 30 59 18 34 45 60 75 85 41 35 85 67 129 99 18 12 35 26 47 45 9 15 15 31 14 55Zm-10-3c0-24-8-41-19-56s-26-26-40-37c-42-31-83-62-123-95-32-27-61-56-81-93l-37-74c-20-39-45-76-77-107-24-23-49-44-75-65a1552 1552 0 0 1-143-127c-33-29-71-52-107-77-15-9-31-18-48-23a72 72 0 0 0-92 57c-3 20 1 38 9 55 17 35 44 61 73 86 34 29 72 54 110 79 35 23 63 52 85 87 40 66 83 129 126 192 23 34 50 62 87 81 35 19 70 38 102 62l121 88c16 12 33 23 53 27 18 4 36 2 51-10 17-14 25-32 25-50ZM370 726c1-26 6-51 25-70 13-13 29-18 47-14 21 4 38 15 55 26 39 25 76 51 110 82 22 20 41 42 53 70 14 31 4 63-23 77-17 9-34 10-52 6-21-5-39-14-58-24-41-23-79-49-117-77a92 92 0 0 1-37-51c-2-8-4-16-3-25Zm8-6c0 29 8 51 27 67 42 36 89 66 139 92 15 7 30 13 47 16 39 6 68-20 65-57-1-8-4-15-7-22-9-19-22-36-37-50-41-40-88-73-137-102-9-6-20-11-30-13-17-3-32 1-44 13a83 83 0 0 0-23 56ZM96 1443c0-38 21-69 56-82 17-6 35-4 52 2 24 9 44 23 64 40 36 30 65 67 91 106 23 33 46 65 63 101 9 19 14 39 10 61s-15 40-32 53c-30 22-64 35-100 41-14 2-26-2-36-12-12-11-20-25-28-40-33-59-69-118-104-176-11-18-21-36-29-56-4-12-8-25-7-38Zm328 209c1-18-7-38-17-56-30-52-62-102-102-147-24-27-49-52-81-70-20-10-42-17-64-11a79 79 0 0 0-54 94c5 26 18 50 32 72l85 141c13 21 27 43 45 60 11 11 24 15 38 14 31-3 61-13 86-31 21-16 32-36 32-66Zm-2 490c1 31-10 55-32 73-25 21-53 21-82 8-35-15-62-40-87-68-44-48-79-102-114-157-11-19-19-39-20-62 0-29 13-52 35-68 32-22 68-35 106-44 21-4 37 3 49 20s22 35 31 53c29 59 64 114 93 173 7 14 14 28 18 44 2 10 4 20 3 28ZM96 1940c0 19 9 39 20 58 12 21 25 41 39 61 30 44 61 87 101 122 15 13 31 25 48 33 16 7 31 12 49 9 33-6 66-41 62-87-2-22-10-42-19-62-25-51-56-99-82-149-12-22-24-43-39-61-14-18-31-28-55-24-31 5-60 15-87 32a76 76 0 0 0-37 68Z"/>
    <path d="M875 749c-29-1-54-13-78-28-43-27-80-63-114-101-46-51-85-108-121-166-19-30-27-63-15-99 8-23 22-44 39-62 9-10 20-20 32-27 19-13 40-14 62-6 26 10 48 27 69 44a1209 1209 0 0 1 183 200c17 23 35 45 50 70 25 42 22 81-9 119-15 19-34 35-56 46-13 7-27 10-42 10ZM550 394c-1 20 9 43 22 64 15 27 34 52 52 78 39 57 84 109 137 152 24 19 49 36 77 47 23 8 46 10 68 1 23-10 43-25 59-45 31-38 33-75 8-119-12-20-27-39-41-58a1046 1046 0 0 0-175-195c-21-19-43-36-69-48-29-13-58-9-81 13l-21 21c-21 24-36 51-36 89Zm208 1530c1 12-3 23-8 34-13 25-30 46-52 64-53 41-101 13-125-27-28-45-16-91 18-129 10-11 21-20 34-28 22-13 45-14 68-3 28 13 48 33 60 61 4 9 6 18 5 28Zm-192 17c0 23 6 42 19 59 28 34 65 43 100 20 27-18 47-42 60-72 9-21 6-42-6-62-10-16-24-30-40-39a66 66 0 0 0-75 2c-17 12-32 26-43 44a85 85 0 0 0-15 48Zm975-20c0-27 12-49 27-70 16-22 35-40 56-56 26-20 54-23 82-7 38 22 67 53 86 93 12 26 10 52-6 76-18 28-40 51-68 68-42 25-83 23-122-7-27-20-46-46-53-80l-2-17Zm124 113c11 1 25-3 38-10 34-17 59-43 78-75 12-19 14-40 6-61-17-41-46-71-84-93a64 64 0 0 0-72 5c-26 18-49 41-65 68a96 96 0 0 0 0 108l17 21c22 22 47 37 82 37Zm-6-494c-10 0-22-4-34-10-38-21-61-54-66-97-4-25 5-48 18-69 15-24 35-44 58-60 25-17 51-19 77-4 34 20 59 48 70 88 4 15 3 29-3 43-15 40-39 73-75 96-13 8-27 13-45 13Zm-93-115c0 40 29 84 66 100 21 9 43 9 63-3 36-21 60-52 76-90 9-23 5-45-6-67-9-19-23-35-41-48-32-24-59-25-92-1-19 14-36 31-48 52-11 17-18 36-18 57Zm226-263c-1-10 1-20 6-30 20-40 49-72 89-94 29-15 59-14 88 0 32 16 55 41 70 74 16 34 12 66-6 98-19 31-44 57-74 79a68 68 0 0 1-83 3c-38-24-67-57-84-99-5-10-7-20-6-31Zm255-9v-10c-5-35-25-62-53-84-41-32-83-32-125-1-24 18-43 40-59 66a73 73 0 0 0-6 63c15 43 44 74 81 97 26 17 52 16 77-3 27-19 49-41 66-69 12-18 19-37 19-59Zm-9 497c1 22-6 40-17 58-15 25-35 46-59 62a77 77 0 0 1-95 1c-23-15-41-36-54-61a84 84 0 0 1-2-77c15-31 35-58 61-80 38-31 76-31 115-1 19 16 34 34 43 57 6 13 10 27 8 41Zm-6-2-1-11c-5-32-23-58-48-78-35-28-69-28-105 0-27 21-47 48-61 79-9 20-9 41-1 61 14 32 36 57 67 72 22 11 45 10 66-2 25-15 45-33 61-57 13-19 21-39 22-64ZM905 1544c19-1 36 6 51 15 28 17 48 41 58 72 9 27 4 51-10 74-19 32-45 56-77 74a71 71 0 0 1-63 3c-37-15-66-41-84-77a69 69 0 0 1 1-69c21-36 47-65 85-83 12-6 25-10 39-9Zm-2 8c-11-1-25 3-37 9-36 20-63 48-80 84-8 16-8 32-3 48 13 34 37 58 68 75 30 17 58 15 86-4 16-11 30-23 43-37 16-19 28-40 30-66 1-30-12-55-33-76a97 97 0 0 0-74-33Zm455 39c0 28-19 41-43 31-22-8-37-23-52-40-24-27-42-58-53-93l-6-33c-2-22 9-31 30-24 28 9 51 27 70 49 22 25 39 54 50 86 2 9 4 17 4 24Zm-136-113c0 8 3 19 7 29 11 28 27 53 48 74 11 12 24 23 40 27 14 4 25-4 26-18 2-8 0-17-2-25-10-32-27-60-51-83a95 95 0 0 0-41-27c-18-6-27 1-27 23Zm-237-248c16 0 31 8 45 16 24 13 45 30 61 53 4 6 6 12 8 18 2 10-3 16-12 18-8 2-16 0-23-3a193 193 0 0 1-91-66l-6-12c-6-15 1-24 18-24Zm70 77c8 0 11-5 7-12a83 83 0 0 0-49-36c-4-1-9-2-11 2-3 5 0 9 2 12 12 17 28 27 47 33l4 1Zm-588-97a227 227 0 0 1 127 77c7 9 13 19 16 31 5 25-11 41-36 37-21-3-41-13-59-24-27-15-51-34-70-59-5-6-9-13-12-21-8-25 3-42 34-41Zm103 130c20 0 28-11 22-30-2-7-5-13-10-18-24-32-56-53-94-64-6-2-12-4-19-4-16 1-23 10-20 26l6 15c22 30 50 52 84 67 10 4 20 8 31 8Zm1104-487c1 31-24 48-55 40-18-5-33-15-48-25-52-35-100-74-149-112-20-15-42-28-64-41-38-23-70-54-98-89-41-50-77-103-107-160-24-45-61-77-104-103-47-28-91-58-129-98-18-19-33-41-37-68-7-43 28-78 71-70 15 3 29 9 41 17 51 30 100 61 142 103 40 41 84 77 130 111a431 431 0 0 1 149 201c13 30 27 60 48 85 17 20 38 36 58 52 38 30 78 58 114 90 15 13 28 28 35 46 2 7 4 14 3 21ZM943 136c-35-3-56 34-52 60s17 46 34 64c38 40 84 71 132 99 46 27 82 63 107 111 19 40 44 76 70 112 40 54 86 100 145 133 22 12 43 27 63 43 44 37 90 72 139 104 13 9 26 16 42 19 26 5 44-16 37-41-3-11-8-20-14-29-10-12-21-22-33-32-34-27-67-54-102-79-47-33-79-77-99-130-6-18-14-36-23-54-27-60-69-108-121-148-44-34-89-68-128-108-41-41-88-74-138-103-18-11-36-22-59-21ZM402 723c-1-6 0-13 3-20 8-21 26-31 48-26 21 6 39 18 57 29 31 20 60 42 85 68 12 13 23 27 28 45 9 30-11 53-43 48-14-2-27-6-39-11-41-19-78-43-111-73-17-16-29-35-28-60Zm10 2c0 19 9 34 22 47 31 32 67 56 108 73 11 5 23 9 35 10 24 3 39-15 33-38-3-9-8-18-14-26-27-34-62-60-100-83-12-7-25-15-39-18-26-6-45 8-45 35Zm-89 989c-25 0-45-10-62-26-18-17-32-36-46-55-27-40-54-80-75-123-9-18-16-36-16-57-1-51 44-81 92-61 25 11 46 28 65 47 43 44 75 95 104 148 8 14 14 30 16 46 6 32-9 59-38 73-11 5-28 8-40 8Zm69-73c1-9-2-18-5-27-9-29-24-53-40-78-25-40-53-78-89-109-18-15-37-28-61-32-23-3-42 5-55 24-12 19-12 39-6 60a633 633 0 0 0 127 197c21 21 47 30 77 26 30-5 54-30 52-61Zm4 495c0 16-5 33-18 47a60 60 0 0 1-64 17c-23-7-42-21-60-37a726 726 0 0 1-124-170c-6-12-11-26-12-40-3-37 17-63 55-75 45-14 81-2 109 34 41 53 77 110 103 172 7 16 11 32 11 52Zm-190-252c-17-1-32 3-47 11-17 9-28 23-31 43-3 19 2 37 10 53 31 62 70 119 121 167 16 15 34 27 56 33 33 9 63-9 71-43 4-21 0-41-8-60-10-27-23-53-38-77-22-36-43-73-74-102a77 77 0 0 0-60-25Z"/>
    <path d="M871 727c-31 0-55-12-77-26-41-25-75-59-106-95-38-44-68-92-98-141-12-19-20-40-22-63-3-41 16-73 45-99l5-4c23-18 47-21 74-10 24 9 45 24 65 41 56 46 104 99 145 159 17 25 35 49 50 74 7 12 13 25 17 38 7 26 3 50-11 71-15 23-35 39-60 50-10 3-20 5-27 5ZM576 393c-1 14 2 26 6 39a679 679 0 0 0 173 235c24 19 49 37 79 47 49 16 106-12 125-61 11-30 4-57-11-83-15-28-35-53-52-79-40-59-88-111-142-156-20-17-42-32-67-40-17-6-34-7-49 2-37 21-60 52-62 96Zm10 1551c0-39 35-80 74-84 34-3 69 32 66 67-2 30-32 68-61 78-31 10-61-5-74-35-3-9-5-17-5-26Zm78-72c-41 0-77 47-66 87 10 33 43 47 73 31 23-12 37-31 43-57 7-31-18-61-50-61Zm997 144c-37-1-64-20-82-51s-14-62 3-92c14-23 33-42 57-56 18-11 37-13 57-5 36 15 60 42 73 79 6 18 3 36-5 52-18 33-42 57-78 69-8 3-16 5-25 4Zm-85-93c0 11 2 21 7 32 16 37 60 66 106 47 34-13 56-38 70-71 4-9 6-20 3-30-8-39-32-65-68-81-16-7-32-5-48 3-20 11-36 26-50 44a95 95 0 0 0-20 56Zm180-512c0 22-14 45-33 67-6 7-13 13-21 19-43 28-86 8-106-26-22-39-15-81 17-115 10-11 21-20 33-27 20-11 40-13 60-2 30 15 50 46 50 84Zm-164 15c0 8 1 16 4 23 14 43 62 73 109 34 18-15 31-33 38-55 8-24 5-46-9-66-15-19-33-34-60-32-15 1-28 9-40 18-25 20-42 45-42 78Zm225-260c0-10 3-20 7-28 16-35 40-62 75-77 30-14 60-9 86 10 25 18 40 42 44 73 3 19-2 36-10 51-16 31-39 56-70 73a59 59 0 0 1-59 0c-37-20-62-49-71-90l-2-12Zm115-104c-9-1-19 1-28 5-29 12-50 34-66 60a71 71 0 0 0-6 67c12 31 33 54 63 67 16 8 34 8 50-1 33-18 58-44 71-79 23-63-36-123-84-119Zm82 586c1 22-7 40-18 57-12 18-28 32-46 43a66 66 0 0 1-75-1 95 95 0 0 1-46-72c-1-13 2-25 7-36 10-25 26-46 47-62 42-32 85-19 113 17 12 16 19 35 18 54Zm-8 1c0-9-1-17-3-25-16-43-64-77-114-41-21 15-36 35-45 59-10 25-8 48 6 70 16 23 37 39 67 38 19-1 34-11 47-23 25-20 42-45 42-78Zm-1206 22c0-5 1-13 4-19 14-33 36-59 68-74 54-25 108 15 118 61 6 26-2 49-17 69-13 19-31 34-52 44a71 71 0 0 1-73-5c-18-11-33-26-42-46-4-9-6-18-6-30Zm90 80h7c31-7 54-25 71-51 27-40 16-84-24-110-14-9-29-12-45-10-27 3-47 17-64 37-12 14-21 28-25 46-8 43 37 88 80 88Zm522-1098c1 17-6 23-21 20-36-7-66-24-93-47-51-41-87-92-114-151l-22-46c-17-36-44-63-80-80-38-17-72-39-104-65-21-17-41-34-53-59-3-8-6-16-5-24 0-25 18-41 43-36 13 2 26 7 38 14 53 27 99 64 139 109 20 23 45 42 71 59 24 16 49 33 72 51 43 33 73 77 94 127 16 38 26 79 35 120v8Zm-20-30c0-23-6-45-12-67-18-58-49-109-96-148-25-20-52-37-80-53-29-16-54-36-74-61-34-41-73-75-120-100-16-8-32-16-50-16-20 0-31 14-27 33 3 10 7 19 13 28a419 419 0 0 0 147 104c28 10 49 28 64 54 11 20 20 41 29 62 23 56 55 105 100 146 22 20 46 36 75 43 20 5 33 2 31-23v-2ZM506 775c-3-1-6-3-6-6-1-2 1-3 3-3 3 1 6 3 6 6 1 2-1 3-3 3Zm-141 855c0 31-29 50-64 38-14-4-26-12-37-21-46-43-80-93-101-151-5-12-6-24-5-37 1-24 23-42 47-38 16 2 29 9 42 18a422 422 0 0 1 109 147c5 14 9 27 9 43Zm-48 28c23 0 36-13 37-36 0-11-3-21-7-31-22-53-54-100-97-138a83 83 0 0 0-40-20c-16-3-31 4-38 18-5 10-5 22-2 33a307 307 0 0 0 100 154c13 11 28 20 47 20Zm47 461c0 10-2 20-8 29-11 18-34 24-57 14-20-8-37-21-51-36-35-36-63-77-85-123-7-15-12-31-10-49 4-30 28-44 58-42 20 2 38 11 53 25a355 355 0 0 1 100 172v10Zm-158-195c-27 0-42 16-42 42 0 10 2 20 6 29 10 27 25 52 42 75 19 26 39 51 65 69 10 8 22 14 35 16 19 3 34-8 40-26 2-9 2-19 0-28-6-33-21-63-39-90-17-27-36-53-63-72-13-9-28-15-44-15Z"/>
    <path d="M594 399c1-34 17-62 48-81 19-11 38-9 58-2 26 10 48 26 69 44 44 37 81 80 112 128 16 23 32 46 46 70 7 12 12 25 16 38 12 43-13 79-43 96-28 17-57 14-86 1-28-12-52-31-74-52-38-35-68-76-95-120-15-25-31-48-41-75-6-15-10-29-10-47Zm263 297c31-1 54-16 70-42s12-53 0-80c-7-15-16-28-24-42-38-60-79-118-134-164-19-16-39-31-62-41-19-8-38-12-57-2a84 84 0 0 0-45 58c-7 26 0 51 12 74 28 56 62 110 105 157 20 23 42 43 68 59 21 13 42 23 67 23Zm881 1210c1 40-39 80-78 79-48 0-76-54-52-97 8-14 18-25 31-34 35-24 68-10 87 16 8 11 13 23 12 36Zm-128 16c0 31 22 53 52 52s49-19 61-44c12-27 1-57-25-71-8-4-16-7-25-6-33 3-63 36-63 69Zm110-511c-1 19-11 40-32 53-31 21-68 3-72-35-3-31 25-65 55-69 27-4 49 17 49 51Zm-44-37c-25 0-49 25-48 51 1 14 7 25 20 32 13 6 25 3 36-5 14-10 22-24 23-41 2-21-12-37-31-37Zm324-218c0 24-13 44-32 62l-17 14a57 57 0 0 1-70-2 74 74 0 0 1-14-110c15-19 32-32 56-36 21-4 39 2 54 16s24 32 23 56Zm-10-2c1-23-9-41-28-53a55 55 0 0 0-60 1c-14 7-25 19-33 32-18 33-12 65 18 88 12 9 26 12 40 9 34-9 65-47 63-77Zm-6 496c0 35-31 70-65 74-29 3-56-20-57-50-2-31 21-66 49-78 36-14 71 13 73 47v7Zm-54-46c-8 0-16 2-24 7a68 68 0 0 0-32 62c1 24 21 42 46 38 26-3 59-33 53-69-3-22-21-38-43-38Zm-972 52c1 36-36 71-72 69-35-2-58-36-47-69 11-31 39-53 68-52 29 0 51 22 51 52Zm-69 56c28 0 52-21 57-49 5-27-19-52-46-47-26 4-41 20-49 43-9 28 9 53 38 53Zm463-1153c0 31-15 42-42 30-20-8-36-23-49-39-24-29-42-60-48-96l-1-13c0-23 11-32 33-26 16 4 29 12 41 23 31 26 52 59 63 98 2 8 4 16 3 23Zm-14-9c0-9-2-17-4-24-8-26-22-48-41-68a83 83 0 0 0-41-24c-14-4-23 3-24 18 0 10 1 19 4 29 10 31 28 57 53 78 8 7 17 13 27 16 15 3 25-4 26-19v-6ZM308 1585c0 17-11 25-25 19-13-4-23-12-32-22-14-15-25-33-33-52l-6-21c-2-19 9-28 27-21 10 4 18 10 25 17 19 20 34 42 42 68l2 12Zm-28-21c0-13-18-39-31-44-6-2-11 1-10 8 4 19 14 33 30 43 7 4 11 1 11-7Zm36 518c0 23-13 32-33 24a172 172 0 0 1-80-108l-1-11c2-15 13-23 28-20 14 3 26 11 36 22 25 23 42 51 49 85l1 8Zm-19-13v-4c-7-30-22-53-46-70-7-5-15-10-24-4-8 6-5 15-3 24 4 17 14 33 26 46 8 8 16 17 27 22 12 5 20 0 20-14Z"/>
    <path d="M624 411c-1-14 2-26 8-38 17-28 46-39 77-28 24 9 44 23 63 40 58 50 99 113 134 180 8 16 12 33 11 51-2 37-41 71-87 61-26-7-48-21-68-38-36-30-64-68-89-108-15-26-32-52-42-80-5-13-8-26-7-40Zm284 196c1-14-4-27-10-40-6-15-15-29-23-44-31-49-64-97-109-134-17-14-34-26-54-34-36-13-68 4-78 41-3 11-3 22 0 33a496 496 0 0 0 124 197c20 19 43 36 72 42 41 10 78-19 78-61Zm1044 549c0 18-14 33-31 32-13 0-22-9-22-23 0-17 15-33 31-33 13 0 22 10 22 24Z"/>
    <path d="M884 597c0 34-26 56-58 50-22-4-41-15-57-29-48-43-81-96-105-155-6-15-9-31-6-48 4-26 26-41 52-36 17 3 31 11 44 20a482 482 0 0 1 124 167c4 10 7 21 6 31ZM668 433c-1 11 2 23 7 34 22 53 52 101 95 141 15 15 33 26 55 29 26 4 48-14 49-41 0-11-2-21-6-31a388 388 0 0 0-103-147c-13-11-28-21-45-26-20-6-38 0-47 15-4 8-5 17-5 26Z"/>
    <path d="M838 572c1 22-12 32-33 26-20-5-34-19-48-34-20-22-35-48-46-76-3-9-5-18-6-28-1-21 13-31 33-25 11 4 21 10 29 17 32 29 55 63 69 103 1 6 3 12 2 17ZM723 472l1 6c8 38 29 67 58 92l18 9c13 3 22-4 21-17-1-9-3-17-6-26-12-27-29-50-52-70-6-4-12-8-19-10-13-4-21 2-21 16Z"/>
  </g>
</svg>
